{
.appVersion = "1348";
DisplayStrings = (

glyphs = (
{
glyphname = .notdef;
layers = (
{
layerId = "6CD1E358-6E98-409F-9A1F-EA9DE4C1A8AA";
paths = (
{
closed = 1;
nodes = (
"944 0 LINE",
"944 1760 LINE",
"78 1760 LINE",
"78 0 LINE"
);
},
{
closed = 1;
nodes = (
"341 1630 LINE",
"681 1630 LINE",
"511 1091 LINE"
);
},
{
closed = 1;
nodes = (
"218 1598 LINE",
"445 880 LINE",
"218 162 LINE"
);
},
{
closed = 1;
nodes = (
"578 880 LINE",
"804 1598 LINE",
"804 162 LINE"
);
},
{
closed = 1;
nodes = (
"681 130 LINE",
"341 130 LINE",
"511 669 LINE"
);
}
);
width = 1022;
}
);
userData = {
com.typemytype.robofont.layerData = {
};
};
},
{
glyphname = A;
layers = (
{
anchors = (
{
name = bottom;
position = "{497, 20}";
},
{
name = ogonek;
position = "{790, 0}";
},
{
name = top_case;
position = "{496, 1760}";
}
);
background = {
anchors = (
{
name = bottom;
position = "{497, 20}";
},
{
name = ogonek;
position = "{790, 0}";
},
{
name = top;
position = "{496, 1760}";
},
{
name = top_case;
position = "{496, 1750}";
}
);
paths = (
{
closed = 1;
nodes = (
"372 0 LINE",
"394 284 LINE",
"606 284 LINE",
"631 0 LINE",
"964 0 LINE",
"797 1760 LINE",
"200 1760 LINE",
"30 0 LINE"
);
},
{
closed = 1;
nodes = (
"486 1460 LINE",
"502 1460 LINE",
"579 565 LINE",
"419 565 LINE"
);
}
);
};
layerId = "6CD1E358-6E98-409F-9A1F-EA9DE4C1A8AA";
paths = (
{
closed = 1;
nodes = (
"372 0 LINE",
"394 284 LINE",
"606 284 LINE",
"631 0 LINE",
"964 0 LINE",
"797 1760 LINE",
"200 1760 LINE",
"30 0 LINE"
);
},
{
closed = 1;
nodes = (
"486 1460 LINE",
"502 1460 LINE",
"579 565 LINE",
"419 565 LINE"
);
}
);
width = 994;
}
);
leftKerningGroup = A;
leftMetricsKey = A;
rightKerningGroup = A;
rightMetricsKey = A;
unicode = 0041;
userData = {
com.typemytype.robofont.layerData = {
};
};
},
{
glyphname = "Alpha-latin";
layers = (
{
layerId = "6CD1E358-6E98-409F-9A1F-EA9DE4C1A8AA";
paths = (
{
closed = 1;
nodes = (
"497 -16 OFFCURVE",
"607 42 OFFCURVE",
"647 208 CURVE",
"621 246 LINE",
"685 38 OFFCURVE",
"805 -10 OFFCURVE",
"1059 -10 CURVE",
"1059 306 LINE",
"969 306 OFFCURVE",
"931 344 OFFCURVE",
"931 439 CURVE SMOOTH",
"931 1760 LINE",
"581 1760 LINE",
"581 1604 LINE",
"541 1718 OFFCURVE",
"477 1776 OFFCURVE",
"363 1776 CURVE SMOOTH",
"104 1776 OFFCURVE",
"64 1578 OFFCURVE",
"64 1294 CURVE SMOOTH",
"64 467 LINE SMOOTH",
"64 182 OFFCURVE",
"104 -16 OFFCURVE",
"363 -16 CURVE SMOOTH"
);
},
{
closed = 1;
nodes = (
"431 278 OFFCURVE",
"414 336 OFFCURVE",
"414 431 CURVE SMOOTH",
"414 1330 LINE SMOOTH",
"414 1424 OFFCURVE",
"431 1482 OFFCURVE",
"499 1482 CURVE SMOOTH",
"561 1482 OFFCURVE",
"581 1416 OFFCURVE",
"581 1330 CURVE SMOOTH",
"581 431 LINE SMOOTH",
"581 344 OFFCURVE",
"561 278 OFFCURVE",
"499 278 CURVE SMOOTH"
);
}
);
width = 1069;
}
);
leftKerningGroup = O;
unicode = 2C6D;
},
{
glyphname = Astroke;
layers = (
{
components = (
{
name = A;
}
);
layerId = "6CD1E358-6E98-409F-9A1F-EA9DE4C1A8AA";
paths = (
{
closed = 1;
nodes = (
"241 -186 LINE",
"398 419 LINE",
"258 419 LINE",
"101 -186 LINE"
);
},
{
closed = 1;
nodes = (
"661 1425 LINE",
"809 2000 LINE",
"669 2000 LINE",
"521 1425 LINE"
);
}
);
width = 994;
}
);
leftMetricsKey = A;
rightMetricsKey = A;
unicode = 023A;
},
{
glyphname = AE;
layers = (
{
anchors = (
{
name = top;
position = "{796, 1760}";
}
);
background = {
anchors = (
{
name = top;
position = "{796, 1760}";
}
);
paths = (
{
closed = 1;
nodes = (
"337 0 LINE",
"416 479 LINE",
"622 479 LINE",
"623 0 LINE",
"1272 0 LINE",
"1272 311 LINE",
"963 311 LINE",
"963 750 LINE",
"1235 750 LINE",
"1235 1049 LINE",
"963 1049 LINE",
"963 1451 LINE",
"1249 1451 LINE",
"1249 1760 LINE",
"277 1760 LINE",
"-44 0 LINE"
);
},
{
closed = 1;
nodes = (
"561 1461 LINE",
"618 1461 LINE",
"618 769 LINE",
"462 769 LINE"
);
}
);
};
layerId = "6CD1E358-6E98-409F-9A1F-EA9DE4C1A8AA";
paths = (
{
closed = 1;
nodes = (
"337 0 LINE",
"416 479 LINE",
"623 479 LINE",
"623 0 LINE",
"1272 0 LINE",
"1272 311 LINE",
"963 311 LINE",
"963 750 LINE",
"1235 750 LINE",
"1235 1049 LINE",
"963 1049 LINE",
"963 1451 LINE",
"1249 1451 LINE",
"1249 1760 LINE",
"277 1760 LINE",
"-44 0 LINE"
);
},
{
closed = 1;
nodes = (
"561 1461 LINE",
"618 1461 LINE",
"618 769 LINE",
"462 769 LINE"
);
}
);
width = 1311;
}
);
rightKerningGroup = E;
unicode = 00C6;
userData = {
com.typemytype.robofont.layerData = {
};
};
},
{
glyphname = B;
layers = (
{
anchors = (
{
name = bottom;
position = "{451, 0}";
},
{
name = top;
position = "{451, 1760}";
}
);
background = {
anchors = (
{
name = top;
position = "{451, 1760}";
}
);
paths = (
{
closed = 1;
nodes = (
"555 0 LINE SMOOTH",
"865 0 OFFCURVE",
"942 226 OFFCURVE",
"942 569 CURVE SMOOTH",
"942 781 OFFCURVE",
"900 939 OFFCURVE",
"742 979 CURVE",
"863 1011 OFFCURVE",
"922 1116 OFFCURVE",
"922 1281 CURVE SMOOTH",
"922 1358 LINE SMOOTH",
"922 1645 OFFCURVE",
"811 1760 OFFCURVE",
"555 1760 CURVE SMOOTH",
"78 1760 LINE",
"78 0 LINE"
);
},
{
closed = 1;
nodes = (
"450 310 OFFCURVE",
"438 311 OFFCURVE",
"422 312 CURVE",
"422 822 LINE",
"487 822 LINE SMOOTH",
"570 822 OFFCURVE",
"594 760 OFFCURVE",
"594 660 CURVE SMOOTH",
"594 440 LINE SMOOTH",
"594 354 OFFCURVE",
"548 310 OFFCURVE",
"457 310 CURVE SMOOTH"
);
},
{
closed = 1;
nodes = (
"422 1488 LINE",
"496 1488 LINE SMOOTH",
"546 1488 OFFCURVE",
"571 1460 OFFCURVE",
"571 1403 CURVE SMOOTH",
"571 1226 LINE SMOOTH",
"571 1155 OFFCURVE",
"559 1097 OFFCURVE",
"494 1097 CURVE SMOOTH",
"422 1097 LINE"
);
}
);
};
layerId = "6CD1E358-6E98-409F-9A1F-EA9DE4C1A8AA";
paths = (
{
closed = 1;
nodes = (
"555 0 LINE SMOOTH",
"865 0 OFFCURVE",
"942 226 OFFCURVE",
"942 569 CURVE SMOOTH",
"942 781 OFFCURVE",
"900 939 OFFCURVE",
"742 979 CURVE",
"863 1011 OFFCURVE",
"922 1116 OFFCURVE",
"922 1281 CURVE SMOOTH",
"922 1358 LINE SMOOTH",
"922 1645 OFFCURVE",
"811 1760 OFFCURVE",
"555 1760 CURVE SMOOTH",
"78 1760 LINE",
"78 0 LINE"
);
},
{
closed = 1;
nodes = (
"450 310 OFFCURVE",
"433 311 OFFCURVE",
"422 312 CURVE",
"422 822 LINE",
"487 822 LINE SMOOTH",
"570 822 OFFCURVE",
"594 760 OFFCURVE",
"594 660 CURVE SMOOTH",
"594 440 LINE SMOOTH",
"594 354 OFFCURVE",
"548 310 OFFCURVE",
"457 310 CURVE SMOOTH"
);
},
{
closed = 1;
nodes = (
"422 1488 LINE",
"496 1488 LINE SMOOTH",
"546 1488 OFFCURVE",
"571 1460 OFFCURVE",
"571 1403 CURVE SMOOTH",
"571 1226 LINE SMOOTH",
"571 1155 OFFCURVE",
"559 1097 OFFCURVE",
"494 1097 CURVE SMOOTH",
"422 1097 LINE"
);
}
);
width = 980;
}
);
leftKerningGroup = H;
rightKerningGroup = B;
unicode = 0042;
userData = {
com.typemytype.robofont.layerData = {
};
};
},
{
glyphname = "Beta-latin";
layers = (
{
layerId = "6CD1E358-6E98-409F-9A1F-EA9DE4C1A8AA";
paths = (
{
closed = 1;
nodes = (
"422 -186 LINE",
"422 0 LINE",
"555 0 LINE SMOOTH",
"865 0 OFFCURVE",
"942 226 OFFCURVE",
"942 569 CURVE SMOOTH",
"942 781 OFFCURVE",
"900 939 OFFCURVE",
"742 979 CURVE",
"863 1011 OFFCURVE",
"922 1116 OFFCURVE",
"922 1281 CURVE SMOOTH",
"922 1358 LINE SMOOTH",
"922 1645 OFFCURVE",
"811 1760 OFFCURVE",
"555 1760 CURVE SMOOTH",
"78 1760 LINE",
"78 -186 LINE"
);
},
{
closed = 1;
nodes = (
"450 310 OFFCURVE",
"433 311 OFFCURVE",
"422 312 CURVE",
"422 822 LINE",
"487 822 LINE SMOOTH",
"570 822 OFFCURVE",
"594 760 OFFCURVE",
"594 660 CURVE SMOOTH",
"594 440 LINE SMOOTH",
"594 354 OFFCURVE",
"548 310 OFFCURVE",
"457 310 CURVE SMOOTH"
);
},
{
closed = 1;
nodes = (
"422 1488 LINE",
"496 1488 LINE SMOOTH",
"546 1488 OFFCURVE",
"571 1460 OFFCURVE",
"571 1403 CURVE SMOOTH",
"571 1226 LINE SMOOTH",
"571 1155 OFFCURVE",
"559 1097 OFFCURVE",
"494 1097 CURVE SMOOTH",
"422 1097 LINE"
);
}
);
width = 980;
}
);
leftKerningGroup = H;
rightKerningGroup = B;
unicode = A7B4;
},
{
glyphname = Bhook;
layers = (
{
layerId = "6CD1E358-6E98-409F-9A1F-EA9DE4C1A8AA";
paths = (
{
closed = 1;
nodes = (
"903 0 LINE SMOOTH",
"1213 0 OFFCURVE",
"1290 226 OFFCURVE",
"1290 569 CURVE SMOOTH",
"1290 781 OFFCURVE",
"1248 939 OFFCURVE",
"1090 979 CURVE",
"1211 1011 OFFCURVE",
"1270 1116 OFFCURVE",
"1270 1281 CURVE SMOOTH",
"1270 1358 LINE SMOOTH",
"1270 1645 OFFCURVE",
"1159 1760 OFFCURVE",
"903 1760 CURVE SMOOTH",
"426 1760 LINE SMOOTH",
"143 1760 OFFCURVE",
"5 1573 OFFCURVE",
"5 1312 CURVE SMOOTH",
"5 1252 LINE",
"312 1252 LINE",
"312 1336 LINE SMOOTH",
"312 1441 OFFCURVE",
"347 1488 OFFCURVE",
"426 1488 CURVE",
"426 0 LINE"
);
},
{
closed = 1;
nodes = (
"798 310 OFFCURVE",
"781 311 OFFCURVE",
"770 312 CURVE",
"770 822 LINE",
"835 822 LINE SMOOTH",
"918 822 OFFCURVE",
"942 760 OFFCURVE",
"942 660 CURVE SMOOTH",
"942 440 LINE SMOOTH",
"942 354 OFFCURVE",
"896 310 OFFCURVE",
"805 310 CURVE SMOOTH"
);
},
{
closed = 1;
nodes = (
"770 1488 LINE",
"844 1488 LINE SMOOTH",
"894 1488 OFFCURVE",
"919 1460 OFFCURVE",
"919 1403 CURVE SMOOTH",
"919 1226 LINE SMOOTH",
"919 1155 OFFCURVE",
"907 1097 OFFCURVE",
"842 1097 CURVE SMOOTH",
"770 1097 LINE"
);
}
);
width = 1328;
}
);
rightKerningGroup = B;
unicode = 0181;
},
{
glyphname = Bstroke;
layers = (
{
components = (
{
name = B;
}
);
layerId = "6CD1E358-6E98-409F-9A1F-EA9DE4C1A8AA";
paths = (
{
closed = 1;
nodes = (
"516 453 LINE",
"516 685 LINE",
"0 685 LINE",
"0 453 LINE"
);
}
);
width = 980;
}
);
leftKerningGroup = H;
rightKerningGroup = B;
unicode = 0243;
},
{
glyphname = C;
layers = (
{
anchors = (
{
name = bot;
position = "{489, 0}";
},
{
name = top;
position = "{496, 1760}";
}
);
background = {
anchors = (
{
name = bot;
position = "{489, 0}";
},
{
name = top;
position = "{496, 1760}";
}
);
paths = (
{
closed = 1;
nodes = (
"768 -16 OFFCURVE",
"932 116 OFFCURVE",
"932 425 CURVE SMOOTH",
"932 758 LINE",
"578 758 LINE",
"578 441 LINE SMOOTH",
"578 362 OFFCURVE",
"556 308 OFFCURVE",
"496 308 CURVE SMOOTH",
"442 308 OFFCURVE",
"413 344 OFFCURVE",
"413 441 CURVE SMOOTH",
"413 1322 LINE SMOOTH",
"413 1400 OFFCURVE",
"431 1452 OFFCURVE",
"496 1452 CURVE SMOOTH",
"552 1452 OFFCURVE",
"578 1423 OFFCURVE",
"578 1318 CURVE SMOOTH",
"578 1058 LINE",
"928 1058 LINE",
"928 1362 LINE SMOOTH",
"928 1639 OFFCURVE",
"746 1776 OFFCURVE",
"496 1776 CURVE SMOOTH",
"191 1776 OFFCURVE",
"64 1589 OFFCURVE",
"64 1248 CURVE SMOOTH",
"64 436 LINE SMOOTH",
"64 151 OFFCURVE",
"233 -16 OFFCURVE",
"488 -16 CURVE SMOOTH"
);
}
);
};
layerId = "6CD1E358-6E98-409F-9A1F-EA9DE4C1A8AA";
paths = (
{
closed = 1;
nodes = (
"768 -16 OFFCURVE",
"932 116 OFFCURVE",
"932 425 CURVE SMOOTH",
"932 758 LINE",
"578 758 LINE",
"578 441 LINE SMOOTH",
"578 362 OFFCURVE",
"556 308 OFFCURVE",
"496 308 CURVE SMOOTH",
"442 308 OFFCURVE",
"413 344 OFFCURVE",
"413 441 CURVE SMOOTH",
"413 1322 LINE SMOOTH",
"413 1400 OFFCURVE",
"431 1452 OFFCURVE",
"496 1452 CURVE SMOOTH",
"552 1452 OFFCURVE",
"578 1423 OFFCURVE",
"578 1318 CURVE SMOOTH",
"578 1058 LINE",
"928 1058 LINE",
"928 1362 LINE SMOOTH",
"928 1639 OFFCURVE",
"746 1776 OFFCURVE",
"496 1776 CURVE SMOOTH",
"191 1776 OFFCURVE",
"64 1589 OFFCURVE",
"64 1248 CURVE SMOOTH",
"64 436 LINE SMOOTH",
"64 151 OFFCURVE",
"233 -16 OFFCURVE",
"488 -16 CURVE SMOOTH"
);
}
);
width = 971;
}
);
leftKerningGroup = O;
rightKerningGroup = C;
unicode = 0043;
userData = {
com.typemytype.robofont.layerData = {
};
};
},
{
glyphname = "Chi-latin";
layers = (
{
layerId = "6CD1E358-6E98-409F-9A1F-EA9DE4C1A8AA";
paths = (
{
closed = 1;
nodes = (
"987 84 LINE",
"917 84 OFFCURVE",
"897 128 OFFCURVE",
"879 231 CURVE SMOOTH",
"769 844 LINE",
"917 1760 LINE",
"579 1760 LINE",
"501 1091 LINE",
"455 1438 LINE SMOOTH",
"424 1672 OFFCURVE",
"307 1774 OFFCURVE",
"27 1774 CURVE",
"27 1488 LINE",
"117 1488 OFFCURVE",
"127 1444 OFFCURVE",
"143 1342 CURVE SMOOTH",
"221 844 LINE",
"37 -186 LINE",
"387 -186 LINE",
"497 572 LINE",
"559 134 LINE SMOOTH",
"592 -99 OFFCURVE",
"707 -202 OFFCURVE",
"987 -202 CURVE"
);
}
);
width = 1013;
}
);
leftKerningGroup = X;
rightKerningGroup = X;
unicode = A7B3;
},
{
glyphname = Chook;
layers = (
{
anchors = (
{
name = bot;
position = "{489, 0}";
},
{
name = top;
position = "{496, 1760}";
}
);
layerId = "6CD1E358-6E98-409F-9A1F-EA9DE4C1A8AA";
paths = (
{
closed = 1;
nodes = (
"768 -16 OFFCURVE",
"932 116 OFFCURVE",
"932 425 CURVE SMOOTH",
"932 758 LINE",
"578 758 LINE",
"578 441 LINE SMOOTH",
"578 362 OFFCURVE",
"556 308 OFFCURVE",
"496 308 CURVE SMOOTH",
"442 308 OFFCURVE",
"413 344 OFFCURVE",
"413 441 CURVE SMOOTH",
"413 1322 LINE SMOOTH",
"413 1400 OFFCURVE",
"431 1452 OFFCURVE",
"496 1452 CURVE SMOOTH",
"552 1452 OFFCURVE",
"578 1423 OFFCURVE",
"578 1318 CURVE SMOOTH",
"578 1058 LINE",
"928 1058 LINE",
"928 1532 LINE SMOOTH",
"928 1648 OFFCURVE",
"972 1684 OFFCURVE",
"1064 1684 CURVE",
"1064 2000 LINE",
"859 2000 OFFCURVE",
"716 1878 OFFCURVE",
"668 1693 CURVE",
"699 1707 LINE",
"644 1751 OFFCURVE",
"571 1776 OFFCURVE",
"486 1776 CURVE SMOOTH",
"191 1776 OFFCURVE",
"64 1589 OFFCURVE",
"64 1248 CURVE SMOOTH",
"64 436 LINE SMOOTH",
"64 151 OFFCURVE",
"233 -16 OFFCURVE",
"488 -16 CURVE SMOOTH"
);
}
);
width = 1054;
}
);
leftKerningGroup = O;
rightKerningGroup = C;
unicode = 0187;
},
{
glyphname = Cstroke;
layers = (
{
components = (
{
name = C;
}
);
layerId = "6CD1E358-6E98-409F-9A1F-EA9DE4C1A8AA";
paths = (
{
closed = 1;
nodes = (
"721 1425 LINE",
"869 2000 LINE",
"729 2000 LINE",
"581 1425 LINE"
);
},
{
closed = 1;
nodes = (
"301 -186 LINE",
"411 237 LINE",
"271 237 LINE",
"161 -186 LINE"
);
}
);
width = 971;
}
);
leftKerningGroup = O;
rightKerningGroup = C;
unicode = 023B;
},
{
glyphname = D;
layers = (
{
anchors = (
{
name = bottom;
position = "{505, 0}";
},
{
name = center;
position = "{505, 880}";
},
{
name = mid;
position = "{271, 923}";
},
{
name = top;
position = "{504, 1760}";
}
);
background = {
anchors = (
{
name = mid;
position = "{271, 923}";
},
{
name = top;
position = "{504, 1760}";
}
);
paths = (
{
closed = 1;
nodes = (
"551 0 LINE SMOOTH",
"843 0 OFFCURVE",
"948 189 OFFCURVE",
"946 522 CURVE SMOOTH",
"942 1346 LINE SMOOTH",
"941 1616 OFFCURVE",
"816 1760 OFFCURVE",
"563 1760 CURVE SMOOTH",
"78 1760 LINE",
"78 0 LINE"
);
},
{
closed = 1;
nodes = (
"432 1452 LINE",
"471 1452 LINE SMOOTH",
"567 1452 OFFCURVE",
"590 1430 OFFCURVE",
"590 1313 CURVE SMOOTH",
"590 405 LINE SMOOTH",
"590 342 OFFCURVE",
"556 311 OFFCURVE",
"493 311 CURVE SMOOTH",
"432 311 LINE"
);
}
);
};
layerId = "6CD1E358-6E98-409F-9A1F-EA9DE4C1A8AA";
paths = (
{
closed = 1;
nodes = (
"550 0 LINE SMOOTH",
"842 0 OFFCURVE",
"944 189 OFFCURVE",
"944 522 CURVE SMOOTH",
"944 1346 LINE SMOOTH",
"944 1616 OFFCURVE",
"815 1760 OFFCURVE",
"562 1760 CURVE SMOOTH",
"78 1760 LINE",
"78 0 LINE"
);
},
{
closed = 1;
nodes = (
"432 1452 LINE",
"471 1452 LINE SMOOTH",
"567 1452 OFFCURVE",
"590 1430 OFFCURVE",
"590 1313 CURVE SMOOTH",
"590 405 LINE SMOOTH",
"590 342 OFFCURVE",
"556 311 OFFCURVE",
"493 311 CURVE SMOOTH",
"432 311 LINE"
);
}
);
width = 1010.03;
}
);
leftKerningGroup = H;
rightKerningGroup = O;
unicode = 0044;
userData = {
com.typemytype.robofont.layerData = {
};
};
},
{
glyphname = Eth;
layers = (
{
background = {
components = (
{
name = D;
},
{
name = hyphen;
transform = "{1, 0, 0, 1, -57, 295}";
}
);
};
layerId = "6CD1E358-6E98-409F-9A1F-EA9DE4C1A8AA";
paths = (
{
closed = 1;
nodes = (
"550 0 LINE SMOOTH",
"842 0 OFFCURVE",
"944 189 OFFCURVE",
"944 522 CURVE SMOOTH",
"944 1346 LINE SMOOTH",
"944 1616 OFFCURVE",
"815 1760 OFFCURVE",
"562 1760 CURVE SMOOTH",
"78 1760 LINE",
"78 1036 LINE",
"3 1036 LINE",
"3 804 LINE",
"78 804 LINE",
"78 0 LINE"
);
},
{
closed = 1;
nodes = (
"432 804 LINE",
"519 804 LINE",
"519 1036 LINE",
"432 1036 LINE",
"432 1452 LINE",
"471 1452 LINE SMOOTH",
"567 1452 OFFCURVE",
"590 1430 OFFCURVE",
"590 1313 CURVE SMOOTH",
"590 405 LINE SMOOTH",
"590 342 OFFCURVE",
"556 311 OFFCURVE",
"493 311 CURVE SMOOTH",
"432 311 LINE"
);
}
);
width = 1010;
}
);
rightKerningGroup = O;
unicode = 00D0;
},
{
glyphname = Dhook;
layers = (
{
layerId = "6CD1E358-6E98-409F-9A1F-EA9DE4C1A8AA";
paths = (
{
closed = 1;
nodes = (
"899 0 LINE SMOOTH",
"1191 0 OFFCURVE",
"1293 189 OFFCURVE",
"1293 522 CURVE SMOOTH",
"1293 1346 LINE SMOOTH",
"1293 1616 OFFCURVE",
"1164 1760 OFFCURVE",
"911 1760 CURVE SMOOTH",
"427 1760 LINE SMOOTH",
"144 1760 OFFCURVE",
"5 1574 OFFCURVE",
"5 1312 CURVE SMOOTH",
"5 1252 LINE",
"312 1252 LINE",
"312 1312 LINE SMOOTH",
"312 1406 OFFCURVE",
"348 1452 OFFCURVE",
"427 1452 CURVE",
"427 0 LINE"
);
},
{
closed = 1;
nodes = (
"781 1452 LINE",
"820 1452 LINE SMOOTH",
"916 1452 OFFCURVE",
"939 1430 OFFCURVE",
"939 1313 CURVE SMOOTH",
"939 405 LINE SMOOTH",
"939 342 OFFCURVE",
"905 311 OFFCURVE",
"842 311 CURVE SMOOTH",
"781 311 LINE"
);
}
);
width = 1359;
}
);
rightKerningGroup = O;
unicode = 018A;
},
{
glyphname = E;
layers = (
{
anchors = (
{
name = bottom;
position = "{442, 0}";
},
{
name = ogonek;
position = "{477, 0}";
},
{
name = top_case;
position = "{435, 1760}";
}
);
background = {
anchors = (
{
name = bottom;
position = "{442, 0}";
},
{
name = ogonek;
position = "{477, 0}";
},
{
name = top;
position = "{444, 1760}";
}
);
paths = (
{
closed = 1;
nodes = (
"805 0 LINE",
"805 343 LINE",
"436 343 LINE",
"436 746 LINE",
"768 746 LINE",
"768 1077 LINE",
"436 1077 LINE",
"436 1420 LINE",
"782 1420 LINE",
"782 1760 LINE",
"78 1760 LINE",
"78 0 LINE"
);
}
);
};
layerId = "6CD1E358-6E98-409F-9A1F-EA9DE4C1A8AA";
paths = (
{
closed = 1;
nodes = (
"805 0 LINE",
"805 343 LINE",
"436 343 LINE",
"436 746 LINE",
"768 746 LINE",
"768 1077 LINE",
"436 1077 LINE",
"436 1420 LINE",
"782 1420 LINE",
"782 1760 LINE",
"78 1760 LINE",
"78 0 LINE"
);
}
);
width = 843;
}
);
leftKerningGroup = H;
rightKerningGroup = E;
unicode = 0045;
userData = {
com.typemytype.robofont.layerData = {
};
};
},
{
glyphname = Eopen;
layers = (
{
layerId = "6CD1E358-6E98-409F-9A1F-EA9DE4C1A8AA";
paths = (
{
closed = 1;
nodes = (
"827 -20 OFFCURVE",
"961 143 OFFCURVE",
"961 474 CURVE SMOOTH",
"961 658 LINE",
"600 658 LINE",
"600 473 LINE SMOOTH",
"600 380 OFFCURVE",
"593 306 OFFCURVE",
"506 306 CURVE SMOOTH",
"411 306 OFFCURVE",
"408 418 OFFCURVE",
"408 530 CURVE SMOOTH",
"408 562 LINE SMOOTH",
"408 683 OFFCURVE",
"440 787 OFFCURVE",
"558 787 CURVE SMOOTH",
"662 787 LINE",
"662 1103 LINE",
"598 1103 LINE SMOOTH",
"484 1103 OFFCURVE",
"405 1157 OFFCURVE",
"405 1291 CURVE SMOOTH",
"405 1391 OFFCURVE",
"434 1440 OFFCURVE",
"503 1440 CURVE SMOOTH",
"582 1440 OFFCURVE",
"586 1370 OFFCURVE",
"586 1286 CURVE SMOOTH",
"586 1233 LINE",
"950 1233 LINE",
"950 1295 LINE SMOOTH",
"950 1618 OFFCURVE",
"804 1763 OFFCURVE",
"493 1763 CURVE SMOOTH",
"193 1763 OFFCURVE",
"43 1609 OFFCURVE",
"43 1295 CURVE SMOOTH",
"43 1105 OFFCURVE",
"82 990 OFFCURVE",
"208 945 CURVE",
"58 872 OFFCURVE",
"39 749 OFFCURVE",
"39 530 CURVE SMOOTH",
"39 178 OFFCURVE",
"175 -20 OFFCURVE",
"516 -20 CURVE SMOOTH"
);
}
);
width = 1012;
}
);
unicode = 0190;
},
{
glyphname = Ereversed;
layers = (
{
layerId = "6CD1E358-6E98-409F-9A1F-EA9DE4C1A8AA";
paths = (
{
closed = 1;
nodes = (
"765 1760 LINE",
"61 1760 LINE",
"61 1420 LINE",
"407 1420 LINE",
"407 1077 LINE",
"75 1077 LINE",
"75 746 LINE",
"407 746 LINE",
"407 343 LINE",
"38 343 LINE",
"38 0 LINE",
"765 0 LINE"
);
}
);
width = 843;
}
);
unicode = 018E;
},
{
glyphname = Esh;
layers = (
{
background = {
paths = (
{
closed = 1;
nodes = (
"795 0 LINE",
"795 343 LINE",
"352 343 LINE",
"405 256 LINE",
"702 850 LINE",
"702 926 LINE",
"404 1483 LINE",
"352 1420 LINE",
"779 1420 LINE",
"779 1760 LINE",
"62 1760 LINE",
"62 1455 LINE",
"369 882 LINE",
"62 268 LINE",
"62 0 LINE"
);
}
);
};
layerId = "6CD1E358-6E98-409F-9A1F-EA9DE4C1A8AA";
paths = (
{
closed = 1;
nodes = (
"795 0 LINE",
"795 343 LINE",
"352 343 LINE",
"405 256 LINE",
"702 850 LINE",
"702 926 LINE",
"404 1483 LINE",
"352 1420 LINE",
"779 1420 LINE",
"779 1760 LINE",
"62 1760 LINE",
"62 1455 LINE",
"369 882 LINE",
"62 268 LINE",
"62 0 LINE"
);
}
);
width = 836;
}
);
unicode = 01A9;
},
{
glyphname = Estroke;
layers = (
{
components = (
{
name = E;
}
);
layerId = "6CD1E358-6E98-409F-9A1F-EA9DE4C1A8AA";
paths = (
{
closed = 1;
nodes = (
"699 1572 LINE",
"809 2000 LINE",
"669 2000 LINE",
"559 1572 LINE"
);
},
{
closed = 1;
nodes = (
"241 -186 LINE",
"351 237 LINE",
"211 237 LINE",
"101 -186 LINE"
);
}
);
width = 843;
}
);
leftKerningGroup = H;
rightKerningGroup = E;
unicode = 0246;
},
{
glyphname = Etilde;
layers = (
{
background = {
paths = (
{
closed = 1;
nodes = (
"805 0 LINE",
"805 343 LINE",
"436 343 LINE",
"436 746 LINE",
"768 746 LINE",
"768 1077 LINE",
"436 1077 LINE",
"436 1420 LINE",
"782 1420 LINE",
"782 1760 LINE",
"78 1760 LINE",
"78 0 LINE"
);
},
{
closed = 1;
nodes = (
"759 1871 OFFCURVE",
"808 1997 OFFCURVE",
"857 2132 CURVE",
"691 2186 LINE",
"664 2131 OFFCURVE",
"634 2111 OFFCURVE",
"598 2111 CURVE SMOOTH",
"522 2111 OFFCURVE",
"420 2195 OFFCURVE",
"278 2195 CURVE SMOOTH",
"135 2195 OFFCURVE",
"80 2093 OFFCURVE",
"31 1972 CURVE",
"179 1894 LINE",
"205 1945 OFFCURVE",
"236 1962 OFFCURVE",
"271 1962 CURVE SMOOTH",
"352 1962 OFFCURVE",
"460 1871 OFFCURVE",
"609 1871 CURVE SMOOTH"
);
}
);
};
components = (
{
name = E;
},
{
name = tildecomb;
transform = "{1, 0, 0, 1, 444, 260}";
}
);
layerId = "6CD1E358-6E98-409F-9A1F-EA9DE4C1A8AA";
width = 843;
}
);
leftKerningGroup = H;
rightKerningGroup = E;
unicode = 1EBC;
},
{
glyphname = Ezh;
layers = (
{
anchors = (
{
name = bottom;
position = "{506, 0}";
},
{
name = top;
position = "{526, 1760}";
}
);
background = {
components = (
{
name = three;
}
);
};
layerId = "6CD1E358-6E98-409F-9A1F-EA9DE4C1A8AA";
paths = (
{
closed = 1;
nodes = (
"818 -14 OFFCURVE",
"961 174 OFFCURVE",
"961 536 CURVE SMOOTH",
"961 830 OFFCURVE",
"865 1015 OFFCURVE",
"638 1068 CURVE",
"638 960 LINE",
"959 1450 LINE",
"959 1760 LINE",
"88 1760 LINE",
"88 1420 LINE",
"611 1420 LINE",
"591 1458 LINE",
"329 1058 LINE",
"329 803 LINE",
"445 803 LINE SMOOTH",
"545 803 OFFCURVE",
"592 730 OFFCURVE",
"592 579 CURVE SMOOTH",
"592 536 LINE SMOOTH",
"592 414 OFFCURVE",
"592 310 OFFCURVE",
"504 310 CURVE SMOOTH",
"422 310 OFFCURVE",
"402 372 OFFCURVE",
"402 479 CURVE SMOOTH",
"402 658 LINE",
"43 658 LINE",
"43 479 LINE SMOOTH",
"43 145 OFFCURVE",
"178 -14 OFFCURVE",
"486 -14 CURVE SMOOTH"
);
}
);
width = 1012;
}
);
unicode = 01B7;
},
{
glyphname = Ezhreversed;
layers = (
{
layerId = "6CD1E358-6E98-409F-9A1F-EA9DE4C1A8AA";
paths = (
{
closed = 1;
nodes = (
"834 -14 OFFCURVE",
"969 145 OFFCURVE",
"969 479 CURVE SMOOTH",
"969 658 LINE",
"610 658 LINE",
"610 479 LINE SMOOTH",
"610 372 OFFCURVE",
"590 310 OFFCURVE",
"508 310 CURVE SMOOTH",
"420 310 OFFCURVE",
"420 414 OFFCURVE",
"420 536 CURVE SMOOTH",
"420 579 LINE SMOOTH",
"420 730 OFFCURVE",
"467 803 OFFCURVE",
"567 803 CURVE SMOOTH",
"683 803 LINE",
"683 1058 LINE",
"421 1458 LINE",
"401 1420 LINE",
"924 1420 LINE",
"924 1760 LINE",
"53 1760 LINE",
"53 1450 LINE",
"374 960 LINE",
"374 1068 LINE",
"147 1015 OFFCURVE",
"51 830 OFFCURVE",
"51 536 CURVE SMOOTH",
"51 174 OFFCURVE",
"194 -14 OFFCURVE",
"526 -14 CURVE SMOOTH"
);
}
);
width = 1012;
}
);
unicode = 01B8;
},
{
glyphname = F;
layers = (
{
anchors = (
{
name = top;
position = "{452, 1760}";
}
);
background = {
anchors = (
{
name = top;
position = "{452, 1760}";
}
);
paths = (
{
closed = 1;
nodes = (
"432 0 LINE",
"432 798 LINE",
"764 798 LINE",
"764 1137 LINE",
"432 1137 LINE",
"432 1417 LINE",
"782 1417 LINE",
"782 1760 LINE",
"78 1760 LINE",
"78 0 LINE"
);
}
);
};
layerId = "6CD1E358-6E98-409F-9A1F-EA9DE4C1A8AA";
paths = (
{
closed = 1;
nodes = (
"432 0 LINE",
"432 798 LINE",
"764 798 LINE",
"764 1137 LINE",
"432 1137 LINE",
"432 1417 LINE",
"782 1417 LINE",
"782 1760 LINE",
"78 1760 LINE",
"78 0 LINE"
);
}
);
width = 817;
}
);
leftKerningGroup = H;
rightKerningGroup = F;
unicode = 0046;
userData = {
com.typemytype.robofont.layerData = {
};
};
},
{
glyphname = Fhook;
layers = (
{
anchors = (
{
name = top;
position = "{452, 1760}";
}
);
layerId = "6CD1E358-6E98-409F-9A1F-EA9DE4C1A8AA";
paths = (
{
closed = 1;
nodes = (
"253 -196 OFFCURVE",
"432 -10 OFFCURVE",
"432 252 CURVE SMOOTH",
"432 798 LINE",
"764 798 LINE",
"764 1137 LINE",
"432 1137 LINE",
"432 1417 LINE",
"782 1417 LINE",
"782 1760 LINE",
"78 1760 LINE",
"78 252 LINE SMOOTH",
"78 158 OFFCURVE",
"48 120 OFFCURVE",
"-22 120 CURVE",
"-22 -196 LINE"
);
}
);
width = 817;
}
);
unicode = 0191;
},
{
glyphname = G;
layers = (
{
anchors = (
{
name = bot;
position = "{504, 0}";
},
{
name = top;
position = "{495, 1760}";
}
);
background = {
anchors = (
{
name = bot;
position = "{504, 0}";
},
{
name = top;
position = "{495, 1760}";
}
);
paths = (
{
closed = 1;
nodes = (
"572 -16 OFFCURVE",
"668 36 OFFCURVE",
"731 148 CURVE",
"791 0 LINE",
"932 0 LINE",
"932 1025 LINE",
"502 1025 LINE",
"502 721 LINE",
"596 721 LINE",
"596 470 LINE SMOOTH",
"596 372 OFFCURVE",
"577 308 OFFCURVE",
"503 308 CURVE SMOOTH",
"431 308 OFFCURVE",
"412 373 OFFCURVE",
"412 468 CURVE SMOOTH",
"412 1321 LINE SMOOTH",
"412 1386 OFFCURVE",
"430 1452 OFFCURVE",
"512 1452 CURVE SMOOTH",
"577 1452 OFFCURVE",
"592 1394 OFFCURVE",
"592 1318 CURVE SMOOTH",
"592 1162 LINE",
"936 1162 LINE",
"936 1555 OFFCURVE",
"851 1776 OFFCURVE",
"496 1776 CURVE SMOOTH",
"208 1776 OFFCURVE",
"64 1608 OFFCURVE",
"64 1283 CURVE SMOOTH",
"64 524 LINE SMOOTH",
"64 161 OFFCURVE",
"187 -16 OFFCURVE",
"441 -16 CURVE SMOOTH"
);
}
);
};
layerId = "6CD1E358-6E98-409F-9A1F-EA9DE4C1A8AA";
paths = (
{
closed = 1;
nodes = (
"572 -16 OFFCURVE",
"668 36 OFFCURVE",
"731 148 CURVE",
"791 0 LINE",
"932 0 LINE",
"932 1025 LINE",
"502 1025 LINE",
"502 721 LINE",
"596 721 LINE",
"596 470 LINE SMOOTH",
"596 372 OFFCURVE",
"577 308 OFFCURVE",
"503 308 CURVE SMOOTH",
"431 308 OFFCURVE",
"412 373 OFFCURVE",
"412 468 CURVE SMOOTH",
"412 1321 LINE SMOOTH",
"412 1386 OFFCURVE",
"430 1452 OFFCURVE",
"512 1452 CURVE SMOOTH",
"577 1452 OFFCURVE",
"592 1394 OFFCURVE",
"592 1318 CURVE SMOOTH",
"592 1162 LINE",
"936 1162 LINE",
"936 1555 OFFCURVE",
"851 1776 OFFCURVE",
"496 1776 CURVE SMOOTH",
"208 1776 OFFCURVE",
"64 1608 OFFCURVE",
"64 1283 CURVE SMOOTH",
"64 524 LINE SMOOTH",
"64 161 OFFCURVE",
"187 -16 OFFCURVE",
"441 -16 CURVE SMOOTH"
);
}
);
width = 993;
}
);
leftKerningGroup = O;
rightKerningGroup = G;
unicode = 0047;
userData = {
com.typemytype.robofont.layerData = {
};
};
},
{
glyphname = Ghook;
layers = (
{
anchors = (
{
name = bot;
position = "{504, 0}";
},
{
name = top;
position = "{495, 1760}";
}
);
background = {
paths = (
{
closed = 1;
nodes = (
"572 -16 OFFCURVE",
"668 36 OFFCURVE",
"731 148 CURVE",
"791 0 LINE",
"932 0 LINE",
"932 1025 LINE",
"502 1025 LINE",
"502 721 LINE",
"596 721 LINE",
"596 470 LINE SMOOTH",
"596 372 OFFCURVE",
"577 308 OFFCURVE",
"503 308 CURVE SMOOTH",
"431 308 OFFCURVE",
"412 373 OFFCURVE",
"412 468 CURVE SMOOTH",
"412 1321 LINE SMOOTH",
"412 1386 OFFCURVE",
"430 1452 OFFCURVE",
"512 1452 CURVE SMOOTH",
"577 1452 OFFCURVE",
"592 1394 OFFCURVE",
"592 1318 CURVE SMOOTH",
"592 1162 LINE",
"847 1162 LINE",
"847 1555 OFFCURVE",
"762 1776 OFFCURVE",
"456 1776 CURVE SMOOTH",
"208 1776 OFFCURVE",
"64 1608 OFFCURVE",
"64 1283 CURVE SMOOTH",
"64 524 LINE SMOOTH",
"64 161 OFFCURVE",
"187 -16 OFFCURVE",
"441 -16 CURVE SMOOTH"
);
},
{
closed = 1;
nodes = (
"928 1162 LINE",
"928 1532 LINE",
"928 1648 OFFCURVE",
"972 1684 OFFCURVE",
"1064 1684 CURVE",
"1064 2000 LINE",
"810 2000 OFFCURVE",
"652 1814 OFFCURVE",
"652 1552 CURVE SMOOTH",
"652 1162 LINE"
);
}
);
};
layerId = "6CD1E358-6E98-409F-9A1F-EA9DE4C1A8AA";
paths = (
{
closed = 1;
nodes = (
"572 -16 OFFCURVE",
"668 36 OFFCURVE",
"731 148 CURVE",
"791 0 LINE",
"932 0 LINE",
"932 1025 LINE",
"502 1025 LINE",
"502 721 LINE",
"596 721 LINE",
"596 470 LINE SMOOTH",
"596 372 OFFCURVE",
"577 308 OFFCURVE",
"503 308 CURVE SMOOTH",
"431 308 OFFCURVE",
"412 373 OFFCURVE",
"412 468 CURVE SMOOTH",
"412 1321 LINE SMOOTH",
"412 1386 OFFCURVE",
"430 1452 OFFCURVE",
"512 1452 CURVE SMOOTH",
"577 1452 OFFCURVE",
"592 1394 OFFCURVE",
"592 1318 CURVE SMOOTH",
"592 1162 LINE",
"928 1162 LINE",
"928 1532 LINE SMOOTH",
"928 1648 OFFCURVE",
"972 1684 OFFCURVE",
"1064 1684 CURVE",
"1064 2000 LINE",
"857 2000 OFFCURVE",
"713 1876 OFFCURVE",
"668 1686 CURVE",
"697 1701 LINE",
"638 1750 OFFCURVE",
"560 1776 OFFCURVE",
"456 1776 CURVE SMOOTH",
"208 1776 OFFCURVE",
"64 1608 OFFCURVE",
"64 1283 CURVE SMOOTH",
"64 524 LINE SMOOTH",
"64 161 OFFCURVE",
"187 -16 OFFCURVE",
"441 -16 CURVE SMOOTH"
);
}
);
width = 1054;
}
);
leftKerningGroup = O;
rightKerningGroup = G;
unicode = 0193;
},
{
glyphname = Glottalstop;
layers = (
{
layerId = "6CD1E358-6E98-409F-9A1F-EA9DE4C1A8AA";
paths = (
{
closed = 1;
nodes = (
"620 0 LINE",
"620 625 LINE",
"850 625 OFFCURVE",
"978 880 OFFCURVE",
"978 1226 CURVE SMOOTH",
"978 1579 OFFCURVE",
"863 1776 OFFCURVE",
"508 1776 CURVE SMOOTH",
"237 1776 OFFCURVE",
"48 1648 OFFCURVE",
"48 1379 CURVE SMOOTH",
"48 1125 LINE",
"414 1125 LINE",
"414 1271 LINE SMOOTH",
"414 1363 OFFCURVE",
"421 1457 OFFCURVE",
"508 1457 CURVE SMOOTH",
"588 1457 OFFCURVE",
"601 1381 OFFCURVE",
"601 1294 CURVE SMOOTH",
"601 912 OFFCURVE",
"510 871 OFFCURVE",
"287 871 CURVE",
"287 0 LINE"
);
}
);
width = 1008;
}
);
unicode = 0241;
},
{
glyphname = Gstroke;
layers = (
{
components = (
{
name = G;
}
);
layerId = "6CD1E358-6E98-409F-9A1F-EA9DE4C1A8AA";
paths = (
{
closed = 1;
nodes = (
"1015 423 LINE",
"1015 655 LINE",
"499 655 LINE",
"499 423 LINE"
);
}
);
width = 993;
}
);
leftKerningGroup = O;
unicode = 01E4;
},
{
glyphname = H;
layers = (
{
anchors = (
{
name = bottom;
position = "{511, 0}";
},
{
name = center;
position = "{511, 880}";
},
{
name = top;
position = "{511, 1760}";
},
{
name = topleft;
position = "{20, 1760}";
}
);
background = {
anchors = (
{
name = top;
position = "{511, 1760}";
}
);
paths = (
{
closed = 1;
nodes = (
"428 0 LINE",
"428 798 LINE",
"594 798 LINE",
"594 0 LINE",
"944 0 LINE",
"944 1760 LINE",
"594 1760 LINE",
"594 1131 LINE",
"428 1131 LINE",
"428 1760 LINE",
"78 1760 LINE",
"78 0 LINE"
);
}
);
};
layerId = "6CD1E358-6E98-409F-9A1F-EA9DE4C1A8AA";
paths = (
{
closed = 1;
nodes = (
"428 0 LINE",
"428 798 LINE",
"594 798 LINE",
"594 0 LINE",
"944 0 LINE",
"944 1760 LINE",
"594 1760 LINE",
"594 1131 LINE",
"428 1131 LINE",
"428 1760 LINE",
"78 1760 LINE",
"78 0 LINE"
);
}
);
width = 1022;
}
);
leftKerningGroup = H;
rightKerningGroup = H;
unicode = 0048;
userData = {
com.typemytype.robofont.layerData = {
};
};
},
{
glyphname = Hbar;
layers = (
{
background = {
components = (
{
name = H;
transform = "{1, 0, 0, 1, 18, 0}";
}
);
paths = (
{
closed = 1;
nodes = (
"1051 1342 LINE",
"1051 1500 LINE",
"-10 1500 LINE",
"-10 1342 LINE"
);
}
);
};
layerId = "6CD1E358-6E98-409F-9A1F-EA9DE4C1A8AA";
paths = (
{
closed = 1;
nodes = (
"446 0 LINE",
"446 798 LINE",
"612 798 LINE",
"612 0 LINE",
"962 0 LINE",
"962 1342 LINE",
"1051 1342 LINE",
"1051 1562 LINE",
"962 1562 LINE",
"962 1760 LINE",
"612 1760 LINE",
"612 1562 LINE",
"446 1562 LINE",
"446 1760 LINE",
"96 1760 LINE",
"96 1562 LINE",
"-10 1562 LINE",
"-10 1342 LINE",
"96 1342 LINE",
"96 0 LINE"
);
},
{
closed = 1;
nodes = (
"446 1342 LINE",
"612 1342 LINE",
"612 1131 LINE",
"446 1131 LINE"
);
}
);
width = 1041;
}
);
unicode = 0126;
},
{
glyphname = Heng;
layers = (
{
layerId = "6CD1E358-6E98-409F-9A1F-EA9DE4C1A8AA";
paths = (
{
closed = 1;
nodes = (
"769 -196 OFFCURVE",
"944 -50 OFFCURVE",
"944 232 CURVE SMOOTH",
"944 1760 LINE",
"594 1760 LINE",
"594 1131 LINE",
"428 1131 LINE",
"428 1760 LINE",
"78 1760 LINE",
"78 0 LINE",
"428 0 LINE",
"428 798 LINE",
"594 798 LINE",
"594 252 LINE SMOOTH",
"594 138 OFFCURVE",
"564 120 OFFCURVE",
"514 120 CURVE",
"514 -196 LINE"
);
}
);
width = 1022;
}
);
leftKerningGroup = H;
rightKerningGroup = H;
unicode = A726;
},
{
glyphname = Hhook;
layers = (
{
layerId = "6CD1E358-6E98-409F-9A1F-EA9DE4C1A8AA";
paths = (
{
closed = 1;
nodes = (
"777 0 LINE",
"777 798 LINE",
"943 798 LINE",
"943 0 LINE",
"1293 0 LINE",
"1293 1760 LINE",
"943 1760 LINE",
"943 1131 LINE",
"777 1131 LINE",
"777 1760 LINE",
"427 1760 LINE SMOOTH",
"144 1760 OFFCURVE",
"5 1574 OFFCURVE",
"5 1312 CURVE SMOOTH",
"5 1252 LINE",
"312 1252 LINE",
"312 1312 LINE SMOOTH",
"312 1418 OFFCURVE",
"348 1464 OFFCURVE",
"427 1464 CURVE",
"427 0 LINE"
);
}
);
width = 1371;
}
);
rightKerningGroup = H;
unicode = A7AA;
},
{
glyphname = Hturned;
layers = (
{
layerId = "6CD1E358-6E98-409F-9A1F-EA9DE4C1A8AA";
paths = (
{
closed = 1;
nodes = (
"944 0 LINE",
"944 1760 LINE",
"594 1760 LINE",
"594 1131 LINE",
"428 1131 LINE",
"428 1760 LINE",
"78 1760 LINE",
"78 798 LINE",
"594 798 LINE",
"594 0 LINE"
);
}
);
width = 1022;
}
);
rightKerningGroup = H;
unicode = A78D;
},
{
glyphname = I;
layers = (
{
anchors = (
{
name = bottom;
position = "{232, 0}";
},
{
name = ogonek;
position = "{290, 0}";
},
{
name = top_case;
position = "{232, 1760}";
}
);
background = {
anchors = (
{
name = bottom;
position = "{232, 0}";
},
{
name = ogonek;
position = "{290, 0}";
},
{
name = top;
position = "{232, 1760}";
}
);
paths = (
{
closed = 1;
nodes = (
"402 0 LINE",
"402 1760 LINE",
"62 1760 LINE",
"62 0 LINE"
);
}
);
};
layerId = "6CD1E358-6E98-409F-9A1F-EA9DE4C1A8AA";
paths = (
{
closed = 1;
nodes = (
"402 0 LINE",
"402 1760 LINE",
"62 1760 LINE",
"62 0 LINE"
);
}
);
width = 464;
}
);
leftKerningGroup = I;
rightKerningGroup = I;
unicode = 0049;
userData = {
com.typemytype.robofont.layerData = {
};
};
},
{
glyphname = Iotaafrican;
layers = (
{
anchors = (
{
name = bottom;
position = "{232, 0}";
},
{
name = ogonek;
position = "{290, 0}";
},
{
name = top_case;
position = "{232, 1760}";
}
);
layerId = "6CD1E358-6E98-409F-9A1F-EA9DE4C1A8AA";
paths = (
{
closed = 1;
nodes = (
"482 300 LINE",
"432 300 OFFCURVE",
"402 318 OFFCURVE",
"402 432 CURVE SMOOTH",
"402 1760 LINE",
"62 1760 LINE",
"62 412 LINE SMOOTH",
"62 130 OFFCURVE",
"237 -16 OFFCURVE",
"482 -16 CURVE"
);
}
);
width = 464;
}
);
unicode = 0196;
},
{
glyphname = Istroke;
layers = (
{
components = (
{
alignment = -1;
name = I;
transform = "{1, 0, 0, 1, 31, 0}";
}
);
layerId = "6CD1E358-6E98-409F-9A1F-EA9DE4C1A8AA";
paths = (
{
closed = 1;
nodes = (
"521 785 LINE",
"521 1017 LINE",
"5 1017 LINE",
"5 785 LINE"
);
}
);
width = 526;
}
);
unicode = 0197;
},
{
glyphname = J;
layers = (
{
anchors = (
{
name = top;
position = "{721, 1760}";
}
);
background = {
anchors = (
{
name = top;
position = "{721, 1760}";
}
);
paths = (
{
closed = 1;
nodes = (
"719 -16 OFFCURVE",
"898 160 OFFCURVE",
"898 440 CURVE SMOOTH",
"898 1760 LINE",
"543 1760 LINE",
"543 405 LINE SMOOTH",
"543 344 OFFCURVE",
"517 308 OFFCURVE",
"464 308 CURVE SMOOTH",
"409 308 OFFCURVE",
"386 348 OFFCURVE",
"386 410 CURVE SMOOTH",
"386 830 LINE",
"38 830 LINE",
"38 389 LINE SMOOTH",
"38 124 OFFCURVE",
"229 -16 OFFCURVE",
"468 -16 CURVE SMOOTH"
);
}
);
};
layerId = "6CD1E358-6E98-409F-9A1F-EA9DE4C1A8AA";
paths = (
{
closed = 1;
nodes = (
"719 -16 OFFCURVE",
"898 160 OFFCURVE",
"898 440 CURVE SMOOTH",
"898 1760 LINE",
"543 1760 LINE",
"543 405 LINE SMOOTH",
"543 344 OFFCURVE",
"517 308 OFFCURVE",
"464 308 CURVE SMOOTH",
"409 308 OFFCURVE",
"386 348 OFFCURVE",
"386 410 CURVE SMOOTH",
"386 830 LINE",
"38 830 LINE",
"38 389 LINE SMOOTH",
"38 124 OFFCURVE",
"229 -16 OFFCURVE",
"468 -16 CURVE SMOOTH"
);
}
);
width = 955;
}
);
leftKerningGroup = J;
rightKerningGroup = J;
unicode = 004A;
userData = {
com.typemytype.robofont.layerData = {
};
};
},
{
glyphname = Jcrossedtail;
layers = (
{
background = {
paths = (
{
closed = 1;
nodes = (
"719 -16 OFFCURVE",
"898 160 OFFCURVE",
"898 440 CURVE SMOOTH",
"898 1760 LINE",
"543 1760 LINE",
"543 405 LINE SMOOTH",
"543 344 OFFCURVE",
"517 308 OFFCURVE",
"464 308 CURVE SMOOTH",
"409 308 OFFCURVE",
"386 348 OFFCURVE",
"386 410 CURVE SMOOTH",
"386 564 LINE",
"38 564 LINE",
"38 389 LINE SMOOTH",
"38 124 OFFCURVE",
"229 -16 OFFCURVE",
"468 -16 CURVE SMOOTH"
);
},
{
closed = 1;
nodes = (
"386 564 LINE",
"386 735 OFFCURVE",
"445 803 OFFCURVE",
"610 803 CURVE SMOOTH",
"727 803 OFFCURVE",
"828 781 OFFCURVE",
"985 721 CURVE",
"985 1026 LINE",
"828 1085 OFFCURVE",
"727 1108 OFFCURVE",
"610 1108 CURVE SMOOTH",
"221 1108 OFFCURVE",
"38 896 OFFCURVE",
"38 564 CURVE"
);
}
);
};
layerId = "6CD1E358-6E98-409F-9A1F-EA9DE4C1A8AA";
paths = (
{
closed = 1;
nodes = (
"719 -16 OFFCURVE",
"898 160 OFFCURVE",
"898 440 CURVE SMOOTH",
"898 752 LINE",
"925 743 OFFCURVE",
"954 733 OFFCURVE",
"985 721 CURVE",
"985 1026 LINE",
"954 1038 OFFCURVE",
"925 1048 OFFCURVE",
"898 1057 CURVE",
"898 1760 LINE",
"543 1760 LINE",
"543 1106 LINE",
"200 1082 OFFCURVE",
"38 876 OFFCURVE",
"38 564 CURVE SMOOTH",
"38 389 LINE SMOOTH",
"38 124 OFFCURVE",
"229 -16 OFFCURVE",
"468 -16 CURVE SMOOTH"
);
},
{
closed = 1;
nodes = (
"409 308 OFFCURVE",
"386 348 OFFCURVE",
"386 410 CURVE SMOOTH",
"386 564 LINE SMOOTH",
"386 709 OFFCURVE",
"429 780 OFFCURVE",
"543 798 CURVE",
"543 405 LINE SMOOTH",
"543 344 OFFCURVE",
"517 308 OFFCURVE",
"464 308 CURVE SMOOTH"
);
}
);
width = 975;
}
);
leftKerningGroup = J;
unicode = A7B2;
},
{
glyphname = Jstroke;
layers = (
{
components = (
{
alignment = -1;
name = J;
}
);
layerId = "6CD1E358-6E98-409F-9A1F-EA9DE4C1A8AA";
paths = (
{
closed = 1;
nodes = (
"984 1055 LINE",
"984 1287 LINE",
"390 1287 LINE",
"390 1055 LINE"
);
}
);
width = 975;
}
);
leftKerningGroup = J;
unicode = 0248;
},
{
glyphname = K;
layers = (
{
anchors = (
{
name = bottom;
position = "{523, 0}";
},
{
name = top;
position = "{511, 1760}";
}
);
background = {
anchors = (
{
name = bot;
position = "{523, 0}";
},
{
name = top;
position = "{511, 1760}";
}
);
paths = (
{
closed = 1;
nodes = (
"428 0 LINE",
"428 852 LINE",
"620 0 LINE",
"985 0 LINE",
"747 954 LINE",
"944 1760 LINE",
"590 1760 LINE",
"426 1055 LINE",
"426 1760 LINE",
"78 1760 LINE",
"78 0 LINE"
);
}
);
};
layerId = "6CD1E358-6E98-409F-9A1F-EA9DE4C1A8AA";
paths = (
{
closed = 1;
nodes = (
"428 0 LINE",
"428 852 LINE",
"620 0 LINE",
"985 0 LINE",
"747 954 LINE",
"944 1760 LINE",
"590 1760 LINE",
"426 1055 LINE",
"426 1760 LINE",
"78 1760 LINE",
"78 0 LINE"
);
}
);
width = 967;
}
);
leftKerningGroup = H;
rightKerningGroup = K;
unicode = 004B;
userData = {
com.typemytype.robofont.layerData = {
};
};
},
{
glyphname = Klinebelow;
layers = (
{
background = {
anchors = (
{
name = bot;
position = "{523, 0}";
},
{
name = top;
position = "{511, 1760}";
}
);
paths = (
{
closed = 1;
nodes = (
"428 0 LINE",
"428 852 LINE",
"620 0 LINE",
"985 0 LINE",
"747 954 LINE",
"944 1760 LINE",
"590 1760 LINE",
"426 1055 LINE",
"426 1760 LINE",
"78 1760 LINE",
"78 0 LINE"
);
}
);
};
components = (
{
name = K;
},
{
name = macronbelowcomb;
transform = "{1, 0, 0, 1, 523, 0}";
}
);
layerId = "6CD1E358-6E98-409F-9A1F-EA9DE4C1A8AA";
width = 967;
}
);
leftKerningGroup = H;
rightKerningGroup = K;
unicode = 1E34;
},
{
glyphname = Kstroke;
layers = (
{
components = (
{
alignment = -1;
name = K;
transform = "{1, 0, 0, 1, 15, 0}";
}
);
layerId = "6CD1E358-6E98-409F-9A1F-EA9DE4C1A8AA";
paths = (
{
closed = 1;
nodes = (
"516 1479 LINE",
"516 1711 LINE",
"0 1711 LINE",
"0 1479 LINE"
);
}
);
width = 982;
}
);
rightKerningGroup = K;
unicode = A740;
},
{
glyphname = L;
layers = (
{
anchors = (
{
name = bottom;
position = "{433, 0}";
},
{
name = caron.alt;
position = "{193, 1500}";
},
{
name = mid;
position = "{716, 931}";
},
{
name = top;
position = "{254, 1760}";
}
);
background = {
anchors = (
{
name = bot;
position = "{433, 0}";
},
{
name = caron.alt;
position = "{193, 1500}";
},
{
name = mid;
position = "{716, 931}";
},
{
name = top;
position = "{254, 1760}";
}
);
paths = (
{
closed = 1;
nodes = (
"792 0 LINE",
"792 300 LINE",
"430 300 LINE",
"430 1760 LINE",
"78 1760 LINE",
"78 0 LINE"
);
}
);
};
layerId = "6CD1E358-6E98-409F-9A1F-EA9DE4C1A8AA";
paths = (
{
closed = 1;
nodes = (
"792 0 LINE",
"792 300 LINE",
"430 300 LINE",
"430 1760 LINE",
"78 1760 LINE",
"78 0 LINE"
);
}
);
width = 814;
}
);
leftKerningGroup = L;
unicode = 004C;
userData = {
com.typemytype.robofont.layerData = {
};
};
},
{
glyphname = Lbelt;
layers = (
{
background = {
anchors = (
{
name = bot;
position = "{623, 0}";
},
{
name = caron.alt;
position = "{383, 1500}";
},
{
name = mid;
position = "{906, 931}";
},
{
name = top;
position = "{444, 1760}";
}
);
paths = (
{
closed = 1;
nodes = (
"982 0 LINE",
"982 300 LINE",
"620 300 LINE",
"620 1760 LINE",
"268 1760 LINE",
"268 0 LINE"
);
}
);
};
layerId = "6CD1E358-6E98-409F-9A1F-EA9DE4C1A8AA";
paths = (
{
closed = 1;
nodes = (
"982 0 LINE",
"982 300 LINE",
"620 300 LINE",
"620 1761 LINE",
"268 1761 LINE",
"268 0 LINE"
);
},
{
closed = 1;
nodes = (
"760 724 LINE",
"760 955 LINE",
"274 955 LINE SMOOTH",
"209 955 OFFCURVE",
"184 976 OFFCURVE",
"184 1015 CURVE SMOOTH",
"184 1054 OFFCURVE",
"209 1074 OFFCURVE",
"274 1074 CURVE",
"299 1285 LINE",
"104 1285 OFFCURVE",
"-10 1181 OFFCURVE",
"-10 994 CURVE SMOOTH",
"-10 828 OFFCURVE",
"125 724 OFFCURVE",
"299 724 CURVE SMOOTH"
);
}
);
width = 1004;
}
);
rightKerningGroup = L;
unicode = A7AD;
},
{
glyphname = Lslash;
layers = (
{
background = {
components = (
{
name = L;
}
);
paths = (
{
closed = 1;
nodes = (
"636 951 LINE",
"636 1293 LINE",
"-11 1011 LINE",
"-11 669 LINE"
);
}
);
};
components = (
{
name = L;
}
);
layerId = "6CD1E358-6E98-409F-9A1F-EA9DE4C1A8AA";
paths = (
{
closed = 1;
nodes = (
"636 961 LINE",
"636 1283 LINE",
"-11 1001 LINE",
"-11 679 LINE"
);
}
);
width = 853;
}
);
rightKerningGroup = L;
unicode = 0141;
userData = {
com.typemytype.robofont.layerData = {
};
};
},
{
glyphname = M;
layers = (
{
anchors = (
{
name = bottom;
position = "{764, 0}";
},
{
name = top;
position = "{762, 1760}";
}
);
background = {
anchors = (
{
name = top;
position = "{762, 1760}";
}
);
paths = (
{
closed = 1;
nodes = (
"396 0 LINE",
"396 1268 LINE",
"610 0 LINE",
"926 0 LINE",
"1128 1268 LINE",
"1128 0 LINE",
"1450 0 LINE",
"1450 1760 LINE",
"909 1760 LINE",
"762 687 LINE",
"614 1760 LINE",
"78 1760 LINE",
"78 0 LINE"
);
}
);
};
layerId = "6CD1E358-6E98-409F-9A1F-EA9DE4C1A8AA";
paths = (
{
closed = 1;
nodes = (
"396 0 LINE",
"396 1268 LINE",
"610 0 LINE",
"926 0 LINE",
"1128 1268 LINE",
"1128 0 LINE",
"1450 0 LINE",
"1450 1760 LINE",
"909 1760 LINE",
"762 687 LINE",
"614 1760 LINE",
"78 1760 LINE",
"78 0 LINE"
);
}
);
width = 1528;
}
);
leftKerningGroup = H;
rightKerningGroup = H;
unicode = 004D;
userData = {
com.typemytype.robofont.layerData = {
};
};
},
{
glyphname = Mturned;
layers = (
{
background = {
components = (
{
name = M;
transform = "{1, 0, 0, 1, 7, 0}";
}
);
};
layerId = "6CD1E358-6E98-409F-9A1F-EA9DE4C1A8AA";
paths = (
{
closed = 1;
nodes = (
"498 -16 OFFCURVE",
"563 30 OFFCURVE",
"623 136 CURVE",
"658 42 OFFCURVE",
"752 -16 OFFCURVE",
"870 -16 CURVE SMOOTH",
"1031 -16 OFFCURVE",
"1096 46 OFFCURVE",
"1130 177 CURVE",
"1130 0 LINE",
"1473 0 LINE",
"1473 1760 LINE",
"1128 1760 LINE",
"1128 448 LINE SMOOTH",
"1128 346 OFFCURVE",
"1101 260 OFFCURVE",
"1031 260 CURVE SMOOTH",
"970 260 OFFCURVE",
"947 319 OFFCURVE",
"947 404 CURVE SMOOTH",
"947 1760 LINE",
"602 1760 LINE",
"602 429 LINE SMOOTH",
"602 335 OFFCURVE",
"573 256 OFFCURVE",
"509 256 CURVE SMOOTH",
"448 256 OFFCURVE",
"423 306 OFFCURVE",
"423 404 CURVE SMOOTH",
"423 1760 LINE",
"78 1760 LINE",
"78 410 LINE SMOOTH",
"78 134 OFFCURVE",
"155 -16 OFFCURVE",
"369 -16 CURVE SMOOTH"
);
}
);
width = 1551;
}
);
unicode = 019C;
},
{
glyphname = N;
layers = (
{
anchors = (
{
name = bottom;
position = "{503, 0}";
},
{
name = top;
position = "{531, 1760}";
}
);
background = {
anchors = (
{
name = bot;
position = "{503, 0}";
},
{
name = top;
position = "{531, 1760}";
}
);
paths = (
{
closed = 1;
nodes = (
"422 0 LINE",
"422 880 LINE",
"598 0 LINE",
"942 0 LINE",
"942 1760 LINE",
"602 1760 LINE",
"602 917 LINE",
"440 1760 LINE",
"78 1760 LINE",
"78 0 LINE"
);
}
);
};
layerId = "6CD1E358-6E98-409F-9A1F-EA9DE4C1A8AA";
paths = (
{
closed = 1;
nodes = (
"422 0 LINE",
"422 880 LINE",
"598 0 LINE",
"942 0 LINE",
"942 1760 LINE",
"602 1760 LINE",
"602 917 LINE",
"440 1760 LINE",
"78 1760 LINE",
"78 0 LINE"
);
}
);
width = 1020;
}
);
leftKerningGroup = H;
rightKerningGroup = H;
unicode = 004E;
userData = {
com.typemytype.robofont.layerData = {
};
};
},
{
glyphname = Eng;
layers = (
{
background = {
paths = (
{
closed = 1;
nodes = (
"741 -488 OFFCURVE",
"942 -355 OFFCURVE",
"942 -18 CURVE SMOOTH",
"942 182 LINE",
"577 182 LINE",
"577 -41 LINE SMOOTH",
"577 -182 OFFCURVE",
"517 -236 OFFCURVE",
"417 -236 CURVE SMOOTH",
"345 -236 OFFCURVE",
"251 -207 OFFCURVE",
"145 -161 CURVE",
"64 -368 LINE",
"202 -444 OFFCURVE",
"357 -488 OFFCURVE",
"497 -488 CURVE SMOOTH"
);
}
);
};
layerId = "6CD1E358-6E98-409F-9A1F-EA9DE4C1A8AA";
paths = (
{
closed = 1;
nodes = (
"761 -488 OFFCURVE",
"942 -325 OFFCURVE",
"942 -8 CURVE SMOOTH",
"942 1760 LINE",
"602 1760 LINE",
"602 917 LINE",
"440 1760 LINE",
"78 1760 LINE",
"78 0 LINE",
"422 0 LINE",
"422 880 LINE",
"577 105 LINE",
"577 -31 LINE SMOOTH",
"577 -132 OFFCURVE",
"537 -186 OFFCURVE",
"447 -186 CURVE",
"447 -488 LINE"
);
}
);
width = 1006;
}
);
leftKerningGroup = H;
rightKerningGroup = H;
unicode = 014A;
},
{
glyphname = Nhookleft;
layers = (
{
layerId = "6CD1E358-6E98-409F-9A1F-EA9DE4C1A8AA";
paths = (
{
closed = 1;
nodes = (
"241 -488 OFFCURVE",
"422 -325 OFFCURVE",
"422 -8 CURVE SMOOTH",
"422 880 LINE",
"598 0 LINE",
"942 0 LINE",
"942 1760 LINE",
"602 1760 LINE",
"602 917 LINE",
"440 1760 LINE",
"78 1760 LINE",
"78 -31 LINE SMOOTH",
"78 -132 OFFCURVE",
"38 -186 OFFCURVE",
"-52 -186 CURVE",
"-52 -488 LINE"
);
}
);
width = 1020;
}
);
leftKerningGroup = H;
rightKerningGroup = H;
unicode = 019D;
},
{
glyphname = Nlongrightleg;
layers = (
{
background = {
components = (
{
name = N;
}
);
};
layerId = "6CD1E358-6E98-409F-9A1F-EA9DE4C1A8AA";
paths = (
{
closed = 1;
nodes = (
"942 -186 LINE",
"942 1425 LINE SMOOTH",
"942 1650 OFFCURVE",
"850 1776 OFFCURVE",
"651 1776 CURVE SMOOTH",
"530 1776 OFFCURVE",
"446 1694 OFFCURVE",
"416 1574 CURVE",
"416 1760 LINE",
"78 1760 LINE",
"78 0 LINE",
"418 0 LINE",
"418 1296 LINE SMOOTH",
"418 1407 OFFCURVE",
"434 1465 OFFCURVE",
"518 1465 CURVE SMOOTH",
"578 1465 OFFCURVE",
"602 1413 OFFCURVE",
"602 1328 CURVE SMOOTH",
"602 -186 LINE"
);
}
);
width = 1020;
}
);
leftKerningGroup = H;
unicode = 0220;
},
{
glyphname = O;
layers = (
{
anchors = (
{
name = bottom;
position = "{498, 0}";
},
{
name = ogonek;
position = "{677, 80}";
},
{
name = top_case;
position = "{498, 1760}";
},
{
name = topright;
position = "{498, 1515}";
}
);
background = {
anchors = (
{
name = bottom;
position = "{498, 0}";
},
{
name = ogonek;
position = "{677, 80}";
},
{
name = top;
position = "{499, 1760}";
}
);
paths = (
{
closed = 1;
nodes = (
"786 -16 OFFCURVE",
"932 167 OFFCURVE",
"932 480 CURVE SMOOTH",
"932 1316 LINE SMOOTH",
"932 1619 OFFCURVE",
"780 1776 OFFCURVE",
"498 1776 CURVE SMOOTH",
"216 1776 OFFCURVE",
"64 1619 OFFCURVE",
"64 1316 CURVE SMOOTH",
"64 480 LINE SMOOTH",
"64 167 OFFCURVE",
"210 -16 OFFCURVE",
"498 -16 CURVE SMOOTH"
);
},
{
closed = 1;
nodes = (
"426 308 OFFCURVE",
"412 369 OFFCURVE",
"412 461 CURVE SMOOTH",
"412 1319 LINE SMOOTH",
"412 1394 OFFCURVE",
"432 1452 OFFCURVE",
"500 1452 CURVE SMOOTH",
"569 1452 OFFCURVE",
"578 1384 OFFCURVE",
"578 1322 CURVE SMOOTH",
"578 463 LINE SMOOTH",
"578 378 OFFCURVE",
"565 308 OFFCURVE",
"498 308 CURVE SMOOTH"
);
}
);
};
layerId = "6CD1E358-6E98-409F-9A1F-EA9DE4C1A8AA";
paths = (
{
closed = 1;
nodes = (
"779 -16 OFFCURVE",
"932 159 OFFCURVE",
"932 480 CURVE SMOOTH",
"932 1316 LINE SMOOTH",
"932 1617 OFFCURVE",
"782 1776 OFFCURVE",
"498 1776 CURVE SMOOTH",
"214 1776 OFFCURVE",
"64 1617 OFFCURVE",
"64 1316 CURVE SMOOTH",
"64 480 LINE SMOOTH",
"64 159 OFFCURVE",
"217 -16 OFFCURVE",
"498 -16 CURVE SMOOTH"
);
},
{
closed = 1;
nodes = (
"439 308 OFFCURVE",
"415 351 OFFCURVE",
"415 461 CURVE SMOOTH",
"415 1319 LINE SMOOTH",
"415 1408 OFFCURVE",
"444 1452 OFFCURVE",
"503 1452 CURVE SMOOTH",
"556 1452 OFFCURVE",
"581 1411 OFFCURVE",
"581 1322 CURVE SMOOTH",
"581 463 LINE SMOOTH",
"581 356 OFFCURVE",
"556 308 OFFCURVE",
"501 308 CURVE SMOOTH"
);
}
);
width = 996;
}
);
leftKerningGroup = O;
rightKerningGroup = O;
unicode = 004F;
userData = {
com.typemytype.robofont.layerData = {
};
};
},
{
glyphname = OU;
layers = (
{
background = {
anchors = (
{
name = bottom;
position = "{498, 0}";
},
{
name = ogonek;
position = "{677, 80}";
},
{
name = top_case;
position = "{498, 1760}";
},
{
name = topright;
position = "{498, 1515}";
}
);
paths = (
{
closed = 1;
nodes = (
"786 -16 OFFCURVE",
"932 167 OFFCURVE",
"932 480 CURVE SMOOTH",
"932 1316 LINE SMOOTH",
"932 1619 OFFCURVE",
"780 1776 OFFCURVE",
"498 1776 CURVE SMOOTH",
"216 1776 OFFCURVE",
"64 1619 OFFCURVE",
"64 1316 CURVE SMOOTH",
"64 480 LINE SMOOTH",
"64 167 OFFCURVE",
"210 -16 OFFCURVE",
"498 -16 CURVE SMOOTH"
);
},
{
closed = 1;
nodes = (
"429 308 OFFCURVE",
"415 369 OFFCURVE",
"415 461 CURVE SMOOTH",
"415 1319 LINE SMOOTH",
"415 1394 OFFCURVE",
"435 1452 OFFCURVE",
"503 1452 CURVE SMOOTH",
"572 1452 OFFCURVE",
"581 1384 OFFCURVE",
"581 1322 CURVE SMOOTH",
"581 463 LINE SMOOTH",
"581 378 OFFCURVE",
"568 308 OFFCURVE",
"501 308 CURVE SMOOTH"
);
}
);
};
layerId = "6CD1E358-6E98-409F-9A1F-EA9DE4C1A8AA";
paths = (
{
closed = 1;
nodes = (
"783 -16 OFFCURVE",
"932 162 OFFCURVE",
"932 479 CURVE SMOOTH",
"932 683 LINE SMOOTH",
"932 986 OFFCURVE",
"762 1121 OFFCURVE",
"498 1121 CURVE SMOOTH",
"234 1121 OFFCURVE",
"64 986 OFFCURVE",
"64 683 CURVE SMOOTH",
"64 479 LINE SMOOTH",
"64 166 OFFCURVE",
"213 -16 OFFCURVE",
"498 -16 CURVE SMOOTH"
);
},
{
closed = 1;
nodes = (
"432 308 OFFCURVE",
"412 361 OFFCURVE",
"412 461 CURVE SMOOTH",
"412 706 LINE SMOOTH",
"412 794 OFFCURVE",
"441 839 OFFCURVE",
"500 839 CURVE SMOOTH",
"564 839 OFFCURVE",
"578 785 OFFCURVE",
"578 710 CURVE SMOOTH",
"578 463 LINE SMOOTH",
"578 365 OFFCURVE",
"561 308 OFFCURVE",
"498 308 CURVE SMOOTH"
);
},
{
closed = 1;
nodes = (
"766 839 OFFCURVE",
"926 982 OFFCURVE",
"926 1303 CURVE SMOOTH",
"926 1760 LINE",
"584 1760 LINE",
"584 1297 LINE SMOOTH",
"584 1183 OFFCURVE",
"570 1121 OFFCURVE",
"498 1121 CURVE SMOOTH",
"426 1121 OFFCURVE",
"412 1185 OFFCURVE",
"412 1297 CURVE SMOOTH",
"412 1760 LINE",
"70 1760 LINE",
"70 1303 LINE SMOOTH",
"70 982 OFFCURVE",
"230 839 OFFCURVE",
"498 839 CURVE"
);
}
);
width = 996;
}
);
unicode = 0222;
},
{
glyphname = Ohorn;
layers = (
{
anchors = (
{
name = bottom;
position = "{498, 0}";
},
{
name = ogonek;
position = "{677, 80}";
},
{
name = top_case;
position = "{500, 1895}";
}
);
layerId = "6CD1E358-6E98-409F-9A1F-EA9DE4C1A8AA";
paths = (
{
closed = 1;
nodes = (
"786 -16 OFFCURVE",
"932 167 OFFCURVE",
"932 480 CURVE SMOOTH",
"932 1316 LINE SMOOTH",
"932 1459 OFFCURVE",
"898 1569 OFFCURVE",
"833 1646 CURVE",
"828 1612 LINE",
"913 1662 OFFCURVE",
"969 1756 OFFCURVE",
"969 1909 CURVE SMOOTH",
"969 1924 LINE",
"691 1924 LINE",
"691 1901 LINE SMOOTH",
"691 1815 OFFCURVE",
"651 1776 OFFCURVE",
"576 1776 CURVE SMOOTH",
"500 1776 LINE SMOOTH",
"217 1776 OFFCURVE",
"64 1619 OFFCURVE",
"64 1316 CURVE SMOOTH",
"64 480 LINE SMOOTH",
"64 167 OFFCURVE",
"210 -16 OFFCURVE",
"498 -16 CURVE SMOOTH"
);
},
{
closed = 1;
nodes = (
"426 308 OFFCURVE",
"412 369 OFFCURVE",
"412 461 CURVE SMOOTH",
"412 1319 LINE SMOOTH",
"412 1394 OFFCURVE",
"432 1452 OFFCURVE",
"500 1452 CURVE SMOOTH",
"569 1452 OFFCURVE",
"578 1384 OFFCURVE",
"578 1322 CURVE SMOOTH",
"578 463 LINE SMOOTH",
"578 378 OFFCURVE",
"565 308 OFFCURVE",
"498 308 CURVE SMOOTH"
);
}
);
width = 999;
},
{
anchors = (
{
name = _topright;
position = "{498, 1515}";
},
{
name = bottom;
position = "{498, 0}";
},
{
name = ogonek;
position = "{677, 80}";
},
{
name = top_case;
position = "{498, 1760}";
},
{
name = topright;
position = "{498, 1515}";
}
);
associatedMasterId = "6CD1E358-6E98-409F-9A1F-EA9DE4C1A8AA";
background = {
components = (
{
name = O;
},
{
name = horncomb.case;
}
);
};
layerId = "9A1CC48F-EBA3-4F80-80D1-25802E2DFBE4";
name = "Regular Jul 24 16, 23:49";
paths = (
{
closed = 1;
nodes = (
"786 -16 OFFCURVE",
"932 167 OFFCURVE",
"932 480 CURVE SMOOTH",
"932 1316 LINE SMOOTH",
"932 1619 OFFCURVE",
"780 1776 OFFCURVE",
"498 1776 CURVE SMOOTH",
"216 1776 OFFCURVE",
"64 1619 OFFCURVE",
"64 1316 CURVE SMOOTH",
"64 480 LINE SMOOTH",
"64 167 OFFCURVE",
"210 -16 OFFCURVE",
"498 -16 CURVE SMOOTH"
);
},
{
closed = 1;
nodes = (
"426 308 OFFCURVE",
"412 369 OFFCURVE",
"412 461 CURVE SMOOTH",
"412 1319 LINE SMOOTH",
"412 1394 OFFCURVE",
"432 1452 OFFCURVE",
"500 1452 CURVE SMOOTH",
"569 1452 OFFCURVE",
"578 1384 OFFCURVE",
"578 1322 CURVE SMOOTH",
"578 463 LINE SMOOTH",
"578 378 OFFCURVE",
"565 308 OFFCURVE",
"498 308 CURVE SMOOTH"
);
},
{
closed = 1;
nodes = (
"819 1566 OFFCURVE",
"969 1659 OFFCURVE",
"969 1909 CURVE SMOOTH",
"969 1924 LINE",
"691 1923 LINE",
"691 1901 LINE SMOOTH",
"691 1815 OFFCURVE",
"651 1776 OFFCURVE",
"576 1776 CURVE SMOOTH",
"499 1776 LINE",
"499 1587 LINE",
"539 1573 OFFCURVE",
"580 1566 OFFCURVE",
"634 1566 CURVE"
);
}
);
visible = 1;
width = 996;
}
);
leftKerningGroup = O;
rightKerningGroup = Ohook;
unicode = 01A0;
},
{
glyphname = "Omega-latin";
layers = (
{
background = {
anchors = (
{
name = bottom;
position = "{526, 0}";
},
{
name = ogonek;
position = "{705, 80}";
},
{
name = top_case;
position = "{526, 1760}";
},
{
name = topright;
position = "{526, 1515}";
}
);
paths = (
{
closed = 1;
nodes = (
"814 -16 OFFCURVE",
"960 167 OFFCURVE",
"960 480 CURVE SMOOTH",
"960 1316 LINE SMOOTH",
"960 1619 OFFCURVE",
"808 1776 OFFCURVE",
"526 1776 CURVE SMOOTH",
"244 1776 OFFCURVE",
"92 1619 OFFCURVE",
"92 1316 CURVE SMOOTH",
"92 480 LINE SMOOTH",
"92 167 OFFCURVE",
"238 -16 OFFCURVE",
"526 -16 CURVE SMOOTH"
);
},
{
closed = 1;
nodes = (
"457 308 OFFCURVE",
"443 369 OFFCURVE",
"443 461 CURVE SMOOTH",
"443 1319 LINE SMOOTH",
"443 1394 OFFCURVE",
"463 1452 OFFCURVE",
"531 1452 CURVE SMOOTH",
"600 1452 OFFCURVE",
"609 1384 OFFCURVE",
"609 1322 CURVE SMOOTH",
"609 463 LINE SMOOTH",
"609 378 OFFCURVE",
"596 308 OFFCURVE",
"529 308 CURVE SMOOTH"
);
}
);
};
layerId = "6CD1E358-6E98-409F-9A1F-EA9DE4C1A8AA";
paths = (
{
closed = 1;
nodes = (
"577 -16 OFFCURVE",
"684 23 OFFCURVE",
"760 146 CURVE",
"835 23 OFFCURVE",
"946 -16 OFFCURVE",
"1067 -16 CURVE SMOOTH",
"1330 -16 OFFCURVE",
"1453 154 OFFCURVE",
"1453 474 CURVE SMOOTH",
"1453 1317 LINE SMOOTH",
"1453 1585 OFFCURVE",
"1311 1776 OFFCURVE",
"1020 1776 CURVE",
"1020 1473 LINE",
"1077 1473 OFFCURVE",
"1104 1446 OFFCURVE",
"1104 1378 CURVE SMOOTH",
"1104 462 LINE SMOOTH",
"1104 365 OFFCURVE",
"1081 308 OFFCURVE",
"1020 308 CURVE SMOOTH",
"954 308 OFFCURVE",
"936 361 OFFCURVE",
"936 462 CURVE SMOOTH",
"936 1179 LINE",
"581 1179 LINE",
"581 462 LINE SMOOTH",
"581 365 OFFCURVE",
"563 308 OFFCURVE",
"499 308 CURVE SMOOTH",
"434 308 OFFCURVE",
"413 361 OFFCURVE",
"413 462 CURVE SMOOTH",
"413 1378 LINE SMOOTH",
"413 1446 OFFCURVE",
"440 1473 OFFCURVE",
"497 1473 CURVE",
"497 1776 LINE",
"206 1776 OFFCURVE",
"64 1585 OFFCURVE",
"64 1317 CURVE SMOOTH",
"64 474 LINE SMOOTH",
"64 158 OFFCURVE",
"187 -16 OFFCURVE",
"452 -16 CURVE SMOOTH"
);
}
);
width = 1517;
}
);
leftKerningGroup = O;
rightKerningGroup = O;
unicode = A7B6;
},
{
glyphname = Oopen;
layers = (
{
layerId = "6CD1E358-6E98-409F-9A1F-EA9DE4C1A8AA";
paths = (
{
closed = 1;
nodes = (
"738 -16 OFFCURVE",
"907 151 OFFCURVE",
"907 436 CURVE SMOOTH",
"907 1248 LINE SMOOTH",
"907 1589 OFFCURVE",
"780 1776 OFFCURVE",
"475 1776 CURVE SMOOTH",
"225 1776 OFFCURVE",
"43 1639 OFFCURVE",
"43 1362 CURVE SMOOTH",
"43 1058 LINE",
"393 1058 LINE",
"393 1318 LINE SMOOTH",
"393 1423 OFFCURVE",
"419 1452 OFFCURVE",
"475 1452 CURVE SMOOTH",
"540 1452 OFFCURVE",
"558 1400 OFFCURVE",
"558 1322 CURVE SMOOTH",
"558 441 LINE SMOOTH",
"558 344 OFFCURVE",
"529 308 OFFCURVE",
"475 308 CURVE SMOOTH",
"415 308 OFFCURVE",
"393 362 OFFCURVE",
"393 441 CURVE SMOOTH",
"393 758 LINE",
"39 758 LINE",
"39 425 LINE SMOOTH",
"39 116 OFFCURVE",
"203 -16 OFFCURVE",
"483 -16 CURVE SMOOTH"
);
}
);
width = 971;
}
);
rightKerningGroup = O;
unicode = 0186;
},
{
glyphname = Oslash;
layers = (
{
anchors = (
{
name = bottom;
position = "{498, 0}";
},
{
name = ogonek;
position = "{677, 80}";
},
{
name = top;
position = "{494, 1897}";
},
{
name = top_case;
position = "{498, 1760}";
},
{
name = topright;
position = "{498, 1515}";
}
);
background = {
paths = (
{
closed = 1;
nodes = (
"849 1971 LINE",
"732 2004 LINE",
"604 1550 LINE",
"715 1500 LINE"
);
},
{
closed = 1;
nodes = (
"354 230 LINE",
"255 316 LINE",
"128 -132 LINE",
"240 -172 LINE"
);
}
);
};
layerId = "6CD1E358-6E98-409F-9A1F-EA9DE4C1A8AA";
paths = (
{
closed = 1;
nodes = (
"786 -16 OFFCURVE",
"932 167 OFFCURVE",
"932 480 CURVE SMOOTH",
"932 1316 LINE SMOOTH",
"932 1619 OFFCURVE",
"780 1776 OFFCURVE",
"498 1776 CURVE SMOOTH",
"216 1776 OFFCURVE",
"64 1619 OFFCURVE",
"64 1316 CURVE SMOOTH",
"64 480 LINE SMOOTH",
"64 167 OFFCURVE",
"210 -16 OFFCURVE",
"498 -16 CURVE SMOOTH"
);
},
{
closed = 1;
nodes = (
"429 308 OFFCURVE",
"415 369 OFFCURVE",
"415 461 CURVE SMOOTH",
"415 1319 LINE SMOOTH",
"415 1394 OFFCURVE",
"435 1452 OFFCURVE",
"503 1452 CURVE SMOOTH",
"572 1452 OFFCURVE",
"581 1384 OFFCURVE",
"581 1322 CURVE SMOOTH",
"581 463 LINE SMOOTH",
"581 378 OFFCURVE",
"568 308 OFFCURVE",
"501 308 CURVE SMOOTH"
);
},
{
closed = 1;
nodes = (
"251 -186 LINE",
"408 419 LINE",
"268 419 LINE",
"111 -186 LINE"
);
},
{
closed = 1;
nodes = (
"711 1425 LINE",
"859 2000 LINE",
"719 2000 LINE",
"571 1425 LINE"
);
}
);
width = 996;
}
);
leftKerningGroup = O;
rightKerningGroup = O;
unicode = 00D8;
userData = {
com.typemytype.robofont.layerData = {
};
};
},
{
glyphname = OE;
layers = (
{
background = {
paths = (
{
closed = 1;
nodes = (
"1291 0 LINE",
"1291 311 LINE",
"931 311 LINE",
"931 784 LINE",
"1254 784 LINE",
"1254 1083 LINE",
"931 1083 LINE",
"931 1451 LINE",
"1268 1451 LINE",
"1268 1760 LINE",
"598 1760 LINE SMOOTH",
"273 1760 OFFCURVE",
"50 1665 OFFCURVE",
"50 1356 CURVE SMOOTH",
"50 430 LINE SMOOTH",
"50 143 OFFCURVE",
"235 0 OFFCURVE",
"606 0 CURVE SMOOTH"
);
},
{
closed = 1;
nodes = (
"431 311 OFFCURVE",
"398 387 OFFCURVE",
"398 480 CURVE SMOOTH",
"398 1314 LINE SMOOTH",
"398 1399 OFFCURVE",
"440 1451 OFFCURVE",
"519 1451 CURVE SMOOTH",
"574 1451 LINE",
"574 311 LINE",
"513 311 LINE SMOOTH"
);
}
);
};
layerId = "6CD1E358-6E98-409F-9A1F-EA9DE4C1A8AA";
paths = (
{
closed = 1;
nodes = (
"1291 0 LINE",
"1291 311 LINE",
"931 311 LINE",
"931 784 LINE",
"1254 784 LINE",
"1254 1083 LINE",
"931 1083 LINE",
"931 1451 LINE",
"1268 1451 LINE",
"1268 1760 LINE",
"598 1760 LINE SMOOTH",
"273 1760 OFFCURVE",
"50 1665 OFFCURVE",
"50 1356 CURVE SMOOTH",
"50 430 LINE SMOOTH",
"50 143 OFFCURVE",
"235 0 OFFCURVE",
"606 0 CURVE SMOOTH"
);
},
{
closed = 1;
nodes = (
"431 311 OFFCURVE",
"398 387 OFFCURVE",
"398 480 CURVE SMOOTH",
"398 1314 LINE SMOOTH",
"398 1399 OFFCURVE",
"440 1451 OFFCURVE",
"519 1451 CURVE SMOOTH",
"574 1451 LINE",
"574 311 LINE",
"513 311 LINE SMOOTH"
);
}
);
width = 1330;
}
);
leftKerningGroup = O;
rightKerningGroup = E;
unicode = 0152;
userData = {
com.typemytype.robofont.layerData = {
};
};
},
{
glyphname = P;
layers = (
{
anchors = (
{
name = top;
position = "{483, 1760}";
}
);
background = {
anchors = (
{
name = top;
position = "{483, 1760}";
}
);
paths = (
{
closed = 1;
nodes = (
"424 0 LINE",
"424 697 LINE",
"567 697 LINE SMOOTH",
"859 697 OFFCURVE",
"934 903 OFFCURVE",
"934 1224 CURVE SMOOTH",
"934 1556 OFFCURVE",
"835 1760 OFFCURVE",
"543 1760 CURVE SMOOTH",
"78 1760 LINE",
"78 0 LINE"
);
},
{
closed = 1;
nodes = (
"424 1439 LINE",
"463 1439 LINE SMOOTH",
"569 1439 OFFCURVE",
"586 1363 OFFCURVE",
"586 1230 CURVE SMOOTH",
"586 1087 OFFCURVE",
"574 1013 OFFCURVE",
"444 1013 CURVE SMOOTH",
"424 1013 LINE"
);
}
);
};
layerId = "6CD1E358-6E98-409F-9A1F-EA9DE4C1A8AA";
paths = (
{
closed = 1;
nodes = (
"424 0 LINE",
"424 697 LINE",
"567 697 LINE SMOOTH",
"859 697 OFFCURVE",
"934 903 OFFCURVE",
"934 1224 CURVE SMOOTH",
"934 1556 OFFCURVE",
"835 1760 OFFCURVE",
"543 1760 CURVE SMOOTH",
"78 1760 LINE",
"78 0 LINE"
);
},
{
closed = 1;
nodes = (
"424 1439 LINE",
"463 1439 LINE SMOOTH",
"569 1439 OFFCURVE",
"586 1363 OFFCURVE",
"586 1230 CURVE SMOOTH",
"586 1087 OFFCURVE",
"574 1013 OFFCURVE",
"444 1013 CURVE SMOOTH",
"424 1013 LINE"
);
}
);
width = 967;
}
);
leftKerningGroup = H;
rightKerningGroup = P;
unicode = 0050;
userData = {
com.typemytype.robofont.layerData = {
};
};
},
{
glyphname = Phook;
layers = (
{
layerId = "6CD1E358-6E98-409F-9A1F-EA9DE4C1A8AA";
paths = (
{
closed = 1;
nodes = (
"773 0 LINE",
"773 697 LINE",
"916 697 LINE SMOOTH",
"1208 697 OFFCURVE",
"1283 903 OFFCURVE",
"1283 1224 CURVE SMOOTH",
"1283 1556 OFFCURVE",
"1184 1760 OFFCURVE",
"892 1760 CURVE SMOOTH",
"427 1760 LINE SMOOTH",
"144 1760 OFFCURVE",
"5 1574 OFFCURVE",
"5 1312 CURVE SMOOTH",
"5 1252 LINE",
"312 1252 LINE",
"312 1312 LINE SMOOTH",
"312 1418 OFFCURVE",
"348 1464 OFFCURVE",
"427 1464 CURVE",
"427 0 LINE"
);
},
{
closed = 1;
nodes = (
"773 1439 LINE",
"812 1439 LINE SMOOTH",
"918 1439 OFFCURVE",
"935 1363 OFFCURVE",
"935 1230 CURVE SMOOTH",
"935 1087 OFFCURVE",
"923 1013 OFFCURVE",
"793 1013 CURVE SMOOTH",
"773 1013 LINE"
);
}
);
width = 1316;
}
);
rightKerningGroup = P;
unicode = 01A4;
},
{
glyphname = Thorn;
layers = (
{
background = {
paths = (
{
closed = 1;
nodes = (
"408 0 LINE",
"408 434 LINE",
"551 434 LINE SMOOTH",
"856 434 OFFCURVE",
"918 666 OFFCURVE",
"918 973 CURVE SMOOTH",
"918 1291 OFFCURVE",
"835 1516 OFFCURVE",
"527 1516 CURVE SMOOTH",
"407 1516 LINE",
"407 1760 LINE",
"62 1760 LINE",
"62 0 LINE"
);
},
{
closed = 1;
nodes = (
"408 1226 LINE",
"447 1226 LINE SMOOTH",
"562 1226 OFFCURVE",
"570 1121 OFFCURVE",
"570 979 CURVE SMOOTH",
"570 833 OFFCURVE",
"572 721 OFFCURVE",
"428 721 CURVE SMOOTH",
"408 721 LINE"
);
}
);
};
layerId = "6CD1E358-6E98-409F-9A1F-EA9DE4C1A8AA";
paths = (
{
closed = 1;
nodes = (
"408 0 LINE",
"408 434 LINE",
"551 434 LINE SMOOTH",
"856 434 OFFCURVE",
"918 666 OFFCURVE",
"918 973 CURVE SMOOTH",
"918 1291 OFFCURVE",
"835 1516 OFFCURVE",
"527 1516 CURVE SMOOTH",
"407 1516 LINE",
"407 1760 LINE",
"62 1760 LINE",
"62 0 LINE"
);
},
{
closed = 1;
nodes = (
"408 1226 LINE",
"447 1226 LINE SMOOTH",
"562 1226 OFFCURVE",
"570 1121 OFFCURVE",
"570 967 CURVE SMOOTH",
"570 770 OFFCURVE",
"537 721 OFFCURVE",
"428 721 CURVE SMOOTH",
"408 721 LINE"
);
}
);
width = 947;
}
);
leftKerningGroup = H;
rightKerningGroup = P;
unicode = 00DE;
userData = {
com.typemytype.robofont.layerData = {
};
};
},
{
glyphname = Pstroke;
layers = (
{
components = (
{
name = P;
}
);
layerId = "6CD1E358-6E98-409F-9A1F-EA9DE4C1A8AA";
paths = (
{
closed = 1;
nodes = (
"516 1115 LINE",
"516 1347 LINE",
"0 1347 LINE",
"0 1115 LINE"
);
}
);
width = 967;
}
);
rightKerningGroup = P;
unicode = 2C63;
},
{
glyphname = Q;
layers = (
{
background = {
paths = (
{
closed = 1;
nodes = (
"975 23 LINE",
"824 119 LINE",
"889 202 OFFCURVE",
"922 318 OFFCURVE",
"922 462 CURVE SMOOTH",
"922 1313 LINE SMOOTH",
"922 1616 OFFCURVE",
"769 1776 OFFCURVE",
"488 1776 CURVE SMOOTH",
"207 1776 OFFCURVE",
"54 1616 OFFCURVE",
"54 1313 CURVE SMOOTH",
"54 462 LINE SMOOTH",
"54 150 OFFCURVE",
"202 -16 OFFCURVE",
"488 -16 CURVE SMOOTH",
"501 -16 OFFCURVE",
"531 -10 OFFCURVE",
"576 -3 CURVE",
"856 -187 LINE"
);
},
{
closed = 1;
nodes = (
"406 308 OFFCURVE",
"402 407 OFFCURVE",
"402 477 CURVE SMOOTH",
"402 1308 LINE SMOOTH",
"402 1384 OFFCURVE",
"417 1452 OFFCURVE",
"486 1452 CURVE SMOOTH",
"554 1452 OFFCURVE",
"568 1382 OFFCURVE",
"568 1307 CURVE SMOOTH",
"568 484 LINE SMOOTH",
"568 407 OFFCURVE",
"563 308 OFFCURVE",
"488 308 CURVE SMOOTH"
);
}
);
};
layerId = "6CD1E358-6E98-409F-9A1F-EA9DE4C1A8AA";
paths = (
{
closed = 1;
nodes = (
"975 23 LINE",
"824 119 LINE",
"889 202 OFFCURVE",
"922 318 OFFCURVE",
"922 462 CURVE SMOOTH",
"922 1313 LINE SMOOTH",
"922 1616 OFFCURVE",
"769 1776 OFFCURVE",
"488 1776 CURVE SMOOTH",
"207 1776 OFFCURVE",
"54 1616 OFFCURVE",
"54 1313 CURVE SMOOTH",
"54 462 LINE SMOOTH",
"54 150 OFFCURVE",
"202 -16 OFFCURVE",
"477 -16 CURVE SMOOTH",
"510 -16 OFFCURVE",
"543 -12 OFFCURVE",
"576 -3 CURVE",
"856 -187 LINE"
);
},
{
closed = 1;
nodes = (
"406 308 OFFCURVE",
"402 407 OFFCURVE",
"402 477 CURVE SMOOTH",
"402 1308 LINE SMOOTH",
"402 1384 OFFCURVE",
"417 1452 OFFCURVE",
"486 1452 CURVE SMOOTH",
"554 1452 OFFCURVE",
"568 1382 OFFCURVE",
"568 1307 CURVE SMOOTH",
"568 484 LINE SMOOTH",
"568 407 OFFCURVE",
"563 308 OFFCURVE",
"488 308 CURVE SMOOTH"
);
}
);
width = 1011;
}
);
leftKerningGroup = O;
unicode = 0051;
userData = {
com.typemytype.robofont.layerData = {
};
};
},
{
glyphname = Qhooktail;
layers = (
{
background = {
paths = (
{
closed = 1;
nodes = (
"497 -16 OFFCURVE",
"607 42 OFFCURVE",
"647 208 CURVE",
"621 311 LINE",
"621 70 LINE",
"685 -138 OFFCURVE",
"805 -186 OFFCURVE",
"1059 -186 CURVE",
"1059 130 LINE",
"969 130 OFFCURVE",
"931 168 OFFCURVE",
"931 263 CURVE SMOOTH",
"931 1760 LINE",
"581 1760 LINE",
"581 1604 LINE",
"541 1718 OFFCURVE",
"477 1776 OFFCURVE",
"363 1776 CURVE SMOOTH",
"104 1776 OFFCURVE",
"64 1578 OFFCURVE",
"64 1294 CURVE SMOOTH",
"64 467 LINE SMOOTH",
"64 182 OFFCURVE",
"104 -16 OFFCURVE",
"363 -16 CURVE SMOOTH"
);
},
{
closed = 1;
nodes = (
"431 278 OFFCURVE",
"414 336 OFFCURVE",
"414 431 CURVE SMOOTH",
"414 1330 LINE SMOOTH",
"414 1424 OFFCURVE",
"431 1482 OFFCURVE",
"499 1482 CURVE SMOOTH",
"561 1482 OFFCURVE",
"581 1416 OFFCURVE",
"581 1330 CURVE SMOOTH",
"581 431 LINE SMOOTH",
"581 344 OFFCURVE",
"561 278 OFFCURVE",
"499 278 CURVE SMOOTH"
);
}
);
};
layerId = "6CD1E358-6E98-409F-9A1F-EA9DE4C1A8AA";
paths = (
{
closed = 1;
nodes = (
"1059 120 LINE",
"969 120 OFFCURVE",
"931 158 OFFCURVE",
"931 253 CURVE SMOOTH",
"931 1760 LINE",
"581 1760 LINE",
"581 1604 LINE",
"541 1718 OFFCURVE",
"477 1776 OFFCURVE",
"363 1776 CURVE SMOOTH",
"104 1776 OFFCURVE",
"64 1578 OFFCURVE",
"64 1294 CURVE SMOOTH",
"64 467 LINE SMOOTH",
"64 182 OFFCURVE",
"104 -16 OFFCURVE",
"363 -16 CURVE SMOOTH",
"497 -16 OFFCURVE",
"607 42 OFFCURVE",
"647 208 CURVE",
"621 311 LINE",
"621 130 LINE SMOOTH",
"621 -108 OFFCURVE",
"805 -196 OFFCURVE",
"1059 -196 CURVE"
);
},
{
closed = 1;
nodes = (
"431 278 OFFCURVE",
"414 336 OFFCURVE",
"414 431 CURVE SMOOTH",
"414 1330 LINE SMOOTH",
"414 1424 OFFCURVE",
"431 1482 OFFCURVE",
"499 1482 CURVE SMOOTH",
"561 1482 OFFCURVE",
"581 1416 OFFCURVE",
"581 1330 CURVE SMOOTH",
"581 431 LINE SMOOTH",
"581 344 OFFCURVE",
"561 278 OFFCURVE",
"499 278 CURVE SMOOTH"
);
}
);
width = 1049;
}
);
unicode = 024A;
},
{
glyphname = R;
layers = (
{
anchors = (
{
name = bottom;
position = "{515, 0}";
},
{
name = top;
position = "{479, 1760}";
}
);
background = {
anchors = (
{
name = bot;
position = "{515, 0}";
},
{
name = top;
position = "{479, 1760}";
}
);
paths = (
{
closed = 1;
nodes = (
"434 0 LINE",
"434 803 LINE",
"527 803 OFFCURVE",
"567 792 OFFCURVE",
"567 689 CURVE SMOOTH",
"567 0 LINE",
"911 0 LINE",
"915 666 LINE SMOOTH",
"915 805 OFFCURVE",
"874 895 OFFCURVE",
"764 918 CURVE",
"898 962 OFFCURVE",
"938 1075 OFFCURVE",
"938 1267 CURVE SMOOTH",
"938 1564 OFFCURVE",
"888 1760 OFFCURVE",
"618 1760 CURVE SMOOTH",
"78 1760 LINE",
"78 0 LINE"
);
},
{
closed = 1;
nodes = (
"436 1434 LINE",
"518 1434 LINE SMOOTH",
"577 1434 OFFCURVE",
"594 1404 OFFCURVE",
"594 1267 CURVE SMOOTH",
"594 1160 OFFCURVE",
"568 1108 OFFCURVE",
"521 1108 CURVE SMOOTH",
"436 1108 LINE"
);
}
);
};
layerId = "6CD1E358-6E98-409F-9A1F-EA9DE4C1A8AA";
paths = (
{
closed = 1;
nodes = (
"434 0 LINE",
"434 803 LINE",
"527 803 OFFCURVE",
"567 792 OFFCURVE",
"567 689 CURVE SMOOTH",
"567 0 LINE",
"914 0 LINE",
"914 666 LINE SMOOTH",
"914 805 OFFCURVE",
"874 895 OFFCURVE",
"764 918 CURVE",
"898 962 OFFCURVE",
"938 1075 OFFCURVE",
"938 1267 CURVE SMOOTH",
"938 1564 OFFCURVE",
"888 1760 OFFCURVE",
"618 1760 CURVE SMOOTH",
"78 1760 LINE",
"78 0 LINE"
);
},
{
closed = 1;
nodes = (
"436 1434 LINE",
"518 1434 LINE SMOOTH",
"577 1434 OFFCURVE",
"594 1404 OFFCURVE",
"594 1267 CURVE SMOOTH",
"594 1160 OFFCURVE",
"568 1108 OFFCURVE",
"521 1108 CURVE SMOOTH",
"436 1108 LINE"
);
}
);
width = 976;
}
);
leftKerningGroup = H;
rightKerningGroup = R;
unicode = 0052;
userData = {
com.typemytype.robofont.layerData = {
};
};
},
{
glyphname = Rstroke;
layers = (
{
components = (
{
name = R;
}
);
layerId = "6CD1E358-6E98-409F-9A1F-EA9DE4C1A8AA";
paths = (
{
closed = 1;
nodes = (
"516 843 LINE",
"516 1075 LINE",
"0 1075 LINE",
"0 843 LINE"
);
}
);
width = 976;
}
);
rightKerningGroup = R;
unicode = 024C;
},
{
glyphname = Rtail;
layers = (
{
background = {
paths = (
{
closed = 1;
nodes = (
"914 0 LINE",
"914 666 LINE SMOOTH",
"914 805 OFFCURVE",
"874 895 OFFCURVE",
"764 918 CURVE",
"898 962 OFFCURVE",
"938 1075 OFFCURVE",
"938 1267 CURVE SMOOTH",
"938 1564 OFFCURVE",
"888 1760 OFFCURVE",
"618 1760 CURVE SMOOTH",
"78 1760 LINE",
"78 485 LINE",
"434 485 LINE",
"434 803 LINE",
"527 803 OFFCURVE",
"567 792 OFFCURVE",
"567 689 CURVE SMOOTH",
"567 0 LINE"
);
},
{
closed = 1;
nodes = (
"504 120 LINE",
"464 120 OFFCURVE",
"434 138 OFFCURVE",
"434 252 CURVE SMOOTH",
"434 487 LINE",
"77 487 LINE",
"77 232 LINE SMOOTH",
"77 -50 OFFCURVE",
"259 -196 OFFCURVE",
"504 -196 CURVE"
);
},
{
closed = 1;
nodes = (
"436 1434 LINE",
"518 1434 LINE SMOOTH",
"577 1434 OFFCURVE",
"594 1404 OFFCURVE",
"594 1267 CURVE SMOOTH",
"594 1160 OFFCURVE",
"568 1108 OFFCURVE",
"521 1108 CURVE SMOOTH",
"436 1108 LINE"
);
}
);
};
layerId = "6CD1E358-6E98-409F-9A1F-EA9DE4C1A8AA";
paths = (
{
closed = 1;
nodes = (
"504 120 LINE",
"464 120 OFFCURVE",
"434 138 OFFCURVE",
"434 252 CURVE SMOOTH",
"434 803 LINE",
"527 803 OFFCURVE",
"567 792 OFFCURVE",
"567 689 CURVE SMOOTH",
"567 0 LINE",
"914 0 LINE",
"914 666 LINE SMOOTH",
"914 805 OFFCURVE",
"874 895 OFFCURVE",
"764 918 CURVE",
"898 962 OFFCURVE",
"938 1075 OFFCURVE",
"938 1267 CURVE SMOOTH",
"938 1564 OFFCURVE",
"888 1760 OFFCURVE",
"618 1760 CURVE SMOOTH",
"78 1760 LINE",
"78 232 LINE SMOOTH",
"78 -50 OFFCURVE",
"259 -196 OFFCURVE",
"504 -196 CURVE"
);
},
{
closed = 1;
nodes = (
"436 1434 LINE",
"518 1434 LINE SMOOTH",
"577 1434 OFFCURVE",
"594 1404 OFFCURVE",
"594 1267 CURVE SMOOTH",
"594 1160 OFFCURVE",
"568 1108 OFFCURVE",
"521 1108 CURVE SMOOTH",
"436 1108 LINE"
);
}
);
width = 976;
}
);
leftKerningGroup = H;
rightKerningGroup = R;
unicode = 2C64;
},
{
glyphname = S;
layers = (
{
anchors = (
{
name = bottom;
position = "{476, 0}";
},
{
name = top;
position = "{468, 1760}";
}
);
background = {
anchors = (
{
name = bot;
position = "{476, 0}";
},
{
name = top;
position = "{468, 1760}";
}
);
paths = (
{
closed = 1;
nodes = (
"798 -16 OFFCURVE",
"906 182 OFFCURVE",
"906 513 CURVE SMOOTH",
"906 758 OFFCURVE",
"802 877 OFFCURVE",
"681 994 CURVE SMOOTH",
"478 1189 LINE SMOOTH",
"399 1264 OFFCURVE",
"379 1319 OFFCURVE",
"379 1368 CURVE SMOOTH",
"379 1417 OFFCURVE",
"404 1452 OFFCURVE",
"460 1452 CURVE SMOOTH",
"506 1452 OFFCURVE",
"534 1424 OFFCURVE",
"535 1376 CURVE SMOOTH",
"537 1255 LINE",
"894 1255 LINE",
"894 1605 OFFCURVE",
"772 1776 OFFCURVE",
"449 1776 CURVE SMOOTH",
"185 1776 OFFCURVE",
"42 1615 OFFCURVE",
"42 1315 CURVE SMOOTH",
"42 1172 OFFCURVE",
"102 1049 OFFCURVE",
"219 933 CURVE SMOOTH",
"371 783 LINE SMOOTH",
"492 663 OFFCURVE",
"558 610 OFFCURVE",
"558 428 CURVE SMOOTH",
"558 342 OFFCURVE",
"537 308 OFFCURVE",
"473 308 CURVE SMOOTH",
"411 308 OFFCURVE",
"390 356 OFFCURVE",
"390 438 CURVE SMOOTH",
"390 658 LINE",
"42 658 LINE",
"42 486 LINE SMOOTH",
"42 136 OFFCURVE",
"174 -16 OFFCURVE",
"496 -16 CURVE SMOOTH"
);
}
);
};
layerId = "6CD1E358-6E98-409F-9A1F-EA9DE4C1A8AA";
paths = (
{
closed = 1;
nodes = (
"798 -16 OFFCURVE",
"906 182 OFFCURVE",
"906 513 CURVE SMOOTH",
"906 758 OFFCURVE",
"802 877 OFFCURVE",
"681 994 CURVE SMOOTH",
"478 1189 LINE SMOOTH",
"399 1264 OFFCURVE",
"379 1319 OFFCURVE",
"379 1368 CURVE SMOOTH",
"379 1417 OFFCURVE",
"404 1452 OFFCURVE",
"460 1452 CURVE SMOOTH",
"506 1452 OFFCURVE",
"536 1424 OFFCURVE",
"536 1376 CURVE SMOOTH",
"536 1255 LINE",
"894 1255 LINE",
"894 1605 OFFCURVE",
"772 1776 OFFCURVE",
"449 1776 CURVE SMOOTH",
"185 1776 OFFCURVE",
"42 1615 OFFCURVE",
"42 1315 CURVE SMOOTH",
"42 1172 OFFCURVE",
"99 1046 OFFCURVE",
"219 933 CURVE SMOOTH",
"377 783 LINE SMOOTH",
"517 650 OFFCURVE",
"558 590 OFFCURVE",
"558 428 CURVE SMOOTH",
"558 342 OFFCURVE",
"537 308 OFFCURVE",
"473 308 CURVE SMOOTH",
"411 308 OFFCURVE",
"390 356 OFFCURVE",
"390 438 CURVE SMOOTH",
"390 658 LINE",
"42 658 LINE",
"42 486 LINE SMOOTH",
"42 136 OFFCURVE",
"174 -16 OFFCURVE",
"496 -16 CURVE SMOOTH"
);
}
);
width = 945;
}
);
leftKerningGroup = S;
rightKerningGroup = S;
unicode = 0053;
userData = {
com.typemytype.robofont.layerData = {
};
};
},
{
glyphname = Saltillo;
layers = (
{
layerId = "6CD1E358-6E98-409F-9A1F-EA9DE4C1A8AA";
paths = (
{
closed = 1;
nodes = (
"343 479 LINE",
"413 1760 LINE",
"55 1760 LINE",
"125 479 LINE"
);
}
);
width = 469;
}
);
unicode = A78B;
},
{
glyphname = Scarondotaccent;
layers = (
{
components = (
{
name = S;
},
{
name = dotaccentcomb.case;
transform = "{1, 0, 0, 1, 470, 533}";
}
);
layerId = "6CD1E358-6E98-409F-9A1F-EA9DE4C1A8AA";
paths = (
{
closed = 1;
nodes = (
"618 1837 LINE",
"855 2092 LINE",
"570 2092 LINE",
"471 1956 LINE",
"372 2092 LINE",
"87 2092 LINE",
"324 1837 LINE"
);
}
);
width = 945;
}
);
leftKerningGroup = S;
rightKerningGroup = S;
unicode = 1E66;
},
{
glyphname = Germandbls;
layers = (
{
background = {
paths = (
{
closed = 1;
nodes = (
"408 0 LINE",
"408 1358 LINE SMOOTH",
"408 1433 OFFCURVE",
"444 1470 OFFCURVE",
"514 1470 CURVE SMOOTH",
"575 1470 OFFCURVE",
"637 1450 OFFCURVE",
"676 1418 CURVE",
"655 1560 LINE",
"474 1043 LINE",
"474 823 LINE",
"583 823 OFFCURVE",
"621 784 OFFCURVE",
"621 676 CURVE SMOOTH",
"621 399 LINE SMOOTH",
"621 320 OFFCURVE",
"573 281 OFFCURVE",
"478 281 CURVE",
"478 0 LINE",
"582 0 LINE SMOOTH",
"882 0 OFFCURVE",
"969 174 OFFCURVE",
"969 538 CURVE SMOOTH",
"969 865 OFFCURVE",
"923 1026 OFFCURVE",
"727 1053 CURVE",
"772 935 LINE",
"934 1404 LINE",
"934 1647 LINE",
"837 1716 OFFCURVE",
"690 1777 OFFCURVE",
"491 1777 CURVE SMOOTH",
"213 1777 OFFCURVE",
"58 1654 OFFCURVE",
"58 1403 CURVE SMOOTH",
"58 0 LINE"
);
}
);
};
layerId = "6CD1E358-6E98-409F-9A1F-EA9DE4C1A8AA";
paths = (
{
closed = 1;
nodes = (
"408 0 LINE",
"408 1358 LINE SMOOTH",
"408 1433 OFFCURVE",
"444 1470 OFFCURVE",
"514 1470 CURVE SMOOTH",
"575 1470 OFFCURVE",
"637 1450 OFFCURVE",
"676 1418 CURVE",
"655 1560 LINE",
"474 1043 LINE",
"474 823 LINE",
"583 823 OFFCURVE",
"621 784 OFFCURVE",
"621 676 CURVE SMOOTH",
"621 399 LINE SMOOTH",
"621 320 OFFCURVE",
"573 281 OFFCURVE",
"478 281 CURVE",
"478 0 LINE",
"582 0 LINE SMOOTH",
"882 0 OFFCURVE",
"969 174 OFFCURVE",
"969 538 CURVE SMOOTH",
"969 865 OFFCURVE",
"923 1026 OFFCURVE",
"727 1053 CURVE",
"772 935 LINE",
"934 1404 LINE",
"934 1647 LINE",
"837 1716 OFFCURVE",
"690 1777 OFFCURVE",
"491 1777 CURVE SMOOTH",
"213 1777 OFFCURVE",
"58 1654 OFFCURVE",
"58 1403 CURVE SMOOTH",
"58 0 LINE"
);
}
);
width = 1019;
},
{
associatedMasterId = "6CD1E358-6E98-409F-9A1F-EA9DE4C1A8AA";
layerId = "B1AC1EE3-C7F4-49F5-AC77-6FCE0C5BEB98";
name = "Condensed Jul 1 16, 12:16";
paths = (
{
closed = 1;
nodes = (
"474 745 CURVE",
"474 993 LINE",
"544 993 OFFCURVE",
"558 1044 OFFCURVE",
"558 1112 CURVE SMOOTH",
"558 1270 LINE SMOOTH",
"558 1321 OFFCURVE",
"533 1346 OFFCURVE",
"483 1346 CURVE SMOOTH",
"433 1346 OFFCURVE",
"408 1321 OFFCURVE",
"408 1270 CURVE SMOOTH",
"408 0 LINE",
"58 0 LINE",
"58 1229 LINE SMOOTH",
"58 1472 OFFCURVE",
"200 1593 OFFCURVE",
"483 1593 CURVE SMOOTH",
"742 1593 OFFCURVE",
"909 1490 OFFCURVE",
"909 1229 CURVE SMOOTH",
"909 1162 LINE SMOOTH",
"909 1022 OFFCURVE",
"867 922 OFFCURVE",
"759 887 CURVE",
"928 847 OFFCURVE",
"969 684 OFFCURVE",
"969 476 CURVE SMOOTH",
"969 177 OFFCURVE",
"882 0 OFFCURVE",
"582 0 CURVE SMOOTH",
"478 0 LINE",
"478 281 LINE",
"573 281 OFFCURVE",
"621 320 OFFCURVE",
"621 399 CURVE SMOOTH",
"621 598 LINE SMOOTH",
"621 706 OFFCURVE",
"583 745 OFFCURVE"
);
}
);
width = 600;
}
);
unicode = 1E9E;
},
{
glyphname = Sobliquestroke;
layers = (
{
components = (
{
name = S;
}
);
layerId = "6CD1E358-6E98-409F-9A1F-EA9DE4C1A8AA";
paths = (
{
closed = 1;
nodes = (
"875 930 LINE",
"875 1176 LINE",
"63 982 LINE",
"63 736 LINE"
);
}
);
width = 945;
}
);
leftKerningGroup = S;
rightKerningGroup = S;
unicode = A7A8;
},
{
glyphname = Schwa;
layers = (
{
background = {
paths = (
{
closed = 1;
nodes = (
"805 -16 OFFCURVE",
"932 171 OFFCURVE",
"932 512 CURVE SMOOTH",
"932 1324 LINE SMOOTH",
"932 1609 OFFCURVE",
"763 1776 OFFCURVE",
"508 1776 CURVE SMOOTH",
"228 1776 OFFCURVE",
"64 1644 OFFCURVE",
"64 1335 CURVE SMOOTH",
"64 1087 LINE",
"418 1087 LINE",
"418 1319 LINE SMOOTH",
"418 1398 OFFCURVE",
"440 1452 OFFCURVE",
"500 1452 CURVE SMOOTH",
"554 1452 OFFCURVE",
"583 1416 OFFCURVE",
"583 1319 CURVE SMOOTH",
"583 890 LINE",
"68 890 LINE",
"68 398 LINE SMOOTH",
"68 121 OFFCURVE",
"250 -16 OFFCURVE",
"500 -16 CURVE SMOOTH"
);
},
{
closed = 1;
nodes = (
"444 308 OFFCURVE",
"418 337 OFFCURVE",
"418 442 CURVE SMOOTH",
"418 614 LINE",
"583 614 LINE",
"583 438 LINE SMOOTH",
"583 360 OFFCURVE",
"565 308 OFFCURVE",
"500 308 CURVE SMOOTH"
);
}
);
};
layerId = "6CD1E358-6E98-409F-9A1F-EA9DE4C1A8AA";
paths = (
{
closed = 1;
nodes = (
"805 -16 OFFCURVE",
"932 171 OFFCURVE",
"932 512 CURVE SMOOTH",
"932 1324 LINE SMOOTH",
"932 1609 OFFCURVE",
"763 1776 OFFCURVE",
"508 1776 CURVE SMOOTH",
"228 1776 OFFCURVE",
"64 1644 OFFCURVE",
"64 1335 CURVE SMOOTH",
"64 1087 LINE",
"418 1087 LINE",
"418 1319 LINE SMOOTH",
"418 1398 OFFCURVE",
"440 1452 OFFCURVE",
"500 1452 CURVE SMOOTH",
"554 1452 OFFCURVE",
"583 1416 OFFCURVE",
"583 1319 CURVE SMOOTH",
"583 890 LINE",
"68 890 LINE",
"68 398 LINE SMOOTH",
"68 121 OFFCURVE",
"250 -16 OFFCURVE",
"500 -16 CURVE SMOOTH"
);
},
{
closed = 1;
nodes = (
"444 308 OFFCURVE",
"418 337 OFFCURVE",
"418 442 CURVE SMOOTH",
"418 620 LINE",
"583 620 LINE",
"583 438 LINE SMOOTH",
"583 360 OFFCURVE",
"565 308 OFFCURVE",
"500 308 CURVE SMOOTH"
);
}
);
width = 1000;
}
);
rightKerningGroup = O;
unicode = 018F;
},
{
glyphname = T;
layers = (
{
anchors = (
{
name = bottom;
position = "{405, 0}";
},
{
name = mid;
position = "{405, 883}";
},
{
name = top;
position = "{405, 1760}";
}
);
background = {
anchors = (
{
name = bot;
position = "{405, 0}";
},
{
name = mid;
position = "{405, 883}";
},
{
name = top;
position = "{405, 1760}";
}
);
paths = (
{
closed = 1;
nodes = (
"581 0 LINE",
"581 1422 LINE",
"790 1422 LINE",
"790 1760 LINE",
"20 1760 LINE",
"20 1422 LINE",
"229 1422 LINE",
"229 0 LINE"
);
}
);
};
layerId = "6CD1E358-6E98-409F-9A1F-EA9DE4C1A8AA";
paths = (
{
closed = 1;
nodes = (
"581 0 LINE",
"581 1422 LINE",
"790 1422 LINE",
"790 1760 LINE",
"20 1760 LINE",
"20 1422 LINE",
"229 1422 LINE",
"229 0 LINE"
);
}
);
width = 810;
}
);
leftKerningGroup = T;
rightKerningGroup = T;
unicode = 0054;
userData = {
com.typemytype.robofont.layerData = {
};
};
},
{
glyphname = Tbar;
layers = (
{
background = {
components = (
{
name = T;
},
{
name = macron;
transform = "{1, 0, 0, 1, -448, -827}";
}
);
};
layerId = "6CD1E358-6E98-409F-9A1F-EA9DE4C1A8AA";
paths = (
{
closed = 1;
nodes = (
"20 1760 LINE",
"20 1422 LINE",
"229 1422 LINE",
"229 985 LINE",
"77 985 LINE",
"77 752 LINE",
"229 752 LINE",
"229 0 LINE",
"581 0 LINE",
"581 752 LINE",
"727 752 LINE",
"727 985 LINE",
"581 985 LINE",
"581 1422 LINE",
"790 1422 LINE",
"790 1760 LINE"
);
}
);
width = 810;
}
);
leftKerningGroup = T;
rightKerningGroup = T;
unicode = 0166;
},
{
glyphname = Tdiagonalstroke;
layers = (
{
components = (
{
name = T;
}
);
layerId = "6CD1E358-6E98-409F-9A1F-EA9DE4C1A8AA";
paths = (
{
closed = 1;
nodes = (
"146 -186 LINE",
"366 666 LINE",
"226 666 LINE",
"6 -186 LINE"
);
},
{
closed = 1;
nodes = (
"635 1518 LINE",
"759 2000 LINE",
"619 2000 LINE",
"495 1518 LINE"
);
}
);
width = 810;
}
);
leftKerningGroup = T;
rightKerningGroup = T;
unicode = 023E;
},
{
glyphname = Thook;
layers = (
{
background = {
components = (
{
name = T;
transform = "{1, 0, 0, 1, 190, 0}";
}
);
};
layerId = "6CD1E358-6E98-409F-9A1F-EA9DE4C1A8AA";
paths = (
{
closed = 1;
nodes = (
"771 0 LINE",
"771 1422 LINE",
"980 1422 LINE",
"980 1760 LINE",
"416 1760 LINE SMOOTH",
"133 1760 OFFCURVE",
"-5 1573 OFFCURVE",
"-5 1312 CURVE SMOOTH",
"-5 1252 LINE",
"302 1252 LINE",
"302 1270 LINE SMOOTH",
"302 1376 OFFCURVE",
"338 1422 OFFCURVE",
"418 1422 CURVE SMOOTH",
"419 1422 LINE",
"419 0 LINE"
);
}
);
width = 1000;
}
);
rightKerningGroup = T;
unicode = 01AC;
},
{
glyphname = Tretroflexhook;
layers = (
{
layerId = "6CD1E358-6E98-409F-9A1F-EA9DE4C1A8AA";
paths = (
{
closed = 1;
nodes = (
"651 120 LINE",
"611 120 OFFCURVE",
"581 138 OFFCURVE",
"581 252 CURVE SMOOTH",
"581 1422 LINE",
"790 1422 LINE",
"790 1760 LINE",
"20 1760 LINE",
"20 1422 LINE",
"229 1422 LINE",
"229 232 LINE SMOOTH",
"229 -50 OFFCURVE",
"406 -196 OFFCURVE",
"651 -196 CURVE"
);
}
);
width = 810;
}
);
leftKerningGroup = T;
rightKerningGroup = T;
unicode = 01AE;
},
{
glyphname = U;
layers = (
{
anchors = (
{
name = bottom;
position = "{485, 0}";
},
{
name = ogonek;
position = "{507, 0}";
},
{
name = top;
position = "{485, 1760}";
},
{
name = top_case;
position = "{485, 1760}";
},
{
name = topright;
position = "{672, 1499}";
}
);
background = {
anchors = (
{
name = bottom;
position = "{485, 0}";
},
{
name = ogonek;
position = "{507, 0}";
},
{
name = top;
position = "{485, 1760}";
}
);
paths = (
{
closed = 1;
nodes = (
"778 -16 OFFCURVE",
"913 151 OFFCURVE",
"913 471 CURVE SMOOTH",
"913 1760 LINE",
"571 1760 LINE",
"571 485 LINE SMOOTH",
"571 396 OFFCURVE",
"566 308 OFFCURVE",
"485 308 CURVE SMOOTH",
"405 308 OFFCURVE",
"399 397 OFFCURVE",
"399 485 CURVE SMOOTH",
"399 1760 LINE",
"57 1760 LINE",
"57 471 LINE SMOOTH",
"57 151 OFFCURVE",
"192 -16 OFFCURVE",
"485 -16 CURVE SMOOTH"
);
}
);
};
layerId = "6CD1E358-6E98-409F-9A1F-EA9DE4C1A8AA";
paths = (
{
closed = 1;
nodes = (
"778 -16 OFFCURVE",
"913 151 OFFCURVE",
"913 471 CURVE SMOOTH",
"913 1760 LINE",
"571 1760 LINE",
"571 485 LINE SMOOTH",
"571 396 OFFCURVE",
"566 308 OFFCURVE",
"485 308 CURVE SMOOTH",
"405 308 OFFCURVE",
"399 397 OFFCURVE",
"399 485 CURVE SMOOTH",
"399 1760 LINE",
"57 1760 LINE",
"57 471 LINE SMOOTH",
"57 151 OFFCURVE",
"192 -16 OFFCURVE",
"485 -16 CURVE SMOOTH"
);
}
);
width = 970;
}
);
leftKerningGroup = U;
unicode = 0055;
userData = {
com.typemytype.robofont.layerData = {
};
};
},
{
glyphname = Ubar;
layers = (
{
components = (
{
name = U;
transform = "{1, 0, 0, 1, 35, 0}";
}
);
layerId = "6CD1E358-6E98-409F-9A1F-EA9DE4C1A8AA";
paths = (
{
closed = 1;
nodes = (
"1050 912 LINE",
"1050 1132 LINE",
"-10 1132 LINE",
"-10 912 LINE"
);
}
);
width = 1040;
}
);
unicode = 0244;
},
{
glyphname = Udieresiscaron;
layers = (
{
components = (
{
name = U;
},
{
name = dieresiscomb.case;
transform = "{1, 0, 0, 1, 485, 258}";
}
);
layerId = "6CD1E358-6E98-409F-9A1F-EA9DE4C1A8AA";
paths = (
{
closed = 1;
nodes = (
"632 2204 LINE",
"869 2459 LINE",
"584 2459 LINE",
"485 2323 LINE",
"386 2459 LINE",
"101 2459 LINE",
"338 2204 LINE"
);
}
);
width = 970;
}
);
leftKerningGroup = U;
unicode = 01D9;
},
{
glyphname = Uhorn;
layers = (
{
anchors = (
{
name = bottom;
position = "{485, 0}";
},
{
name = ogonek;
position = "{507, 0}";
},
{
name = top_case;
position = "{485, 1760}";
}
);
layerId = "6CD1E358-6E98-409F-9A1F-EA9DE4C1A8AA";
paths = (
{
closed = 1;
nodes = (
"778 -16 OFFCURVE",
"913 151 OFFCURVE",
"913 471 CURVE SMOOTH",
"913 1606 LINE",
"835 1556 LINE",
"983 1580 OFFCURVE",
"1093 1679 OFFCURVE",
"1093 1893 CURVE SMOOTH",
"1093 1908 LINE",
"815 1908 LINE",
"815 1885 LINE SMOOTH",
"815 1799 OFFCURVE",
"775 1760 OFFCURVE",
"700 1760 CURVE SMOOTH",
"571 1760 LINE",
"571 485 LINE SMOOTH",
"571 396 OFFCURVE",
"566 308 OFFCURVE",
"485 308 CURVE SMOOTH",
"405 308 OFFCURVE",
"399 397 OFFCURVE",
"399 485 CURVE SMOOTH",
"399 1760 LINE",
"57 1760 LINE",
"57 471 LINE SMOOTH",
"57 151 OFFCURVE",
"192 -16 OFFCURVE",
"485 -16 CURVE SMOOTH"
);
}
);
width = 1083;
},
{
anchors = (
{
name = _topright;
position = "{672, 1499}";
},
{
name = bottom;
position = "{485, 0}";
},
{
name = ogonek;
position = "{507, 0}";
},
{
name = top;
position = "{485, 1760}";
},
{
name = topright;
position = "{672, 1499}";
}
);
associatedMasterId = "6CD1E358-6E98-409F-9A1F-EA9DE4C1A8AA";
layerId = "6CF3DF08-681F-4F99-9B24-F8A4C46A3D77";
name = "Regular Jul 24 16, 23:53";
paths = (
{
closed = 1;
nodes = (
"778 -16 OFFCURVE",
"913 151 OFFCURVE",
"913 471 CURVE SMOOTH",
"913 1760 LINE",
"571 1760 LINE",
"571 485 LINE SMOOTH",
"571 396 OFFCURVE",
"566 308 OFFCURVE",
"485 308 CURVE SMOOTH",
"405 308 OFFCURVE",
"399 397 OFFCURVE",
"399 485 CURVE SMOOTH",
"399 1760 LINE",
"57 1760 LINE",
"57 471 LINE SMOOTH",
"57 151 OFFCURVE",
"192 -16 OFFCURVE",
"485 -16 CURVE SMOOTH"
);
},
{
closed = 1;
nodes = (
"993 1550 OFFCURVE",
"1143 1643 OFFCURVE",
"1143 1893 CURVE SMOOTH",
"1143 1908 LINE",
"865 1907 LINE",
"865 1885 LINE SMOOTH",
"865 1799 OFFCURVE",
"825 1760 OFFCURVE",
"750 1760 CURVE SMOOTH",
"673 1760 LINE",
"673 1571 LINE",
"713 1557 OFFCURVE",
"754 1550 OFFCURVE",
"808 1550 CURVE"
);
}
);
width = 970;
}
);
leftKerningGroup = U;
rightKerningGroup = Uhook;
unicode = 01AF;
},
{
glyphname = Uhorntilde;
layers = (
{
background = {
components = (
{
name = Uhorn;
},
{
name = tildecomb.case;
transform = "{1, 0, 0, 1, 485, 260}";
}
);
};
components = (
{
name = Uhorn;
}
);
layerId = "6CD1E358-6E98-409F-9A1F-EA9DE4C1A8AA";
paths = (
{
closed = 1;
nodes = (
"750 1841 OFFCURVE",
"799 1957 OFFCURVE",
"848 2082 CURVE",
"682 2136 LINE",
"655 2081 OFFCURVE",
"625 2061 OFFCURVE",
"589 2061 CURVE SMOOTH",
"513 2061 OFFCURVE",
"461 2145 OFFCURVE",
"319 2145 CURVE SMOOTH",
"176 2145 OFFCURVE",
"121 2052 OFFCURVE",
"72 1942 CURVE",
"220 1864 LINE",
"246 1915 OFFCURVE",
"277 1932 OFFCURVE",
"312 1932 CURVE SMOOTH",
"393 1932 OFFCURVE",
"451 1841 OFFCURVE",
"600 1841 CURVE SMOOTH"
);
}
);
width = 1083;
}
);
leftKerningGroup = U;
rightKerningGroup = Uhook;
unicode = 1EEE;
},
{
glyphname = Upsilonafrican;
layers = (
{
layerId = "6CD1E358-6E98-409F-9A1F-EA9DE4C1A8AA";
paths = (
{
closed = 1;
nodes = (
"774 -16 OFFCURVE",
"920 129 OFFCURVE",
"920 402 CURVE SMOOTH",
"920 958 LINE SMOOTH",
"920 1169 OFFCURVE",
"888 1323 OFFCURVE",
"823 1422 CURVE",
"945 1422 LINE",
"945 1760 LINE",
"529 1760 LINE",
"529 1421 LINE",
"573 1386 OFFCURVE",
"581 1347 OFFCURVE",
"581 1087 CURVE SMOOTH",
"581 380 LINE SMOOTH",
"581 310 OFFCURVE",
"565 256 OFFCURVE",
"496 256 CURVE SMOOTH",
"427 256 OFFCURVE",
"411 310 OFFCURVE",
"411 380 CURVE SMOOTH",
"411 1087 LINE SMOOTH",
"411 1347 OFFCURVE",
"419 1386 OFFCURVE",
"463 1421 CURVE",
"463 1760 LINE",
"47 1760 LINE",
"47 1422 LINE",
"169 1422 LINE",
"104 1323 OFFCURVE",
"72 1169 OFFCURVE",
"72 958 CURVE SMOOTH",
"72 402 LINE SMOOTH",
"72 129 OFFCURVE",
"218 -16 OFFCURVE",
"496 -16 CURVE SMOOTH"
);
}
);
width = 992;
}
);
unicode = 01B1;
},
{
glyphname = V;
layers = (
{
anchors = (
{
name = bottom;
position = "{481, 0}";
},
{
name = top;
position = "{481, 1760}";
}
);
background = {
anchors = (
{
name = bottom;
position = "{481, 0}";
},
{
name = top;
position = "{481, 1760}";
}
);
paths = (
{
closed = 1;
nodes = (
"720 0 LINE",
"937 1761 LINE",
"602 1761 LINE",
"487 563 LINE",
"358 1761 LINE",
"23 1761 LINE",
"240 0 LINE"
);
}
);
};
layerId = "6CD1E358-6E98-409F-9A1F-EA9DE4C1A8AA";
paths = (
{
closed = 1;
nodes = (
"720 0 LINE",
"937 1761 LINE",
"602 1761 LINE",
"487 563 LINE",
"358 1761 LINE",
"23 1761 LINE",
"240 0 LINE"
);
}
);
width = 961;
}
);
leftKerningGroup = V;
rightKerningGroup = V;
unicode = 0056;
userData = {
com.typemytype.robofont.layerData = {
};
};
},
{
glyphname = Gammaafrican;
layers = (
{
background = {
paths = (
{
closed = 1;
nodes = (
"480 102 LINE",
"431 102 OFFCURVE",
"406 142 OFFCURVE",
"406 193 CURVE SMOOTH",
"406 295 OFFCURVE",
"433 376 OFFCURVE",
"491 544 CURVE SMOOTH",
"546 701 LINE",
"644 689 LINE",
"937 1761 LINE",
"599 1761 LINE",
"469 1129 LINE",
"346 1060 LINE",
"202 638 LINE SMOOTH",
"148 476 OFFCURVE",
"99 317 OFFCURVE",
"99 189 CURVE SMOOTH",
"99 -32 OFFCURVE",
"236 -196 OFFCURVE",
"480 -196 CURVE"
);
},
{
closed = 1;
nodes = (
"724 -196 OFFCURVE",
"861 -32 OFFCURVE",
"861 189 CURVE SMOOTH",
"861 317 OFFCURVE",
"827 478 OFFCURVE",
"769 638 CURVE SMOOTH",
"614 1060 LINE",
"491 1129 LINE",
"361 1761 LINE",
"23 1761 LINE",
"316 689 LINE",
"414 701 LINE",
"469 544 LINE SMOOTH",
"527 376 OFFCURVE",
"554 295 OFFCURVE",
"554 193 CURVE SMOOTH",
"554 142 OFFCURVE",
"529 102 OFFCURVE",
"480 102 CURVE",
"480 -196 LINE"
);
}
);
};
layerId = "6CD1E358-6E98-409F-9A1F-EA9DE4C1A8AA";
paths = (
{
closed = 1;
nodes = (
"724 -196 OFFCURVE",
"861 -32 OFFCURVE",
"861 189 CURVE SMOOTH",
"861 317 OFFCURVE",
"830 478 OFFCURVE",
"770 638 CURVE SMOOTH",
"689 855 LINE",
"937 1761 LINE",
"599 1761 LINE",
"471 1138 LINE",
"489 1138 LINE",
"361 1761 LINE",
"23 1761 LINE",
"273 846 LINE",
"201 638 LINE SMOOTH",
"145 477 OFFCURVE",
"99 317 OFFCURVE",
"99 189 CURVE SMOOTH",
"99 -32 OFFCURVE",
"236 -196 OFFCURVE",
"480 -196 CURVE SMOOTH"
);
},
{
closed = 1;
nodes = (
"431 102 OFFCURVE",
"406 142 OFFCURVE",
"406 193 CURVE SMOOTH",
"406 297 OFFCURVE",
"435 379 OFFCURVE",
"497 554 CURVE",
"463 554 LINE",
"525 379 OFFCURVE",
"554 297 OFFCURVE",
"554 193 CURVE SMOOTH",
"554 142 OFFCURVE",
"529 102 OFFCURVE",
"480 102 CURVE SMOOTH"
);
}
);
width = 961;
}
);
unicode = 0194;
},
{
glyphname = Vhook;
layers = (
{
background = {
anchors = (
{
name = bottom;
position = "{479, 0}";
},
{
name = top;
position = "{479, 1760}";
}
);
paths = (
{
closed = 1;
nodes = (
"718 0 LINE",
"935 1761 LINE",
"600 1761 LINE",
"485 563 LINE",
"356 1761 LINE",
"21 1761 LINE",
"238 0 LINE"
);
}
);
};
layerId = "6CD1E358-6E98-409F-9A1F-EA9DE4C1A8AA";
paths = (
{
closed = 1;
nodes = (
"717 0 LINE",
"879 1306 LINE SMOOTH",
"884 1347 OFFCURVE",
"887 1386 OFFCURVE",
"887 1421 CURVE SMOOTH",
"887 1664 OFFCURVE",
"762 1762 OFFCURVE",
"501 1762 CURVE",
"501 1461 LINE",
"546 1461 OFFCURVE",
"565 1440 OFFCURVE",
"565 1390 CURVE SMOOTH",
"565 1383 OFFCURVE",
"565 1375 OFFCURVE",
"564 1367 CURVE SMOOTH",
"485 560 LINE",
"357 1749 LINE",
"23 1749 LINE",
"239 0 LINE"
);
}
);
width = 911;
}
);
leftKerningGroup = V;
unicode = 01B2;
},
{
glyphname = Vturned;
layers = (
{
layerId = "6CD1E358-6E98-409F-9A1F-EA9DE4C1A8AA";
paths = (
{
closed = 1;
nodes = (
"241 1760 LINE",
"24 -1 LINE",
"359 -1 LINE",
"474 1197 LINE",
"603 -1 LINE",
"938 -1 LINE",
"721 1760 LINE"
);
}
);
width = 961;
}
);
leftKerningGroup = A;
rightKerningGroup = A;
unicode = 0245;
},
{
glyphname = W;
layers = (
{
anchors = (
{
name = bottom;
position = "{729, 0}";
},
{
name = top;
position = "{743, 1760}";
}
);
background = {
anchors = (
{
name = top;
position = "{743, 1760}";
}
);
paths = (
{
closed = 1;
nodes = (
"645 0 LINE",
"729 847 LINE",
"817 0 LINE",
"1239 0 LINE",
"1431 1760 LINE",
"1083 1760 LINE",
"989 649 LINE",
"895 1760 LINE",
"567 1760 LINE",
"468 649 LINE",
"371 1760 LINE",
"27 1760 LINE",
"216 0 LINE"
);
}
);
};
layerId = "6CD1E358-6E98-409F-9A1F-EA9DE4C1A8AA";
paths = (
{
closed = 1;
nodes = (
"645 0 LINE",
"729 847 LINE",
"817 0 LINE",
"1239 0 LINE",
"1431 1760 LINE",
"1083 1760 LINE",
"989 649 LINE",
"895 1760 LINE",
"567 1760 LINE",
"468 649 LINE",
"371 1760 LINE",
"27 1760 LINE",
"216 0 LINE"
);
}
);
width = 1458;
}
);
leftKerningGroup = W;
rightKerningGroup = W;
unicode = 0057;
userData = {
com.typemytype.robofont.layerData = {
};
};
},
{
glyphname = Whook;
layers = (
{
background = {
anchors = (
{
name = bottom;
position = "{729, 0}";
},
{
name = top;
position = "{743, 1760}";
}
);
paths = (
{
closed = 1;
nodes = (
"645 0 LINE",
"729 847 LINE",
"817 0 LINE",
"1239 0 LINE",
"1431 1760 LINE",
"1083 1760 LINE",
"989 649 LINE",
"895 1760 LINE",
"567 1760 LINE",
"468 649 LINE",
"371 1760 LINE",
"27 1760 LINE",
"216 0 LINE"
);
}
);
};
layerId = "6CD1E358-6E98-409F-9A1F-EA9DE4C1A8AA";
paths = (
{
closed = 1;
nodes = (
"646 0 LINE",
"730 846 LINE",
"819 0 LINE",
"1242 0 LINE",
"1385 1315 LINE SMOOTH",
"1397 1423 OFFCURVE",
"1412 1471 OFFCURVE",
"1505 1471 CURVE",
"1505 1775 LINE",
"1203 1775 OFFCURVE",
"1077 1666 OFFCURVE",
"1056 1417 CURVE SMOOTH",
"992 647 LINE",
"897 1760 LINE",
"568 1760 LINE",
"469 647 LINE",
"371 1760 LINE",
"26 1760 LINE",
"215 0 LINE"
);
}
);
width = 1495;
}
);
leftKerningGroup = W;
rightKerningGroup = Whook;
unicode = 2C72;
},
{
glyphname = X;
layers = (
{
anchors = (
{
name = bottom;
position = "{496, 0}";
},
{
name = top;
position = "{496, 1760}";
}
);
background = {
anchors = (
{
name = bottom;
position = "{496, 0}";
},
{
name = top;
position = "{496, 1760}";
}
);
paths = (
{
closed = 1;
nodes = (
"384 0 LINE",
"498 688 LINE",
"609 0 LINE",
"965 0 LINE",
"777 933 LINE",
"927 1761 LINE",
"582 1761 LINE",
"501 1156 LINE",
"410 1761 LINE",
"66 1761 LINE",
"216 933 LINE",
"27 0 LINE"
);
}
);
};
layerId = "6CD1E358-6E98-409F-9A1F-EA9DE4C1A8AA";
paths = (
{
closed = 1;
nodes = (
"384 0 LINE",
"498 688 LINE",
"609 0 LINE",
"965 0 LINE",
"777 933 LINE",
"927 1761 LINE",
"582 1761 LINE",
"501 1156 LINE",
"410 1761 LINE",
"66 1761 LINE",
"216 933 LINE",
"27 0 LINE"
);
}
);
width = 991;
}
);
leftKerningGroup = X;
rightKerningGroup = X;
unicode = 0058;
userData = {
com.typemytype.robofont.layerData = {
};
};
},
{
glyphname = Y;
layers = (
{
anchors = (
{
name = bottom;
position = "{457, 0}";
},
{
name = top_case;
position = "{456, 1760}";
}
);
background = {
anchors = (
{
name = bottom;
position = "{457, 0}";
},
{
name = top;
position = "{456, 1760}";
}
);
paths = (
{
closed = 1;
nodes = (
"623 0 LINE",
"623 579 LINE",
"903 1760 LINE",
"555 1760 LINE",
"457 1164 LINE",
"359 1760 LINE",
"10 1760 LINE",
"291 579 LINE",
"291 0 LINE"
);
}
);
};
layerId = "6CD1E358-6E98-409F-9A1F-EA9DE4C1A8AA";
paths = (
{
closed = 1;
nodes = (
"623 0 LINE",
"623 579 LINE",
"903 1760 LINE",
"555 1760 LINE",
"457 1164 LINE",
"359 1760 LINE",
"10 1760 LINE",
"291 579 LINE",
"291 0 LINE"
);
}
);
width = 914;
}
);
leftKerningGroup = Y;
rightKerningGroup = Y;
unicode = 0059;
userData = {
com.typemytype.robofont.layerData = {
};
};
},
{
glyphname = Yhook;
layers = (
{
background = {
anchors = (
{
name = bottom;
position = "{457, 0}";
},
{
name = top_case;
position = "{456, 1760}";
}
);
paths = (
{
closed = 1;
nodes = (
"623 0 LINE",
"623 579 LINE",
"903 1760 LINE",
"555 1760 LINE",
"457 1164 LINE",
"359 1760 LINE",
"10 1760 LINE",
"291 579 LINE",
"291 0 LINE"
);
}
);
};
layerId = "6CD1E358-6E98-409F-9A1F-EA9DE4C1A8AA";
paths = (
{
closed = 1;
nodes = (
"623 0 LINE",
"623 589 LINE",
"798 1319 LINE SMOOTH",
"824 1426 OFFCURVE",
"852 1473 OFFCURVE",
"944 1473 CURVE",
"944 1774 LINE",
"645 1774 OFFCURVE",
"540 1666 OFFCURVE",
"499 1420 CURVE SMOOTH",
"457 1165 LINE",
"359 1760 LINE",
"10 1760 LINE",
"289 589 LINE",
"289 0 LINE"
);
}
);
width = 934;
}
);
leftKerningGroup = Y;
rightKerningGroup = Yhook;
unicode = 01B3;
},
{
glyphname = Ystroke;
layers = (
{
components = (
{
name = Y;
}
);
layerId = "6CD1E358-6E98-409F-9A1F-EA9DE4C1A8AA";
paths = (
{
closed = 1;
nodes = (
"418 1086 LINE",
"373 1306 LINE",
"16 1306 LINE",
"16 1086 LINE"
);
},
{
closed = 1;
nodes = (
"897 1086 LINE",
"897 1306 LINE",
"570 1306 LINE",
"514 1086 LINE"
);
}
);
width = 913;
}
);
unicode = 024E;
},
{
glyphname = Z;
layers = (
{
anchors = (
{
name = bottom;
position = "{420, 0}";
},
{
name = top;
position = "{439, 1760}";
}
);
background = {
anchors = (
{
name = bottom;
position = "{420, 0}";
},
{
name = top;
position = "{439, 1760}";
}
);
paths = (
{
closed = 1;
nodes = (
"789 0 LINE",
"789 324 LINE",
"396 324 LINE",
"806 1452 LINE",
"806 1760 LINE",
"71 1760 LINE",
"71 1436 LINE",
"435 1436 LINE",
"32 320 LINE",
"32 0 LINE"
);
}
);
};
layerId = "6CD1E358-6E98-409F-9A1F-EA9DE4C1A8AA";
paths = (
{
closed = 1;
nodes = (
"789 0 LINE",
"789 324 LINE",
"396 324 LINE",
"806 1452 LINE",
"806 1760 LINE",
"71 1760 LINE",
"71 1436 LINE",
"435 1436 LINE",
"32 320 LINE",
"32 0 LINE"
);
}
);
width = 840;
}
);
leftKerningGroup = Z;
rightKerningGroup = Z;
unicode = 005A;
userData = {
com.typemytype.robofont.layerData = {
};
};
},
{
glyphname = Zstroke;
layers = (
{
components = (
{
name = Z;
}
);
layerId = "6CD1E358-6E98-409F-9A1F-EA9DE4C1A8AA";
paths = (
{
closed = 1;
nodes = (
"755 782 LINE",
"755 1014 LINE",
"95 1014 LINE",
"95 782 LINE"
);
}
);
width = 840;
}
);
leftKerningGroup = Z;
rightKerningGroup = Z;
unicode = 01B5;
},
{
glyphname = Ismall;
layers = (
{
layerId = "6CD1E358-6E98-409F-9A1F-EA9DE4C1A8AA";
paths = (
{
closed = 1;
nodes = (
"583 0 LINE",
"583 273 LINE",
"482 273 LINE",
"482 1227 LINE",
"583 1227 LINE",
"583 1500 LINE",
"33 1500 LINE",
"33 1227 LINE",
"134 1227 LINE",
"134 273 LINE",
"33 273 LINE",
"33 0 LINE"
);
}
);
width = 616;
}
);
unicode = 026A;
},
{
glyphname = a;
layers = (
{
anchors = (
{
name = bottom;
position = "{494, 0}";
},
{
name = ogonek;
position = "{755, 0}";
},
{
name = top;
position = "{503, 1516}";
},
{
name = top_case;
position = "{503, 1500}";
}
);
background = {
anchors = (
{
name = bottom;
position = "{494, 0}";
},
{
name = ogonek;
position = "{755, 0}";
},
{
name = top;
position = "{503, 1500}";
}
);
paths = (
{
closed = 1;
nodes = (
"448 -16 OFFCURVE",
"533 53 OFFCURVE",
"568 178 CURVE",
"568 0 LINE",
"924 0 LINE",
"924 1143 LINE SMOOTH",
"924 1387 OFFCURVE",
"743 1516 OFFCURVE",
"503 1516 CURVE SMOOTH",
"197 1516 OFFCURVE",
"63 1403 OFFCURVE",
"63 1105 CURVE SMOOTH",
"63 1084 OFFCURVE",
"63 1067 OFFCURVE",
"64 1056 CURVE",
"412 1056 LINE",
"412 1146 LINE SMOOTH",
"412 1201 OFFCURVE",
"433 1243 OFFCURVE",
"498 1239 CURVE SMOOTH",
"543 1236 OFFCURVE",
"563 1213 OFFCURVE",
"563 1123 CURVE SMOOTH",
"563 1102 OFFCURVE",
"563 998 OFFCURVE",
"563 972 CURVE SMOOTH",
"563 969 LINE",
"227 854 OFFCURVE",
"41 839 OFFCURVE",
"41 430 CURVE SMOOTH",
"41 174 OFFCURVE",
"95 -16 OFFCURVE",
"345 -16 CURVE SMOOTH"
);
},
{
closed = 1;
nodes = (
"433 262 OFFCURVE",
"406 306 OFFCURVE",
"406 395 CURVE SMOOTH",
"406 588 LINE SMOOTH",
"406 705 OFFCURVE",
"463 757 OFFCURVE",
"562 797 CURVE",
"562 379 LINE SMOOTH",
"562 322 OFFCURVE",
"544 262 OFFCURVE",
"486 262 CURVE SMOOTH"
);
}
);
};
layerId = "6CD1E358-6E98-409F-9A1F-EA9DE4C1A8AA";
paths = (
{
closed = 1;
nodes = (
"448 -16 OFFCURVE",
"533 53 OFFCURVE",
"568 178 CURVE",
"568 0 LINE",
"924 0 LINE",
"924 1143 LINE SMOOTH",
"924 1387 OFFCURVE",
"743 1516 OFFCURVE",
"503 1516 CURVE SMOOTH",
"197 1516 OFFCURVE",
"63 1403 OFFCURVE",
"63 1105 CURVE SMOOTH",
"63 1084 OFFCURVE",
"63 1067 OFFCURVE",
"64 1056 CURVE",
"412 1056 LINE",
"412 1146 LINE SMOOTH",
"412 1210 OFFCURVE",
"438 1244 OFFCURVE",
"484 1244 CURVE SMOOTH",
"533 1244 OFFCURVE",
"563 1206 OFFCURVE",
"563 1123 CURVE SMOOTH",
"563 1102 OFFCURVE",
"563 998 OFFCURVE",
"563 972 CURVE SMOOTH",
"563 969 LINE",
"341 893 LINE SMOOTH",
"111 814 OFFCURVE",
"41 703 OFFCURVE",
"41 430 CURVE SMOOTH",
"41 174 OFFCURVE",
"95 -16 OFFCURVE",
"345 -16 CURVE SMOOTH"
);
},
{
closed = 1;
nodes = (
"433 262 OFFCURVE",
"406 306 OFFCURVE",
"406 395 CURVE SMOOTH",
"406 588 LINE SMOOTH",
"406 705 OFFCURVE",
"463 757 OFFCURVE",
"562 797 CURVE",
"562 379 LINE SMOOTH",
"562 322 OFFCURVE",
"544 262 OFFCURVE",
"486 262 CURVE SMOOTH"
);
}
);
width = 990;
}
);
leftKerningGroup = a;
rightKerningGroup = a;
unicode = 0061;
userData = {
com.typemytype.robofont.layerData = {
};
};
},
{
glyphname = "alpha-latin";
layers = (
{
background = {
paths = (
{
closed = 0;
nodes = (
"948 0 LINE",
"948 1500 LINE",
"590 1500 LINE",
"590 1341 LINE",
"550 1449 OFFCURVE",
"492 1516 OFFCURVE",
"367 1516 CURVE SMOOTH",
"90 1516 OFFCURVE",
"60 1299 OFFCURVE",
"60 1023 CURVE SMOOTH",
"60 477 LINE SMOOTH",
"60 201 OFFCURVE",
"90 -16 OFFCURVE",
"367 -16 CURVE SMOOTH",
"492 -16 OFFCURVE",
"550 51 OFFCURVE",
"590 159 CURVE"
);
},
{
closed = 1;
nodes = (
"418 1173 OFFCURVE",
"447 1236 OFFCURVE",
"504 1236 CURVE SMOOTH",
"602 1236 OFFCURVE",
"590 1078 OFFCURVE",
"590 980 CURVE SMOOTH",
"590 520 LINE SMOOTH",
"590 422 OFFCURVE",
"602 264 OFFCURVE",
"504 264 CURVE SMOOTH",
"447 264 OFFCURVE",
"418 327 OFFCURVE",
"418 452 CURVE SMOOTH",
"418 1048 LINE SMOOTH"
);
},
{
closed = 0;
nodes = (
"539 412 LINE",
"539 130 OFFCURVE",
"714 -16 OFFCURVE",
"1028 -16 CURVE",
"1028 300 LINE",
"978 300 OFFCURVE",
"948 318 OFFCURVE",
"948 432 CURVE SMOOTH"
);
}
);
};
layerId = "6CD1E358-6E98-409F-9A1F-EA9DE4C1A8AA";
paths = (
{
closed = 1;
nodes = (
"537 -16 OFFCURVE",
"602 93 OFFCURVE",
"642 201 CURVE",
"587 192 LINE",
"659 54 OFFCURVE",
"810 -16 OFFCURVE",
"1028 -16 CURVE",
"1028 300 LINE",
"978 300 OFFCURVE",
"948 318 OFFCURVE",
"948 432 CURVE SMOOTH",
"948 1500 LINE",
"590 1500 LINE",
"590 1341 LINE",
"550 1449 OFFCURVE",
"492 1516 OFFCURVE",
"367 1516 CURVE SMOOTH",
"90 1516 OFFCURVE",
"60 1299 OFFCURVE",
"60 1023 CURVE SMOOTH",
"60 477 LINE SMOOTH",
"60 201 OFFCURVE",
"90 -16 OFFCURVE",
"367 -16 CURVE SMOOTH"
);
},
{
closed = 1;
nodes = (
"447 264 OFFCURVE",
"418 327 OFFCURVE",
"418 452 CURVE SMOOTH",
"418 1058 LINE SMOOTH",
"418 1183 OFFCURVE",
"447 1236 OFFCURVE",
"504 1236 CURVE SMOOTH",
"562 1236 OFFCURVE",
"590 1183 OFFCURVE",
"590 1060 CURVE SMOOTH",
"590 452 LINE SMOOTH",
"590 327 OFFCURVE",
"567 264 OFFCURVE",
"504 264 CURVE SMOOTH"
);
}
);
width = 1028;
}
);
leftKerningGroup = o;
unicode = 0251;
},
{
glyphname = astroke;
layers = (
{
components = (
{
name = a;
}
);
guideLines = (
{
angle = 75.4524;
position = "{320, 117}";
}
);
layerId = "6CD1E358-6E98-409F-9A1F-EA9DE4C1A8AA";
paths = (
{
closed = 1;
nodes = (
"241 -186 LINE",
"398 419 LINE",
"258 419 LINE",
"101 -186 LINE"
);
},
{
closed = 1;
nodes = (
"649 1376 LINE",
"746 1760 LINE",
"606 1760 LINE",
"509 1376 LINE"
);
}
);
width = 990;
}
);
leftKerningGroup = a;
rightKerningGroup = a;
unicode = 2C65;
},
{
glyphname = ae;
layers = (
{
anchors = (
{
name = top;
position = "{748, 1500}";
}
);
background = {
anchors = (
{
name = top;
position = "{769, 1500}";
}
);
paths = (
{
closed = 1;
nodes = (
"598 -18 OFFCURVE",
"702 51 OFFCURVE",
"748 148 CURVE",
"789 53 OFFCURVE",
"896 -18 OFFCURVE",
"1036 -18 CURVE SMOOTH",
"1358 -18 OFFCURVE",
"1446 172 OFFCURVE",
"1446 494 CURVE SMOOTH",
"1446 579 LINE",
"1090 579 LINE",
"1091 574 OFFCURVE",
"1092 542 OFFCURVE",
"1092 483 CURVE SMOOTH",
"1092 394 OFFCURVE",
"1094 260 OFFCURVE",
"1008 260 CURVE SMOOTH",
"950 260 OFFCURVE",
"921 338 OFFCURVE",
"921 494 CURVE SMOOTH",
"921 704 LINE",
"1442 704 LINE",
"1445 755 OFFCURVE",
"1446 848 OFFCURVE",
"1446 983 CURVE SMOOTH",
"1446 1092 LINE SMOOTH",
"1446 1376 OFFCURVE",
"1302 1518 OFFCURVE",
"1014 1518 CURVE SMOOTH",
"889 1518 OFFCURVE",
"800 1477 OFFCURVE",
"747 1396 CURVE",
"692 1477 OFFCURVE",
"610 1518 OFFCURVE",
"501 1518 CURVE SMOOTH",
"195 1518 OFFCURVE",
"60 1403 OFFCURVE",
"60 1105 CURVE SMOOTH",
"60 1084 OFFCURVE",
"60 1067 OFFCURVE",
"61 1056 CURVE",
"409 1056 LINE",
"409 1157 LINE SMOOTH",
"409 1212 OFFCURVE",
"434 1239 OFFCURVE",
"483 1239 CURVE SMOOTH",
"578 1239 OFFCURVE",
"560 1079 OFFCURVE",
"560 983 CURVE SMOOTH",
"560 980 LINE",
"224 865 OFFCURVE",
"38 839 OFFCURVE",
"38 430 CURVE SMOOTH",
"38 154 OFFCURVE",
"182 -18 OFFCURVE",
"449 -18 CURVE SMOOTH"
);
},
{
closed = 1;
nodes = (
"430 262 OFFCURVE",
"403 306 OFFCURVE",
"403 395 CURVE SMOOTH",
"403 570 LINE SMOOTH",
"403 687 OFFCURVE",
"460 734 OFFCURVE",
"559 774 CURVE",
"559 379 LINE SMOOTH",
"559 322 OFFCURVE",
"541 262 OFFCURVE",
"483 262 CURVE SMOOTH"
);
},
{
closed = 1;
nodes = (
"921 1052 LINE SMOOTH",
"921 1167 OFFCURVE",
"921 1249 OFFCURVE",
"1010 1249 CURVE SMOOTH",
"1063 1249 OFFCURVE",
"1090 1195 OFFCURVE",
"1090 1087 CURVE SMOOTH",
"1090 931 LINE",
"921 931 LINE"
);
}
);
};
layerId = "6CD1E358-6E98-409F-9A1F-EA9DE4C1A8AA";
paths = (
{
closed = 1;
nodes = (
"598 -18 OFFCURVE",
"702 51 OFFCURVE",
"748 148 CURVE",
"789 53 OFFCURVE",
"896 -18 OFFCURVE",
"1036 -18 CURVE SMOOTH",
"1358 -18 OFFCURVE",
"1446 172 OFFCURVE",
"1446 494 CURVE SMOOTH",
"1446 579 LINE",
"1090 579 LINE",
"1090 453 LINE SMOOTH",
"1090 305 OFFCURVE",
"1071 260 OFFCURVE",
"1012 260 CURVE SMOOTH",
"946 260 OFFCURVE",
"921 328 OFFCURVE",
"921 494 CURVE SMOOTH",
"921 704 LINE",
"1442 704 LINE",
"1445 755 OFFCURVE",
"1446 848 OFFCURVE",
"1446 983 CURVE SMOOTH",
"1446 1092 LINE SMOOTH",
"1446 1376 OFFCURVE",
"1302 1518 OFFCURVE",
"1044 1518 CURVE SMOOTH",
"889 1518 OFFCURVE",
"800 1477 OFFCURVE",
"747 1396 CURVE",
"692 1477 OFFCURVE",
"610 1518 OFFCURVE",
"441 1518 CURVE SMOOTH",
"195 1518 OFFCURVE",
"60 1403 OFFCURVE",
"60 1105 CURVE SMOOTH",
"60 1084 OFFCURVE",
"60 1067 OFFCURVE",
"61 1056 CURVE",
"409 1056 LINE",
"409 1157 LINE SMOOTH",
"409 1212 OFFCURVE",
"434 1239 OFFCURVE",
"483 1239 CURVE SMOOTH",
"538 1239 OFFCURVE",
"560 1192 OFFCURVE",
"560 1083 CURVE SMOOTH",
"560 980 LINE",
"380 919 LINE SMOOTH",
"157 843 OFFCURVE",
"38 759 OFFCURVE",
"38 430 CURVE SMOOTH",
"38 154 OFFCURVE",
"182 -18 OFFCURVE",
"449 -18 CURVE SMOOTH"
);
},
{
closed = 1;
nodes = (
"430 262 OFFCURVE",
"403 306 OFFCURVE",
"403 395 CURVE SMOOTH",
"403 570 LINE SMOOTH",
"403 687 OFFCURVE",
"460 734 OFFCURVE",
"559 774 CURVE",
"559 379 LINE SMOOTH",
"559 322 OFFCURVE",
"541 262 OFFCURVE",
"483 262 CURVE SMOOTH"
);
},
{
closed = 1;
nodes = (
"921 1052 LINE SMOOTH",
"921 1167 OFFCURVE",
"921 1249 OFFCURVE",
"1010 1249 CURVE SMOOTH",
"1063 1249 OFFCURVE",
"1090 1195 OFFCURVE",
"1090 1087 CURVE SMOOTH",
"1090 931 LINE",
"921 931 LINE"
);
}
);
width = 1497;
}
);
leftKerningGroup = a;
rightKerningGroup = e;
unicode = 00E6;
userData = {
com.typemytype.robofont.layerData = {
};
};
},
{
glyphname = b;
layers = (
{
anchors = (
{
name = bottom;
position = "{514, 0}";
},
{
name = top;
position = "{256, 1760}";
}
);
background = {
anchors = (
{
name = top;
position = "{256, 1770}";
}
);
paths = (
{
closed = 1;
nodes = (
"875 -16 OFFCURVE",
"967 160 OFFCURVE",
"967 391 CURVE SMOOTH",
"967 1114 LINE SMOOTH",
"967 1360 OFFCURVE",
"884 1516 OFFCURVE",
"640 1516 CURVE SMOOTH",
"567 1516 OFFCURVE",
"500 1488 OFFCURVE",
"440 1427 CURVE",
"440 1770 LINE",
"72 1770 LINE",
"72 0 LINE",
"440 0 LINE",
"440 160 LINE",
"484 41 OFFCURVE",
"554 -16 OFFCURVE",
"651 -16 CURVE SMOOTH"
);
},
{
closed = 1;
nodes = (
"447 263 OFFCURVE",
"440 349 OFFCURVE",
"440 457 CURVE SMOOTH",
"440 1085 LINE SMOOTH",
"440 1175 OFFCURVE",
"456 1239 OFFCURVE",
"528 1239 CURVE SMOOTH",
"598 1239 OFFCURVE",
"604 1171 OFFCURVE",
"604 1081 CURVE SMOOTH",
"604 457 LINE SMOOTH",
"604 347 OFFCURVE",
"609 263 OFFCURVE",
"530 263 CURVE SMOOTH"
);
}
);
};
layerId = "6CD1E358-6E98-409F-9A1F-EA9DE4C1A8AA";
paths = (
{
closed = 1;
nodes = (
"875 -16 OFFCURVE",
"967 160 OFFCURVE",
"967 391 CURVE SMOOTH",
"967 1129 LINE SMOOTH",
"967 1360 OFFCURVE",
"895 1516 OFFCURVE",
"699 1516 CURVE SMOOTH",
"554 1516 OFFCURVE",
"484 1450 OFFCURVE",
"440 1340 CURVE",
"440 1760 LINE",
"76 1760 LINE",
"76 0 LINE",
"440 0 LINE",
"440 160 LINE",
"484 41 OFFCURVE",
"554 -16 OFFCURVE",
"671 -16 CURVE SMOOTH"
);
},
{
closed = 1;
nodes = (
"447 263 OFFCURVE",
"440 349 OFFCURVE",
"440 457 CURVE SMOOTH",
"440 1043 LINE SMOOTH",
"440 1151 OFFCURVE",
"447 1237 OFFCURVE",
"524 1237 CURVE SMOOTH",
"599 1237 OFFCURVE",
"604 1153 OFFCURVE",
"604 1043 CURVE SMOOTH",
"604 457 LINE SMOOTH",
"604 347 OFFCURVE",
"599 263 OFFCURVE",
"523 263 CURVE SMOOTH"
);
}
);
width = 1027;
}
);
leftKerningGroup = l;
rightKerningGroup = b;
unicode = 0062;
userData = {
com.typemytype.robofont.layerData = {
};
};
},
{
glyphname = "beta-latin";
layers = (
{
background = {
paths = (
{
closed = 1;
nodes = (
"408 -186 LINE",
"408 1453 LINE SMOOTH",
"408 1504 OFFCURVE",
"433 1529 OFFCURVE",
"483 1529 CURVE SMOOTH",
"533 1529 OFFCURVE",
"558 1504 OFFCURVE",
"558 1453 CURVE SMOOTH",
"558 1245 LINE SMOOTH",
"558 1177 OFFCURVE",
"544 1126 OFFCURVE",
"474 1126 CURVE",
"474 878 LINE",
"583 878 OFFCURVE",
"621 839 OFFCURVE",
"621 731 CURVE SMOOTH",
"621 399 LINE SMOOTH",
"621 320 OFFCURVE",
"573 281 OFFCURVE",
"478 281 CURVE",
"478 0 LINE",
"582 0 LINE SMOOTH",
"882 0 OFFCURVE",
"969 260 OFFCURVE",
"969 559 CURVE SMOOTH",
"969 817 OFFCURVE",
"928 980 OFFCURVE",
"759 1020 CURVE",
"867 1055 OFFCURVE",
"909 1155 OFFCURVE",
"909 1295 CURVE SMOOTH",
"909 1412 LINE SMOOTH",
"909 1673 OFFCURVE",
"742 1776 OFFCURVE",
"483 1776 CURVE SMOOTH",
"200 1776 OFFCURVE",
"58 1655 OFFCURVE",
"58 1412 CURVE SMOOTH",
"58 -186 LINE"
);
}
);
};
layerId = "6CD1E358-6E98-409F-9A1F-EA9DE4C1A8AA";
paths = (
{
closed = 1;
nodes = (
"408 -250 LINE",
"408 1453 LINE SMOOTH",
"408 1504 OFFCURVE",
"433 1529 OFFCURVE",
"483 1529 CURVE SMOOTH",
"533 1529 OFFCURVE",
"558 1504 OFFCURVE",
"558 1453 CURVE SMOOTH",
"558 1245 LINE SMOOTH",
"558 1177 OFFCURVE",
"544 1126 OFFCURVE",
"474 1126 CURVE",
"474 878 LINE",
"583 878 OFFCURVE",
"621 839 OFFCURVE",
"621 731 CURVE SMOOTH",
"621 336 LINE SMOOTH",
"621 269 OFFCURVE",
"576 237 OFFCURVE",
"513 237 CURVE SMOOTH",
"450 237 OFFCURVE",
"408 264 OFFCURVE",
"408 314 CURVE",
"258 311 LINE",
"258 68 OFFCURVE",
"370 -10 OFFCURVE",
"563 -10 CURVE SMOOTH",
"819 -10 OFFCURVE",
"969 156 OFFCURVE",
"969 559 CURVE SMOOTH",
"969 817 OFFCURVE",
"928 980 OFFCURVE",
"759 1020 CURVE",
"867 1055 OFFCURVE",
"909 1155 OFFCURVE",
"909 1295 CURVE SMOOTH",
"909 1412 LINE SMOOTH",
"909 1673 OFFCURVE",
"742 1776 OFFCURVE",
"483 1776 CURVE SMOOTH",
"200 1776 OFFCURVE",
"58 1655 OFFCURVE",
"58 1412 CURVE SMOOTH",
"58 -250 LINE"
);
}
);
width = 1007;
}
);
unicode = A7B5;
},
{
glyphname = bhook;
layers = (
{
background = {
paths = (
{
closed = 1;
nodes = (
"875 -16 OFFCURVE",
"967 160 OFFCURVE",
"967 391 CURVE SMOOTH",
"967 1031 LINE SMOOTH",
"967 1262 OFFCURVE",
"895 1418 OFFCURVE",
"699 1418 CURVE SMOOTH",
"554 1418 OFFCURVE",
"484 1352 OFFCURVE",
"440 1242 CURVE",
"440 1268 LINE",
"72 1268 LINE",
"72 0 LINE",
"440 0 LINE",
"440 160 LINE",
"484 41 OFFCURVE",
"554 -16 OFFCURVE",
"671 -16 CURVE SMOOTH"
);
},
{
closed = 1;
nodes = (
"447 263 OFFCURVE",
"440 349 OFFCURVE",
"440 457 CURVE SMOOTH",
"440 945 LINE SMOOTH",
"440 1053 OFFCURVE",
"447 1139 OFFCURVE",
"524 1139 CURVE SMOOTH",
"599 1139 OFFCURVE",
"604 1055 OFFCURVE",
"604 945 CURVE SMOOTH",
"604 457 LINE SMOOTH",
"604 347 OFFCURVE",
"599 263 OFFCURVE",
"523 263 CURVE SMOOTH"
);
},
{
closed = 1;
nodes = (
"440 1268 LINE",
"440 1368 LINE SMOOTH",
"440 1454 OFFCURVE",
"469 1500 OFFCURVE",
"544 1500 CURVE",
"544 1776 LINE",
"210 1776 OFFCURVE",
"71 1590 OFFCURVE",
"71 1328 CURVE SMOOTH",
"71 1268 LINE"
);
}
);
};
layerId = "6CD1E358-6E98-409F-9A1F-EA9DE4C1A8AA";
paths = (
{
closed = 1;
nodes = (
"875 -16 OFFCURVE",
"967 160 OFFCURVE",
"967 391 CURVE SMOOTH",
"967 1031 LINE SMOOTH",
"967 1262 OFFCURVE",
"895 1418 OFFCURVE",
"699 1418 CURVE SMOOTH",
"554 1418 OFFCURVE",
"484 1352 OFFCURVE",
"440 1242 CURVE",
"440 1368 LINE SMOOTH",
"440 1454 OFFCURVE",
"469 1500 OFFCURVE",
"544 1500 CURVE",
"544 1776 LINE",
"210 1776 OFFCURVE",
"72 1590 OFFCURVE",
"72 1328 CURVE SMOOTH",
"72 0 LINE",
"440 0 LINE",
"440 160 LINE",
"484 41 OFFCURVE",
"554 -16 OFFCURVE",
"671 -16 CURVE SMOOTH"
);
},
{
closed = 1;
nodes = (
"447 263 OFFCURVE",
"440 349 OFFCURVE",
"440 457 CURVE SMOOTH",
"440 945 LINE SMOOTH",
"440 1053 OFFCURVE",
"447 1139 OFFCURVE",
"524 1139 CURVE SMOOTH",
"599 1139 OFFCURVE",
"604 1055 OFFCURVE",
"604 945 CURVE SMOOTH",
"604 457 LINE SMOOTH",
"604 347 OFFCURVE",
"599 263 OFFCURVE",
"523 263 CURVE SMOOTH"
);
}
);
width = 1027;
}
);
leftKerningGroup = l;
rightKerningGroup = b;
unicode = 0253;
},
{
glyphname = bilabialclick;
layers = (
{
layerId = "6CD1E358-6E98-409F-9A1F-EA9DE4C1A8AA";
paths = (
{
closed = 1;
nodes = (
"809 -16 OFFCURVE",
"957 143 OFFCURVE",
"957 449 CURVE SMOOTH",
"957 1051 LINE SMOOTH",
"957 1334 OFFCURVE",
"789 1516 OFFCURVE",
"508 1516 CURVE SMOOTH",
"228 1516 OFFCURVE",
"60 1333 OFFCURVE",
"60 1051 CURVE SMOOTH",
"60 449 LINE SMOOTH",
"60 138 OFFCURVE",
"209 -16 OFFCURVE",
"508 -16 CURVE SMOOTH"
);
},
{
closed = 1;
nodes = (
"448 260 OFFCURVE",
"424 308 OFFCURVE",
"424 375 CURVE SMOOTH",
"424 1108 LINE SMOOTH",
"424 1195 OFFCURVE",
"452 1239 OFFCURVE",
"508 1239 CURVE SMOOTH",
"564 1239 OFFCURVE",
"592 1195 OFFCURVE",
"592 1108 CURVE SMOOTH",
"592 375 LINE SMOOTH",
"592 308 OFFCURVE",
"568 260 OFFCURVE",
"508 260 CURVE SMOOTH"
);
},
{
closed = 1;
nodes = (
"563 630 LINE",
"563 894 LINE",
"453 894 LINE",
"453 630 LINE"
);
}
);
width = 1017;
}
);
unicode = 0298;
},
{
glyphname = bstroke;
layers = (
{
components = (
{
name = b;
}
);
layerId = "6CD1E358-6E98-409F-9A1F-EA9DE4C1A8AA";
paths = (
{
closed = 1;
nodes = (
"572 1512 LINE",
"572 1665 LINE",
"-78 1665 LINE",
"-78 1512 LINE"
);
}
);
width = 1027;
}
);
rightKerningGroup = b;
unicode = 0180;
},
{
glyphname = c;
layers = (
{
anchors = (
{
name = bot;
position = "{514, 0}";
},
{
name = top;
position = "{515, 1500}";
}
);
background = {
anchors = (
{
name = bot;
position = "{514, 0}";
},
{
name = top;
position = "{515, 1500}";
}
);
paths = (
{
closed = 1;
nodes = (
"773 -16 OFFCURVE",
"953 130 OFFCURVE",
"953 379 CURVE SMOOTH",
"953 641 LINE",
"588 641 LINE",
"590 389 LINE SMOOTH",
"591 322 OFFCURVE",
"568 264 OFFCURVE",
"506 264 CURVE SMOOTH",
"445 264 OFFCURVE",
"420 326 OFFCURVE",
"420 387 CURVE SMOOTH",
"420 1114 LINE SMOOTH",
"420 1197 OFFCURVE",
"449 1239 OFFCURVE",
"508 1239 CURVE SMOOTH",
"575 1239 OFFCURVE",
"588 1185 OFFCURVE",
"588 1116 CURVE SMOOTH",
"588 906 LINE",
"953 906 LINE",
"953 1135 LINE SMOOTH",
"953 1380 OFFCURVE",
"766 1516 OFFCURVE",
"518 1516 CURVE SMOOTH",
"161 1516 OFFCURVE",
"60 1330 OFFCURVE",
"60 954 CURVE SMOOTH",
"60 492 LINE SMOOTH",
"60 158 OFFCURVE",
"187 -16 OFFCURVE",
"523 -16 CURVE SMOOTH"
);
}
);
};
layerId = "6CD1E358-6E98-409F-9A1F-EA9DE4C1A8AA";
paths = (
{
closed = 1;
nodes = (
"773 -16 OFFCURVE",
"953 130 OFFCURVE",
"953 379 CURVE SMOOTH",
"953 641 LINE",
"590 641 LINE",
"590 389 LINE SMOOTH",
"590 322 OFFCURVE",
"568 264 OFFCURVE",
"506 264 CURVE SMOOTH",
"445 264 OFFCURVE",
"420 326 OFFCURVE",
"420 387 CURVE SMOOTH",
"420 1114 LINE SMOOTH",
"420 1197 OFFCURVE",
"449 1239 OFFCURVE",
"508 1239 CURVE SMOOTH",
"575 1239 OFFCURVE",
"588 1185 OFFCURVE",
"588 1116 CURVE SMOOTH",
"588 906 LINE",
"953 906 LINE",
"953 1135 LINE SMOOTH",
"953 1380 OFFCURVE",
"766 1516 OFFCURVE",
"518 1516 CURVE SMOOTH",
"161 1516 OFFCURVE",
"60 1330 OFFCURVE",
"60 954 CURVE SMOOTH",
"60 492 LINE SMOOTH",
"60 158 OFFCURVE",
"187 -16 OFFCURVE",
"523 -16 CURVE SMOOTH"
);
}
);
width = 1006;
}
);
leftKerningGroup = o;
rightKerningGroup = c;
unicode = 0063;
userData = {
com.typemytype.robofont.layerData = {
};
};
},
{
glyphname = "chi-latin";
layers = (
{
background = {
paths = (
{
closed = 1;
nodes = (
"279 -186 LINE",
"520 621 LINE",
"660 661 LINE",
"920 1501 LINE",
"654 1501 LINE",
"434 776 LINE",
"292 740 LINE",
"8 -186 LINE"
);
},
{
closed = 1;
nodes = (
"798 262 LINE",
"552 1068 LINE",
"192 1058 LINE",
"438 252 LINE"
);
},
{
closed = 1;
nodes = (
"40 1242 LINE",
"116 1242 OFFCURVE",
"147 1205 OFFCURVE",
"192 1058 CURVE",
"552 1068 LINE",
"444 1423 OFFCURVE",
"354 1516 OFFCURVE",
"40 1516 CURVE"
);
},
{
closed = 1;
nodes = (
"930 78 LINE",
"866 78 OFFCURVE",
"843 115 OFFCURVE",
"798 262 CURVE",
"438 252 LINE",
"546 -103 OFFCURVE",
"636 -196 OFFCURVE",
"930 -196 CURVE"
);
}
);
};
layerId = "6CD1E358-6E98-409F-9A1F-EA9DE4C1A8AA";
paths = (
{
closed = 1;
nodes = (
"930 14 LINE",
"866 14 OFFCURVE",
"843 51 OFFCURVE",
"798 198 CURVE SMOOTH",
"655 666 LINE",
"655 644 LINE",
"920 1501 LINE",
"654 1501 LINE",
"524 1073 LINE",
"550 1075 LINE",
"443 1424 OFFCURVE",
"352 1516 OFFCURVE",
"40 1516 CURVE",
"40 1242 LINE",
"116 1242 OFFCURVE",
"147 1205 OFFCURVE",
"192 1058 CURVE SMOOTH",
"304 692 LINE",
"304 714 LINE",
"8 -250 LINE",
"279 -250 LINE",
"437 278 LINE",
"411 278 LINE",
"438 188 LINE SMOOTH",
"546 -167 OFFCURVE",
"636 -260 OFFCURVE",
"930 -260 CURVE"
);
}
);
width = 940;
}
);
leftKerningGroup = x;
rightKerningGroup = x;
unicode = AB53;
},
{
glyphname = chook;
layers = (
{
background = {
paths = (
{
closed = 1;
nodes = (
"773 -16 OFFCURVE",
"953 130 OFFCURVE",
"953 379 CURVE SMOOTH",
"953 641 LINE",
"590 641 LINE",
"590 389 LINE SMOOTH",
"590 322 OFFCURVE",
"568 264 OFFCURVE",
"506 264 CURVE SMOOTH",
"445 264 OFFCURVE",
"420 326 OFFCURVE",
"420 387 CURVE SMOOTH",
"420 1114 LINE SMOOTH",
"420 1197 OFFCURVE",
"449 1239 OFFCURVE",
"508 1239 CURVE SMOOTH",
"575 1239 OFFCURVE",
"588 1185 OFFCURVE",
"588 1116 CURVE SMOOTH",
"588 906 LINE",
"853 906 LINE",
"853 1135 LINE SMOOTH",
"853 1380 OFFCURVE",
"766 1516 OFFCURVE",
"518 1516 CURVE SMOOTH",
"161 1516 OFFCURVE",
"60 1330 OFFCURVE",
"60 954 CURVE SMOOTH",
"60 492 LINE SMOOTH",
"60 158 OFFCURVE",
"187 -16 OFFCURVE",
"523 -16 CURVE SMOOTH"
);
},
{
closed = 1;
nodes = (
"953 906 LINE",
"953 1362 LINE SMOOTH",
"953 1448 OFFCURVE",
"984 1494 OFFCURVE",
"1059 1494 CURVE",
"1059 1770 LINE",
"785 1770 OFFCURVE",
"646 1584 OFFCURVE",
"646 1362 CURVE SMOOTH",
"646 906 LINE"
);
}
);
};
layerId = "6CD1E358-6E98-409F-9A1F-EA9DE4C1A8AA";
paths = (
{
closed = 1;
nodes = (
"773 -16 OFFCURVE",
"953 130 OFFCURVE",
"953 379 CURVE SMOOTH",
"953 641 LINE",
"590 641 LINE",
"590 389 LINE SMOOTH",
"590 322 OFFCURVE",
"568 264 OFFCURVE",
"506 264 CURVE SMOOTH",
"445 264 OFFCURVE",
"420 326 OFFCURVE",
"420 387 CURVE SMOOTH",
"420 1114 LINE SMOOTH",
"420 1197 OFFCURVE",
"449 1239 OFFCURVE",
"508 1239 CURVE SMOOTH",
"575 1239 OFFCURVE",
"588 1185 OFFCURVE",
"588 1116 CURVE SMOOTH",
"588 906 LINE",
"953 906 LINE",
"953 1362 LINE SMOOTH",
"953 1448 OFFCURVE",
"984 1494 OFFCURVE",
"1059 1494 CURVE",
"1059 1770 LINE",
"829 1770 OFFCURVE",
"695 1640 OFFCURVE",
"657 1467 CURVE",
"688 1486 LINE",
"642 1506 OFFCURVE",
"587 1516 OFFCURVE",
"518 1516 CURVE SMOOTH",
"161 1516 OFFCURVE",
"60 1330 OFFCURVE",
"60 954 CURVE SMOOTH",
"60 492 LINE SMOOTH",
"60 158 OFFCURVE",
"187 -16 OFFCURVE",
"523 -16 CURVE SMOOTH"
);
}
);
width = 1049;
}
);
leftKerningGroup = o;
rightKerningGroup = c;
unicode = 0188;
},
{
glyphname = cstroke;
layers = (
{
components = (
{
name = c;
}
);
layerId = "6CD1E358-6E98-409F-9A1F-EA9DE4C1A8AA";
paths = (
{
closed = 1;
nodes = (
"341 -186 LINE",
"448 225 LINE",
"308 225 LINE",
"201 -186 LINE"
);
},
{
closed = 1;
nodes = (
"749 1376 LINE",
"846 1760 LINE",
"706 1760 LINE",
"609 1376 LINE"
);
}
);
width = 1006;
}
);
leftKerningGroup = o;
rightKerningGroup = c;
unicode = 023C;
},
{
glyphname = d;
layers = (
{
anchors = (
{
name = bottom;
position = "{552, 0}";
},
{
name = caron.alt;
position = "{710, 1500}";
},
{
name = center;
position = "{510, 750}";
},
{
name = mid;
position = "{767, 1629}";
},
{
name = top;
position = "{769, 1760}";
},
{
name = topright;
position = "{1000, 1500}";
}
);
background = {
anchors = (
{
name = caron.alt;
position = "{770, 1500}";
},
{
name = mid;
position = "{767, 1629}";
},
{
name = top;
position = "{769, 1770}";
}
);
paths = (
{
closed = 1;
nodes = (
"547 1450 OFFCURVE",
"477 1516 OFFCURVE",
"332 1516 CURVE SMOOTH",
"136 1516 OFFCURVE",
"64 1360 OFFCURVE",
"64 1129 CURVE SMOOTH",
"64 391 LINE SMOOTH",
"64 160 OFFCURVE",
"156 -16 OFFCURVE",
"380 -16 CURVE SMOOTH",
"477 -16 OFFCURVE",
"547 41 OFFCURVE",
"591 160 CURVE",
"591 0 LINE",
"959 0 LINE",
"959 1760 LINE",
"591 1760 LINE",
"591 1340 LINE"
);
},
{
closed = 1;
nodes = (
"591 457 LINE SMOOTH",
"591 349 OFFCURVE",
"584 263 OFFCURVE",
"501 263 CURVE SMOOTH",
"422 263 OFFCURVE",
"427 347 OFFCURVE",
"427 457 CURVE SMOOTH",
"427 1043 LINE SMOOTH",
"427 1153 OFFCURVE",
"422 1237 OFFCURVE",
"501 1237 CURVE SMOOTH",
"584 1237 OFFCURVE",
"591 1151 OFFCURVE",
"591 1043 CURVE SMOOTH"
);
}
);
};
layerId = "6CD1E358-6E98-409F-9A1F-EA9DE4C1A8AA";
paths = (
{
closed = 1;
nodes = (
"492 -16 OFFCURVE",
"550 51 OFFCURVE",
"590 159 CURVE",
"590 0 LINE",
"954 0 LINE",
"954 1760 LINE",
"590 1760 LINE",
"590 1340 LINE",
"547 1450 OFFCURVE",
"477 1516 OFFCURVE",
"332 1516 CURVE SMOOTH",
"136 1516 OFFCURVE",
"62 1360 OFFCURVE",
"62 1129 CURVE SMOOTH",
"62 477 LINE SMOOTH",
"62 201 OFFCURVE",
"90 -16 OFFCURVE",
"367 -16 CURVE SMOOTH"
);
},
{
closed = 1;
nodes = (
"447 264 OFFCURVE",
"418 327 OFFCURVE",
"418 452 CURVE SMOOTH",
"418 1083 LINE SMOOTH",
"418 1160 OFFCURVE",
"429 1239 OFFCURVE",
"506 1239 CURVE SMOOTH",
"576 1239 OFFCURVE",
"590 1153 OFFCURVE",
"590 1083 CURVE SMOOTH",
"590 452 LINE SMOOTH",
"590 311 OFFCURVE",
"572 264 OFFCURVE",
"504 264 CURVE SMOOTH"
);
}
);
width = 1020;
}
);
leftKerningGroup = d;
rightKerningGroup = l;
unicode = 0064;
userData = {
com.typemytype.robofont.layerData = {
};
};
},
{
glyphname = eth;
layers = (
{
background = {
paths = (
{
closed = 1;
nodes = (
"875 -16 OFFCURVE",
"990 161 OFFCURVE",
"990 538 CURVE SMOOTH",
"990 799 LINE SMOOTH",
"990 1058 OFFCURVE",
"902 1255 OFFCURVE",
"745 1463 CURVE",
"478 1291 LINE",
"578 1155 OFFCURVE",
"633 1030 OFFCURVE",
"638 922 CURVE",
"651 1048 LINE",
"626 1079 OFFCURVE",
"526 1102 OFFCURVE",
"464 1102 CURVE SMOOTH",
"173 1102 OFFCURVE",
"49 936 OFFCURVE",
"49 589 CURVE SMOOTH",
"49 207 OFFCURVE",
"164 -16 OFFCURVE",
"508 -16 CURVE SMOOTH"
);
},
{
closed = 1;
nodes = (
"438 279 OFFCURVE",
"435 364 OFFCURVE",
"435 482 CURVE SMOOTH",
"435 680 LINE SMOOTH",
"435 784 OFFCURVE",
"464 836 OFFCURVE",
"522 836 CURVE SMOOTH",
"589 836 OFFCURVE",
"623 791 OFFCURVE",
"623 701 CURVE SMOOTH",
"623 420 LINE SMOOTH",
"623 326 OFFCURVE",
"592 279 OFFCURVE",
"528 279 CURVE SMOOTH"
);
},
{
closed = 1;
nodes = (
"708 1500 LINE",
"539 1665 OFFCURVE",
"358 1757 OFFCURVE",
"178 1774 CURVE",
"84 1546 LINE",
"191 1523 OFFCURVE",
"315 1450 OFFCURVE",
"443 1328 CURVE"
);
},
{
closed = 1;
nodes = (
"913 1527 LINE",
"830 1656 LINE",
"241 1273 LINE",
"324 1144 LINE"
);
}
);
};
layerId = "6CD1E358-6E98-409F-9A1F-EA9DE4C1A8AA";
paths = (
{
closed = 1;
nodes = (
"875 -16 OFFCURVE",
"990 161 OFFCURVE",
"990 538 CURVE SMOOTH",
"990 799 LINE SMOOTH",
"990 1045 OFFCURVE",
"910 1236 OFFCURVE",
"768 1432 CURVE",
"913 1527 LINE",
"830 1656 LINE",
"659 1545 LINE",
"505 1682 OFFCURVE",
"341 1759 OFFCURVE",
"178 1774 CURVE",
"84 1546 LINE",
"177 1526 OFFCURVE",
"283 1468 OFFCURVE",
"394 1372 CURVE",
"241 1273 LINE",
"324 1144 LINE",
"501 1259 LINE",
"545 1196 OFFCURVE",
"578 1135 OFFCURVE",
"601 1077 CURVE",
"560 1092 OFFCURVE",
"504 1102 OFFCURVE",
"464 1102 CURVE SMOOTH",
"173 1102 OFFCURVE",
"49 936 OFFCURVE",
"49 589 CURVE SMOOTH",
"49 207 OFFCURVE",
"164 -16 OFFCURVE",
"508 -16 CURVE SMOOTH"
);
},
{
closed = 1;
nodes = (
"438 279 OFFCURVE",
"435 364 OFFCURVE",
"435 482 CURVE SMOOTH",
"435 680 LINE SMOOTH",
"435 784 OFFCURVE",
"464 836 OFFCURVE",
"522 836 CURVE SMOOTH",
"589 836 OFFCURVE",
"623 791 OFFCURVE",
"623 701 CURVE SMOOTH",
"623 420 LINE SMOOTH",
"623 326 OFFCURVE",
"592 279 OFFCURVE",
"528 279 CURVE SMOOTH"
);
}
);
width = 1031;
}
);
unicode = 00F0;
},
{
glyphname = dcroat;
layers = (
{
components = (
{
name = d;
}
);
layerId = "6CD1E358-6E98-409F-9A1F-EA9DE4C1A8AA";
paths = (
{
closed = 1;
nodes = (
"1072 1532 LINE",
"1072 1685 LINE",
"422 1685 LINE",
"422 1532 LINE"
);
}
);
width = 1020;
}
);
leftKerningGroup = d;
unicode = 0111;
},
{
glyphname = dhook;
layers = (
{
background = {
paths = (
{
closed = 1;
nodes = (
"492 -16 OFFCURVE",
"550 51 OFFCURVE",
"590 159 CURVE",
"590 0 LINE",
"954 0 LINE",
"954 1268 LINE",
"590 1268 LINE",
"590 1340 LINE",
"547 1450 OFFCURVE",
"477 1516 OFFCURVE",
"332 1516 CURVE SMOOTH",
"136 1516 OFFCURVE",
"62 1360 OFFCURVE",
"62 1129 CURVE SMOOTH",
"62 477 LINE SMOOTH",
"62 201 OFFCURVE",
"90 -16 OFFCURVE",
"367 -16 CURVE SMOOTH"
);
},
{
closed = 1;
nodes = (
"447 264 OFFCURVE",
"418 327 OFFCURVE",
"418 452 CURVE SMOOTH",
"418 1083 LINE SMOOTH",
"418 1160 OFFCURVE",
"429 1239 OFFCURVE",
"506 1239 CURVE SMOOTH",
"576 1239 OFFCURVE",
"590 1153 OFFCURVE",
"590 1083 CURVE SMOOTH",
"590 452 LINE SMOOTH",
"590 327 OFFCURVE",
"572 264 OFFCURVE",
"504 264 CURVE SMOOTH"
);
},
{
closed = 1;
nodes = (
"954 1268 LINE",
"954 1368 LINE SMOOTH",
"954 1454 OFFCURVE",
"975 1500 OFFCURVE",
"1040 1500 CURVE",
"1040 1776 LINE",
"689 1776 OFFCURVE",
"590 1630 OFFCURVE",
"590 1378 CURVE SMOOTH",
"590 1268 LINE"
);
}
);
};
layerId = "6CD1E358-6E98-409F-9A1F-EA9DE4C1A8AA";
paths = (
{
closed = 1;
nodes = (
"492 -16 OFFCURVE",
"550 51 OFFCURVE",
"590 159 CURVE",
"590 0 LINE",
"954 0 LINE",
"954 1368 LINE SMOOTH",
"954 1454 OFFCURVE",
"975 1500 OFFCURVE",
"1040 1500 CURVE",
"1040 1776 LINE",
"689 1776 OFFCURVE",
"590 1630 OFFCURVE",
"590 1378 CURVE SMOOTH",
"590 1295 LINE",
"601 1310 LINE",
"559 1438 OFFCURVE",
"490 1516 OFFCURVE",
"332 1516 CURVE SMOOTH",
"136 1516 OFFCURVE",
"62 1360 OFFCURVE",
"62 1129 CURVE SMOOTH",
"62 477 LINE SMOOTH",
"62 201 OFFCURVE",
"90 -16 OFFCURVE",
"367 -16 CURVE SMOOTH"
);
},
{
closed = 1;
nodes = (
"447 264 OFFCURVE",
"418 327 OFFCURVE",
"418 452 CURVE SMOOTH",
"418 1083 LINE SMOOTH",
"418 1160 OFFCURVE",
"429 1239 OFFCURVE",
"506 1239 CURVE SMOOTH",
"576 1239 OFFCURVE",
"590 1153 OFFCURVE",
"590 1083 CURVE SMOOTH",
"590 452 LINE SMOOTH",
"590 327 OFFCURVE",
"572 264 OFFCURVE",
"504 264 CURVE SMOOTH"
);
}
);
width = 1020;
}
);
leftKerningGroup = d;
unicode = 0257;
},
{
glyphname = dtail;
layers = (
{
background = {
paths = (
{
closed = 1;
nodes = (
"492 -16 OFFCURVE",
"550 51 OFFCURVE",
"590 159 CURVE",
"590 252 LINE",
"954 252 LINE",
"954 1760 LINE",
"590 1760 LINE",
"590 1340 LINE",
"547 1450 OFFCURVE",
"477 1516 OFFCURVE",
"332 1516 CURVE SMOOTH",
"136 1516 OFFCURVE",
"62 1360 OFFCURVE",
"62 1129 CURVE SMOOTH",
"62 477 LINE SMOOTH",
"62 201 OFFCURVE",
"90 -16 OFFCURVE",
"367 -16 CURVE SMOOTH"
);
},
{
closed = 1;
nodes = (
"1040 80 LINE",
"975 80 OFFCURVE",
"954 126 OFFCURVE",
"954 212 CURVE SMOOTH",
"954 252 LINE",
"590 252 LINE",
"590 202 LINE SMOOTH",
"590 -50 OFFCURVE",
"689 -196 OFFCURVE",
"1040 -196 CURVE"
);
},
{
closed = 1;
nodes = (
"447 264 OFFCURVE",
"418 327 OFFCURVE",
"418 452 CURVE SMOOTH",
"418 1083 LINE SMOOTH",
"418 1160 OFFCURVE",
"429 1239 OFFCURVE",
"506 1239 CURVE SMOOTH",
"576 1239 OFFCURVE",
"590 1153 OFFCURVE",
"590 1083 CURVE SMOOTH",
"590 452 LINE SMOOTH",
"590 327 OFFCURVE",
"574 264 OFFCURVE",
"504 264 CURVE SMOOTH"
);
}
);
};
layerId = "6CD1E358-6E98-409F-9A1F-EA9DE4C1A8AA";
paths = (
{
closed = 1;
nodes = (
"1040 80 LINE",
"975 80 OFFCURVE",
"954 126 OFFCURVE",
"954 212 CURVE SMOOTH",
"954 1760 LINE",
"590 1760 LINE",
"590 1340 LINE",
"547 1450 OFFCURVE",
"477 1516 OFFCURVE",
"332 1516 CURVE SMOOTH",
"136 1516 OFFCURVE",
"62 1360 OFFCURVE",
"62 1129 CURVE SMOOTH",
"62 477 LINE SMOOTH",
"62 201 OFFCURVE",
"90 -16 OFFCURVE",
"367 -16 CURVE SMOOTH",
"504 -16 OFFCURVE",
"561 65 OFFCURVE",
"601 192 CURVE",
"591 192 LINE",
"591 -68 OFFCURVE",
"721 -196 OFFCURVE",
"1040 -196 CURVE"
);
},
{
closed = 1;
nodes = (
"447 264 OFFCURVE",
"418 327 OFFCURVE",
"418 452 CURVE SMOOTH",
"418 1083 LINE SMOOTH",
"418 1160 OFFCURVE",
"429 1239 OFFCURVE",
"506 1239 CURVE SMOOTH",
"576 1239 OFFCURVE",
"590 1153 OFFCURVE",
"590 1083 CURVE SMOOTH",
"590 452 LINE SMOOTH",
"590 327 OFFCURVE",
"574 264 OFFCURVE",
"504 264 CURVE SMOOTH"
);
}
);
width = 1020;
}
);
leftKerningGroup = d;
unicode = 0256;
},
{
glyphname = e;
layers = (
{
anchors = (
{
name = bottom;
position = "{495, 0}";
},
{
name = ogonek;
position = "{518, 0}";
},
{
name = top;
position = "{510, 1500}";
},
{
name = top_case;
position = "{510, 1500}";
}
);
background = {
anchors = (
{
name = bottom;
position = "{495, 0}";
},
{
name = ogonek;
position = "{518, 0}";
},
{
name = top;
position = "{513, 1517}";
}
);
paths = (
{
closed = 1;
nodes = (
"832 -16 OFFCURVE",
"942 157 OFFCURVE",
"942 494 CURVE SMOOTH",
"942 579 LINE",
"586 579 LINE",
"586 435 LINE SMOOTH",
"586 350 OFFCURVE",
"590 260 OFFCURVE",
"504 260 CURVE SMOOTH",
"424 260 OFFCURVE",
"418 346 OFFCURVE",
"418 427 CURVE SMOOTH",
"418 717 LINE",
"938 717 LINE",
"941 768 OFFCURVE",
"942 848 OFFCURVE",
"942 983 CURVE SMOOTH",
"942 1092 LINE SMOOTH",
"942 1376 OFFCURVE",
"798 1516 OFFCURVE",
"510 1516 CURVE SMOOTH",
"230 1516 OFFCURVE",
"60 1371 OFFCURVE",
"60 1092 CURVE SMOOTH",
"60 489 LINE SMOOTH",
"60 170 OFFCURVE",
"171 -16 OFFCURVE",
"492 -16 CURVE SMOOTH"
);
},
{
closed = 1;
nodes = (
"416 1087 LINE SMOOTH",
"416 1199 OFFCURVE",
"449 1249 OFFCURVE",
"506 1249 CURVE SMOOTH",
"559 1249 OFFCURVE",
"586 1195 OFFCURVE",
"586 1087 CURVE SMOOTH",
"586 895 LINE",
"416 895 LINE"
);
}
);
};
layerId = "6CD1E358-6E98-409F-9A1F-EA9DE4C1A8AA";
paths = (
{
closed = 1;
nodes = (
"832 -16 OFFCURVE",
"942 157 OFFCURVE",
"942 494 CURVE SMOOTH",
"942 579 LINE",
"586 579 LINE",
"586 435 LINE SMOOTH",
"586 331 OFFCURVE",
"576 260 OFFCURVE",
"502 260 CURVE SMOOTH",
"424 260 OFFCURVE",
"418 346 OFFCURVE",
"418 427 CURVE SMOOTH",
"418 717 LINE",
"938 717 LINE",
"941 768 OFFCURVE",
"942 848 OFFCURVE",
"942 983 CURVE SMOOTH",
"942 1092 LINE SMOOTH",
"942 1376 OFFCURVE",
"798 1516 OFFCURVE",
"510 1516 CURVE SMOOTH",
"230 1516 OFFCURVE",
"60 1371 OFFCURVE",
"60 1092 CURVE SMOOTH",
"60 489 LINE SMOOTH",
"60 170 OFFCURVE",
"171 -16 OFFCURVE",
"492 -16 CURVE SMOOTH"
);
},
{
closed = 1;
nodes = (
"416 1097 LINE SMOOTH",
"416 1209 OFFCURVE",
"449 1249 OFFCURVE",
"506 1249 CURVE SMOOTH",
"559 1249 OFFCURVE",
"586 1205 OFFCURVE",
"586 1097 CURVE SMOOTH",
"586 895 LINE",
"416 895 LINE"
);
}
);
width = 1000;
}
);
leftKerningGroup = o;
rightKerningGroup = e;
unicode = 0065;
userData = {
com.typemytype.robofont.layerData = {
};
};
},
{
glyphname = eopen;
layers = (
{
guideLines = (
{
position = "{-53, 579}";
}
);
layerId = "6CD1E358-6E98-409F-9A1F-EA9DE4C1A8AA";
paths = (
{
closed = 1;
nodes = (
"823 -20 OFFCURVE",
"957 143 OFFCURVE",
"957 474 CURVE SMOOTH",
"957 549 LINE",
"601 549 LINE",
"601 448 LINE SMOOTH",
"601 330 OFFCURVE",
"587 256 OFFCURVE",
"500 256 CURVE SMOOTH",
"430 256 OFFCURVE",
"409 298 OFFCURVE",
"409 430 CURVE SMOOTH",
"409 559 OFFCURVE",
"446 641 OFFCURVE",
"559 641 CURVE SMOOTH",
"574 641 OFFCURVE",
"585 640 OFFCURVE",
"593 639 CURVE",
"593 915 LINE",
"472 915 OFFCURVE",
"406 964 OFFCURVE",
"406 1089 CURVE SMOOTH",
"406 1192 OFFCURVE",
"435 1241 OFFCURVE",
"502 1241 CURVE SMOOTH",
"586 1241 OFFCURVE",
"590 1162 OFFCURVE",
"590 1084 CURVE SMOOTH",
"590 1007 LINE",
"946 1007 LINE",
"946 1068 LINE SMOOTH",
"946 1371 OFFCURVE",
"800 1516 OFFCURVE",
"499 1516 CURVE SMOOTH",
"205 1516 OFFCURVE",
"55 1362 OFFCURVE",
"55 1068 CURVE SMOOTH",
"55 909 OFFCURVE",
"100 790 OFFCURVE",
"251 753 CURVE",
"251 816 LINE",
"83 745 OFFCURVE",
"51 619 OFFCURVE",
"51 460 CURVE SMOOTH",
"51 178 OFFCURVE",
"187 -20 OFFCURVE",
"522 -20 CURVE SMOOTH"
);
}
);
width = 996;
}
);
unicode = 025B;
},
{
glyphname = esh;
layers = (
{
layerId = "6CD1E358-6E98-409F-9A1F-EA9DE4C1A8AA";
paths = (
{
closed = 1;
nodes = (
"359 -260 OFFCURVE",
"460 -159 OFFCURVE",
"460 2 CURVE SMOOTH",
"460 1470 LINE SMOOTH",
"460 1511 OFFCURVE",
"472 1530 OFFCURVE",
"507 1530 CURVE SMOOTH",
"520 1530 OFFCURVE",
"530 1528 OFFCURVE",
"538 1525 CURVE",
"538 1760 LINE",
"492 1769 OFFCURVE",
"451 1775 OFFCURVE",
"386 1775 CURVE SMOOTH",
"206 1775 OFFCURVE",
"105 1674 OFFCURVE",
"105 1513 CURVE SMOOTH",
"105 45 LINE SMOOTH",
"105 4 OFFCURVE",
"93 -15 OFFCURVE",
"58 -15 CURVE SMOOTH",
"45 -15 OFFCURVE",
"35 -13 OFFCURVE",
"27 -10 CURVE",
"27 -245 LINE",
"73 -254 OFFCURVE",
"114 -260 OFFCURVE",
"179 -260 CURVE SMOOTH"
);
}
);
width = 574;
}
);
unicode = 0283;
},
{
glyphname = estroke;
layers = (
{
components = (
{
name = e;
}
);
layerId = "6CD1E358-6E98-409F-9A1F-EA9DE4C1A8AA";
paths = (
{
closed = 1;
nodes = (
"318 -186 LINE",
"425 225 LINE",
"285 225 LINE",
"178 -186 LINE"
);
},
{
closed = 1;
nodes = (
"726 1376 LINE",
"823 1760 LINE",
"683 1760 LINE",
"586 1376 LINE"
);
}
);
width = 1000;
}
);
leftKerningGroup = o;
rightKerningGroup = e;
unicode = 0247;
},
{
glyphname = eturned;
layers = (
{
layerId = "6CD1E358-6E98-409F-9A1F-EA9DE4C1A8AA";
paths = (
{
closed = 1;
nodes = (
"770 -16 OFFCURVE",
"940 129 OFFCURVE",
"940 408 CURVE SMOOTH",
"940 1011 LINE SMOOTH",
"940 1330 OFFCURVE",
"829 1516 OFFCURVE",
"508 1516 CURVE SMOOTH",
"168 1516 OFFCURVE",
"58 1343 OFFCURVE",
"58 1006 CURVE SMOOTH",
"58 921 LINE",
"414 921 LINE",
"414 1065 LINE SMOOTH",
"414 1169 OFFCURVE",
"424 1240 OFFCURVE",
"498 1240 CURVE SMOOTH",
"576 1240 OFFCURVE",
"582 1154 OFFCURVE",
"582 1073 CURVE SMOOTH",
"582 783 LINE",
"62 783 LINE",
"59 732 OFFCURVE",
"58 652 OFFCURVE",
"58 517 CURVE SMOOTH",
"58 408 LINE SMOOTH",
"58 124 OFFCURVE",
"202 -16 OFFCURVE",
"490 -16 CURVE SMOOTH"
);
},
{
closed = 1;
nodes = (
"441 251 OFFCURVE",
"414 295 OFFCURVE",
"414 403 CURVE SMOOTH",
"414 605 LINE",
"584 605 LINE",
"584 403 LINE SMOOTH",
"584 291 OFFCURVE",
"551 251 OFFCURVE",
"494 251 CURVE SMOOTH"
);
}
);
width = 1000;
}
);
rightKerningGroup = "0";
unicode = 01DD;
},
{
glyphname = schwa;
layers = (
{
background = {
paths = (
{
closed = 1;
nodes = (
"770 -16 OFFCURVE",
"940 129 OFFCURVE",
"940 408 CURVE SMOOTH",
"940 1011 LINE SMOOTH",
"940 1330 OFFCURVE",
"829 1516 OFFCURVE",
"508 1516 CURVE SMOOTH",
"168 1516 OFFCURVE",
"58 1343 OFFCURVE",
"58 1006 CURVE SMOOTH",
"58 921 LINE",
"414 921 LINE",
"414 1065 LINE SMOOTH",
"414 1150 OFFCURVE",
"410 1240 OFFCURVE",
"496 1240 CURVE SMOOTH",
"576 1240 OFFCURVE",
"582 1154 OFFCURVE",
"582 1073 CURVE SMOOTH",
"582 783 LINE",
"62 783 LINE",
"59 732 OFFCURVE",
"58 652 OFFCURVE",
"58 517 CURVE SMOOTH",
"58 408 LINE SMOOTH",
"58 124 OFFCURVE",
"202 -16 OFFCURVE",
"490 -16 CURVE SMOOTH"
);
},
{
closed = 1;
nodes = (
"441 251 OFFCURVE",
"414 305 OFFCURVE",
"414 413 CURVE SMOOTH",
"414 605 LINE",
"584 605 LINE",
"584 413 LINE SMOOTH",
"584 301 OFFCURVE",
"551 251 OFFCURVE",
"494 251 CURVE SMOOTH"
);
}
);
};
layerId = "6CD1E358-6E98-409F-9A1F-EA9DE4C1A8AA";
paths = (
{
closed = 1;
nodes = (
"770 -16 OFFCURVE",
"940 129 OFFCURVE",
"940 408 CURVE SMOOTH",
"940 1011 LINE SMOOTH",
"940 1330 OFFCURVE",
"829 1516 OFFCURVE",
"508 1516 CURVE SMOOTH",
"168 1516 OFFCURVE",
"58 1343 OFFCURVE",
"58 1006 CURVE SMOOTH",
"58 921 LINE",
"414 921 LINE",
"414 1065 LINE SMOOTH",
"414 1199 OFFCURVE",
"432 1240 OFFCURVE",
"496 1240 CURVE SMOOTH",
"576 1240 OFFCURVE",
"582 1154 OFFCURVE",
"582 1073 CURVE SMOOTH",
"582 783 LINE",
"62 783 LINE",
"59 732 OFFCURVE",
"58 652 OFFCURVE",
"58 517 CURVE SMOOTH",
"58 408 LINE SMOOTH",
"58 124 OFFCURVE",
"202 -16 OFFCURVE",
"490 -16 CURVE SMOOTH"
);
},
{
closed = 1;
nodes = (
"441 251 OFFCURVE",
"414 305 OFFCURVE",
"414 413 CURVE SMOOTH",
"414 605 LINE",
"584 605 LINE",
"584 413 LINE SMOOTH",
"584 301 OFFCURVE",
"551 251 OFFCURVE",
"494 251 CURVE SMOOTH"
);
}
);
width = 1000;
}
);
rightKerningGroup = "0";
unicode = 0259;
},
{
glyphname = ezh;
layers = (
{
anchors = (
{
name = bottom;
position = "{499, 0}";
},
{
name = top;
position = "{521, 1500}";
}
);
layerId = "6CD1E358-6E98-409F-9A1F-EA9DE4C1A8AA";
paths = (
{
closed = 1;
nodes = (
"800 -260 OFFCURVE",
"943 -72 OFFCURVE",
"943 304 CURVE SMOOTH",
"943 608 OFFCURVE",
"847 793 OFFCURVE",
"619 846 CURVE",
"629 738 LINE",
"941 1190 LINE",
"941 1500 LINE",
"81 1500 LINE",
"81 1227 LINE",
"635 1227 LINE",
"625 1289 LINE",
"311 836 LINE",
"311 583 LINE",
"427 583 LINE SMOOTH",
"527 583 OFFCURVE",
"585 508 OFFCURVE",
"585 326 CURVE SMOOTH",
"585 120 OFFCURVE",
"585 16 OFFCURVE",
"497 16 CURVE SMOOTH",
"415 16 OFFCURVE",
"395 78 OFFCURVE",
"395 233 CURVE SMOOTH",
"395 352 LINE",
"39 352 LINE",
"39 233 LINE SMOOTH",
"39 -101 OFFCURVE",
"174 -260 OFFCURVE",
"482 -260 CURVE SMOOTH"
);
}
);
width = 994;
}
);
unicode = 0292;
},
{
glyphname = ezhreversed;
layers = (
{
layerId = "6CD1E358-6E98-409F-9A1F-EA9DE4C1A8AA";
paths = (
{
closed = 1;
nodes = (
"820 -260 OFFCURVE",
"955 -101 OFFCURVE",
"955 233 CURVE SMOOTH",
"955 352 LINE",
"599 352 LINE",
"599 233 LINE SMOOTH",
"599 78 OFFCURVE",
"579 16 OFFCURVE",
"497 16 CURVE SMOOTH",
"409 16 OFFCURVE",
"409 120 OFFCURVE",
"409 326 CURVE SMOOTH",
"409 508 OFFCURVE",
"467 583 OFFCURVE",
"567 583 CURVE SMOOTH",
"683 583 LINE",
"683 836 LINE",
"369 1289 LINE",
"359 1227 LINE",
"913 1227 LINE",
"913 1500 LINE",
"53 1500 LINE",
"53 1190 LINE",
"365 738 LINE",
"375 846 LINE",
"147 793 OFFCURVE",
"51 608 OFFCURVE",
"51 304 CURVE SMOOTH",
"51 -72 OFFCURVE",
"194 -260 OFFCURVE",
"512 -260 CURVE SMOOTH"
);
}
);
width = 994;
}
);
unicode = 01B9;
},
{
glyphname = f;
layers = (
{
anchors = (
{
name = top;
position = "{321, 1760}";
}
);
background = {
anchors = (
{
name = top;
position = "{321, 1760}";
}
);
paths = (
{
closed = 1;
nodes = (
"460 0 LINE",
"460 1157 LINE",
"531 1157 LINE",
"531 1434 LINE",
"453 1434 LINE",
"453 1453 LINE SMOOTH",
"453 1500 OFFCURVE",
"456 1533 OFFCURVE",
"498 1533 CURVE SMOOTH",
"505 1533 OFFCURVE",
"516 1531 OFFCURVE",
"531 1528 CURVE",
"531 1749 LINE",
"485 1768 OFFCURVE",
"424 1778 OFFCURVE",
"347 1778 CURVE SMOOTH",
"186 1778 OFFCURVE",
"105 1697 OFFCURVE",
"105 1536 CURVE SMOOTH",
"105 1434 LINE",
"44 1434 LINE",
"41 1283 OFFCURVE",
"40 1192 OFFCURVE",
"40 1161 CURVE",
"105 1161 LINE",
"105 0 LINE"
);
}
);
};
layerId = "6CD1E358-6E98-409F-9A1F-EA9DE4C1A8AA";
paths = (
{
closed = 1;
nodes = (
"460 0 LINE",
"460 1157 LINE",
"531 1157 LINE",
"531 1434 LINE",
"453 1434 LINE",
"453 1453 LINE SMOOTH",
"453 1500 OFFCURVE",
"456 1533 OFFCURVE",
"498 1533 CURVE SMOOTH",
"505 1533 OFFCURVE",
"516 1531 OFFCURVE",
"531 1528 CURVE",
"531 1749 LINE",
"485 1768 OFFCURVE",
"424 1778 OFFCURVE",
"347 1778 CURVE SMOOTH",
"186 1778 OFFCURVE",
"105 1697 OFFCURVE",
"105 1536 CURVE SMOOTH",
"105 1434 LINE",
"40 1434 LINE",
"40 1161 LINE",
"105 1161 LINE",
"105 0 LINE"
);
}
);
width = 574;
}
);
unicode = 0066;
userData = {
com.typemytype.robofont.layerData = {
};
};
},
{
glyphname = g;
layers = (
{
anchors = (
{
name = top;
position = "{509, 1500}";
}
);
background = {
anchors = (
{
name = top;
position = "{509, 1500}";
}
);
paths = (
{
closed = 1;
nodes = (
"813 -220 OFFCURVE",
"964 -86 OFFCURVE",
"964 254 CURVE SMOOTH",
"964 1500 LINE",
"599 1500 LINE",
"599 1331 LINE",
"574 1444 OFFCURVE",
"502 1516 OFFCURVE",
"370 1516 CURVE SMOOTH",
"135 1516 OFFCURVE",
"71 1348 OFFCURVE",
"71 1106 CURVE SMOOTH",
"71 543 LINE SMOOTH",
"71 328 OFFCURVE",
"155 160 OFFCURVE",
"370 160 CURVE SMOOTH",
"493 160 OFFCURVE",
"570 211 OFFCURVE",
"599 314 CURVE",
"599 231 LINE SMOOTH",
"599 113 OFFCURVE",
"544 33 OFFCURVE",
"429 33 CURVE SMOOTH",
"342 33 OFFCURVE",
"254 59 OFFCURVE",
"167 111 CURVE",
"46 -96 LINE",
"163 -194 OFFCURVE",
"268 -220 OFFCURVE",
"476 -220 CURVE SMOOTH"
);
},
{
closed = 1;
nodes = (
"441 430 OFFCURVE",
"433 510 OFFCURVE",
"433 582 CURVE SMOOTH",
"433 1116 LINE SMOOTH",
"433 1183 OFFCURVE",
"442 1243 OFFCURVE",
"511 1243 CURVE SMOOTH",
"566 1243 OFFCURVE",
"599 1171 OFFCURVE",
"599 1116 CURVE SMOOTH",
"599 582 LINE SMOOTH",
"599 481 OFFCURVE",
"571 430 OFFCURVE",
"515 430 CURVE SMOOTH"
);
}
);
};
layerId = "6CD1E358-6E98-409F-9A1F-EA9DE4C1A8AA";
paths = (
{
closed = 1;
nodes = (
"813 -260 OFFCURVE",
"964 -126 OFFCURVE",
"964 214 CURVE SMOOTH",
"964 1500 LINE",
"599 1500 LINE",
"599 1331 LINE",
"574 1444 OFFCURVE",
"502 1516 OFFCURVE",
"370 1516 CURVE SMOOTH",
"135 1516 OFFCURVE",
"71 1348 OFFCURVE",
"71 1106 CURVE SMOOTH",
"71 567 LINE SMOOTH",
"71 352 OFFCURVE",
"155 184 OFFCURVE",
"370 184 CURVE SMOOTH",
"493 184 OFFCURVE",
"570 235 OFFCURVE",
"599 338 CURVE",
"599 191 LINE SMOOTH",
"599 73 OFFCURVE",
"544 -7 OFFCURVE",
"429 -7 CURVE SMOOTH",
"342 -7 OFFCURVE",
"254 19 OFFCURVE",
"167 71 CURVE",
"46 -136 LINE",
"163 -234 OFFCURVE",
"268 -260 OFFCURVE",
"476 -260 CURVE SMOOTH"
);
},
{
closed = 1;
nodes = (
"441 454 OFFCURVE",
"433 534 OFFCURVE",
"433 606 CURVE SMOOTH",
"433 1116 LINE SMOOTH",
"433 1183 OFFCURVE",
"442 1243 OFFCURVE",
"511 1243 CURVE SMOOTH",
"566 1243 OFFCURVE",
"599 1171 OFFCURVE",
"599 1116 CURVE SMOOTH",
"599 606 LINE SMOOTH",
"599 505 OFFCURVE",
"571 454 OFFCURVE",
"515 454 CURVE SMOOTH"
);
}
);
width = 1032;
}
);
leftKerningGroup = g;
rightKerningGroup = g;
unicode = 0067;
userData = {
com.typemytype.robofont.layerData = {
};
};
},
{
glyphname = "gamma-latin";
layers = (
{
background = {
paths = (
{
closed = 1;
nodes = (
"480 38 LINE",
"431 38 OFFCURVE",
"406 78 OFFCURVE",
"406 159 CURVE SMOOTH",
"406 231 OFFCURVE",
"417 284 OFFCURVE",
"481 450 CURVE SMOOTH",
"526 567 LINE",
"644 555 LINE",
"937 1500 LINE",
"599 1500 LINE",
"469 925 LINE",
"346 856 LINE",
"202 544 LINE SMOOTH",
"130 389 OFFCURVE",
"99 253 OFFCURVE",
"99 125 CURVE SMOOTH",
"99 -96 OFFCURVE",
"236 -260 OFFCURVE",
"480 -260 CURVE"
);
},
{
closed = 1;
nodes = (
"724 -260 OFFCURVE",
"861 -96 OFFCURVE",
"861 125 CURVE SMOOTH",
"861 253 OFFCURVE",
"845 392 OFFCURVE",
"769 544 CURVE SMOOTH",
"614 856 LINE",
"491 925 LINE",
"361 1500 LINE",
"23 1500 LINE",
"316 555 LINE",
"434 567 LINE",
"479 450 LINE SMOOTH",
"543 284 OFFCURVE",
"554 231 OFFCURVE",
"554 159 CURVE SMOOTH",
"554 78 OFFCURVE",
"529 38 OFFCURVE",
"480 38 CURVE",
"480 -260 LINE"
);
}
);
};
layerId = "6CD1E358-6E98-409F-9A1F-EA9DE4C1A8AA";
paths = (
{
closed = 1;
nodes = (
"724 -260 OFFCURVE",
"861 -96 OFFCURVE",
"861 125 CURVE SMOOTH",
"861 253 OFFCURVE",
"845 392 OFFCURVE",
"769 544 CURVE SMOOTH",
"690 703 LINE",
"937 1500 LINE",
"599 1500 LINE",
"480 974 LINE",
"361 1500 LINE",
"23 1500 LINE",
"272 696 LINE",
"202 544 LINE SMOOTH",
"130 389 OFFCURVE",
"99 253 OFFCURVE",
"99 125 CURVE SMOOTH",
"99 -96 OFFCURVE",
"236 -260 OFFCURVE",
"480 -260 CURVE SMOOTH"
);
},
{
closed = 1;
nodes = (
"431 38 OFFCURVE",
"406 78 OFFCURVE",
"406 159 CURVE SMOOTH",
"406 231 OFFCURVE",
"417 283 OFFCURVE",
"480 447 CURVE",
"543 283 OFFCURVE",
"554 231 OFFCURVE",
"554 159 CURVE SMOOTH",
"554 78 OFFCURVE",
"529 38 OFFCURVE",
"480 38 CURVE SMOOTH"
);
}
);
width = 961;
}
);
unicode = 0263;
},
{
glyphname = ghook;
layers = (
{
background = {
paths = (
{
closed = 1;
nodes = (
"813 -260 OFFCURVE",
"964 -126 OFFCURVE",
"964 214 CURVE SMOOTH",
"964 1268 LINE",
"599 1268 LINE",
"599 1331 LINE",
"574 1444 OFFCURVE",
"502 1516 OFFCURVE",
"370 1516 CURVE SMOOTH",
"135 1516 OFFCURVE",
"71 1348 OFFCURVE",
"71 1106 CURVE SMOOTH",
"71 567 LINE SMOOTH",
"71 352 OFFCURVE",
"155 184 OFFCURVE",
"370 184 CURVE SMOOTH",
"493 184 OFFCURVE",
"570 235 OFFCURVE",
"599 338 CURVE",
"599 191 LINE SMOOTH",
"599 73 OFFCURVE",
"544 -7 OFFCURVE",
"429 -7 CURVE SMOOTH",
"342 -7 OFFCURVE",
"254 19 OFFCURVE",
"167 71 CURVE",
"46 -136 LINE",
"163 -234 OFFCURVE",
"268 -260 OFFCURVE",
"476 -260 CURVE SMOOTH"
);
},
{
closed = 1;
nodes = (
"441 454 OFFCURVE",
"433 534 OFFCURVE",
"433 606 CURVE SMOOTH",
"433 1116 LINE SMOOTH",
"433 1183 OFFCURVE",
"442 1243 OFFCURVE",
"511 1243 CURVE SMOOTH",
"566 1243 OFFCURVE",
"599 1171 OFFCURVE",
"599 1116 CURVE SMOOTH",
"599 606 LINE SMOOTH",
"599 505 OFFCURVE",
"571 454 OFFCURVE",
"515 454 CURVE SMOOTH"
);
},
{
closed = 1;
nodes = (
"964 1268 LINE",
"964 1368 LINE SMOOTH",
"964 1454 OFFCURVE",
"995 1500 OFFCURVE",
"1070 1500 CURVE",
"1070 1776 LINE",
"736 1776 OFFCURVE",
"599 1590 OFFCURVE",
"599 1328 CURVE SMOOTH",
"599 1268 LINE"
);
}
);
};
layerId = "6CD1E358-6E98-409F-9A1F-EA9DE4C1A8AA";
paths = (
{
closed = 1;
nodes = (
"813 -260 OFFCURVE",
"964 -126 OFFCURVE",
"964 214 CURVE SMOOTH",
"964 1368 LINE SMOOTH",
"964 1454 OFFCURVE",
"995 1500 OFFCURVE",
"1070 1500 CURVE",
"1070 1776 LINE",
"752 1776 OFFCURVE",
"596 1619 OFFCURVE",
"596 1296 CURVE",
"605 1298 LINE",
"587 1430 OFFCURVE",
"514 1516 OFFCURVE",
"370 1516 CURVE SMOOTH",
"135 1516 OFFCURVE",
"71 1348 OFFCURVE",
"71 1106 CURVE SMOOTH",
"71 567 LINE SMOOTH",
"71 352 OFFCURVE",
"155 184 OFFCURVE",
"370 184 CURVE SMOOTH",
"493 184 OFFCURVE",
"570 235 OFFCURVE",
"599 338 CURVE",
"599 191 LINE SMOOTH",
"599 73 OFFCURVE",
"544 -7 OFFCURVE",
"429 -7 CURVE SMOOTH",
"342 -7 OFFCURVE",
"254 19 OFFCURVE",
"167 71 CURVE",
"46 -136 LINE",
"163 -234 OFFCURVE",
"268 -260 OFFCURVE",
"476 -260 CURVE SMOOTH"
);
},
{
closed = 1;
nodes = (
"441 454 OFFCURVE",
"433 534 OFFCURVE",
"433 606 CURVE SMOOTH",
"433 1116 LINE SMOOTH",
"433 1183 OFFCURVE",
"442 1243 OFFCURVE",
"511 1243 CURVE SMOOTH",
"566 1243 OFFCURVE",
"599 1171 OFFCURVE",
"599 1116 CURVE SMOOTH",
"599 606 LINE SMOOTH",
"599 505 OFFCURVE",
"571 454 OFFCURVE",
"515 454 CURVE SMOOTH"
);
}
);
width = 1032;
}
);
leftKerningGroup = g;
unicode = 0260;
},
{
glyphname = glottalstop;
layers = (
{
layerId = "6CD1E358-6E98-409F-9A1F-EA9DE4C1A8AA";
paths = (
{
closed = 1;
nodes = (
"620 0 LINE",
"620 625 LINE",
"850 625 OFFCURVE",
"978 880 OFFCURVE",
"978 1226 CURVE SMOOTH",
"978 1579 OFFCURVE",
"863 1776 OFFCURVE",
"508 1776 CURVE SMOOTH",
"237 1776 OFFCURVE",
"48 1648 OFFCURVE",
"48 1379 CURVE SMOOTH",
"48 1125 LINE",
"414 1125 LINE",
"414 1271 LINE SMOOTH",
"414 1363 OFFCURVE",
"421 1457 OFFCURVE",
"508 1457 CURVE SMOOTH",
"588 1457 OFFCURVE",
"601 1381 OFFCURVE",
"601 1294 CURVE SMOOTH",
"601 912 OFFCURVE",
"510 871 OFFCURVE",
"287 871 CURVE",
"287 0 LINE"
);
}
);
width = 1008;
}
);
unicode = 0294;
},
{
glyphname = glottalstopreversed;
layers = (
{
layerId = "6CD1E358-6E98-409F-9A1F-EA9DE4C1A8AA";
paths = (
{
closed = 1;
nodes = (
"721 871 LINE",
"498 871 OFFCURVE",
"407 912 OFFCURVE",
"407 1294 CURVE SMOOTH",
"407 1381 OFFCURVE",
"420 1457 OFFCURVE",
"500 1457 CURVE SMOOTH",
"587 1457 OFFCURVE",
"594 1363 OFFCURVE",
"594 1271 CURVE SMOOTH",
"594 1125 LINE",
"960 1125 LINE",
"960 1379 LINE SMOOTH",
"960 1648 OFFCURVE",
"771 1776 OFFCURVE",
"500 1776 CURVE SMOOTH",
"145 1776 OFFCURVE",
"30 1579 OFFCURVE",
"30 1226 CURVE SMOOTH",
"30 880 OFFCURVE",
"158 625 OFFCURVE",
"388 625 CURVE",
"388 0 LINE",
"721 0 LINE"
);
}
);
width = 1008;
}
);
unicode = 0295;
},
{
glyphname = glottalstopsmall;
layers = (
{
background = {
components = (
{
name = question;
transform = "{1, 0, 0, 1, 0, -260}";
}
);
};
layerId = "6CD1E358-6E98-409F-9A1F-EA9DE4C1A8AA";
paths = (
{
closed = 1;
nodes = (
"620 0 LINE",
"620 365 LINE",
"850 365 OFFCURVE",
"978 620 OFFCURVE",
"978 966 CURVE SMOOTH",
"978 1319 OFFCURVE",
"863 1516 OFFCURVE",
"508 1516 CURVE SMOOTH",
"237 1516 OFFCURVE",
"48 1388 OFFCURVE",
"48 1119 CURVE SMOOTH",
"48 865 LINE",
"414 865 LINE",
"414 1011 LINE SMOOTH",
"414 1103 OFFCURVE",
"421 1197 OFFCURVE",
"508 1197 CURVE SMOOTH",
"588 1197 OFFCURVE",
"601 1121 OFFCURVE",
"601 1034 CURVE SMOOTH",
"601 652 OFFCURVE",
"510 611 OFFCURVE",
"287 611 CURVE",
"287 0 LINE"
);
}
);
width = 1008;
}
);
unicode = 0242;
},
{
glyphname = gstroke;
layers = (
{
anchors = (
{
name = top;
position = "{509, 1500}";
}
);
layerId = "6CD1E358-6E98-409F-9A1F-EA9DE4C1A8AA";
paths = (
{
closed = 1;
nodes = (
"813 -260 OFFCURVE",
"964 -126 OFFCURVE",
"964 278 CURVE SMOOTH",
"964 1500 LINE",
"599 1500 LINE",
"599 1331 LINE",
"574 1444 OFFCURVE",
"502 1516 OFFCURVE",
"370 1516 CURVE SMOOTH",
"135 1516 OFFCURVE",
"71 1348 OFFCURVE",
"71 1106 CURVE SMOOTH",
"71 697 LINE SMOOTH",
"71 482 OFFCURVE",
"155 314 OFFCURVE",
"370 314 CURVE SMOOTH",
"493 314 OFFCURVE",
"570 365 OFFCURVE",
"599 468 CURVE",
"599 191 LINE SMOOTH",
"599 33 OFFCURVE",
"544 -7 OFFCURVE",
"429 -7 CURVE SMOOTH",
"342 -7 OFFCURVE",
"254 19 OFFCURVE",
"167 71 CURVE",
"46 -136 LINE",
"163 -234 OFFCURVE",
"268 -260 OFFCURVE",
"476 -260 CURVE SMOOTH"
);
},
{
closed = 1;
nodes = (
"441 584 OFFCURVE",
"433 664 OFFCURVE",
"433 736 CURVE SMOOTH",
"433 1116 LINE SMOOTH",
"433 1183 OFFCURVE",
"442 1243 OFFCURVE",
"511 1243 CURVE SMOOTH",
"566 1243 OFFCURVE",
"599 1171 OFFCURVE",
"599 1116 CURVE SMOOTH",
"599 736 LINE SMOOTH",
"599 635 OFFCURVE",
"571 584 OFFCURVE",
"515 584 CURVE SMOOTH"
);
},
{
closed = 1;
nodes = (
"1046 93 LINE",
"1046 246 LINE",
"396 246 LINE",
"396 93 LINE"
);
}
);
width = 1062;
}
);
leftKerningGroup = g;
unicode = 01E5;
},
{
glyphname = h;
layers = (
{
anchors = (
{
name = bottom;
position = "{518, 0}";
},
{
name = center;
position = "{518, 1000}";
},
{
name = mid;
position = "{250, 1603}";
},
{
name = top;
position = "{256, 1760}";
}
);
background = {
anchors = (
{
name = mid;
position = "{250, 1603}";
},
{
name = top;
position = "{256, 1770}";
}
);
paths = (
{
closed = 1;
nodes = (
"440 0 LINE",
"440 1135 LINE SMOOTH",
"440 1194 OFFCURVE",
"471 1243 OFFCURVE",
"520 1243 CURVE SMOOTH",
"579 1243 OFFCURVE",
"609 1197 OFFCURVE",
"609 1132 CURVE",
"608 0 LINE",
"967 0 LINE",
"967 1155 LINE SMOOTH",
"967 1375 OFFCURVE",
"867 1516 OFFCURVE",
"659 1516 CURVE SMOOTH",
"552 1516 OFFCURVE",
"479 1463 OFFCURVE",
"440 1351 CURVE",
"440 1770 LINE",
"72 1770 LINE",
"72 0 LINE"
);
}
);
};
layerId = "6CD1E358-6E98-409F-9A1F-EA9DE4C1A8AA";
paths = (
{
closed = 1;
nodes = (
"440 0 LINE",
"440 1135 LINE SMOOTH",
"440 1194 OFFCURVE",
"471 1243 OFFCURVE",
"520 1243 CURVE SMOOTH",
"579 1243 OFFCURVE",
"605 1197 OFFCURVE",
"605 1132 CURVE SMOOTH",
"605 0 LINE",
"967 0 LINE",
"967 1155 LINE SMOOTH",
"967 1375 OFFCURVE",
"877 1516 OFFCURVE",
"669 1516 CURVE SMOOTH",
"562 1516 OFFCURVE",
"479 1463 OFFCURVE",
"440 1351 CURVE",
"440 1760 LINE",
"72 1760 LINE",
"72 0 LINE"
);
}
);
width = 1035;
}
);
leftKerningGroup = l;
rightKerningGroup = n;
unicode = 0068;
userData = {
com.typemytype.robofont.layerData = {
};
};
},
{
glyphname = hbar;
layers = (
{
background = {
components = (
{
name = h;
},
{
name = macron;
transform = "{1, 0, 0, 1, -603, -107}";
}
);
};
components = (
{
name = h;
}
);
layerId = "6CD1E358-6E98-409F-9A1F-EA9DE4C1A8AA";
paths = (
{
closed = 1;
nodes = (
"572 1512 LINE",
"572 1665 LINE",
"-78 1665 LINE",
"-78 1512 LINE"
);
}
);
width = 1035;
}
);
unicode = 0127;
},
{
glyphname = heng;
layers = (
{
background = {
paths = (
{
closed = 1;
nodes = (
"440 0 LINE",
"440 1135 LINE SMOOTH",
"440 1194 OFFCURVE",
"471 1243 OFFCURVE",
"520 1243 CURVE SMOOTH",
"579 1243 OFFCURVE",
"609 1197 OFFCURVE",
"609 1132 CURVE SMOOTH",
"609 188 LINE",
"967 188 LINE",
"967 1155 LINE SMOOTH",
"967 1375 OFFCURVE",
"867 1516 OFFCURVE",
"659 1516 CURVE SMOOTH",
"552 1516 OFFCURVE",
"479 1463 OFFCURVE",
"440 1351 CURVE",
"440 1760 LINE",
"72 1760 LINE",
"72 0 LINE"
);
},
{
closed = 1;
nodes = (
"868 -260 OFFCURVE",
"967 -114 OFFCURVE",
"967 138 CURVE SMOOTH",
"967 188 LINE",
"609 188 LINE",
"609 148 LINE SMOOTH",
"609 62 OFFCURVE",
"587 16 OFFCURVE",
"522 16 CURVE",
"522 -260 LINE"
);
}
);
};
layerId = "6CD1E358-6E98-409F-9A1F-EA9DE4C1A8AA";
paths = (
{
closed = 1;
nodes = (
"868 -260 OFFCURVE",
"967 -114 OFFCURVE",
"967 138 CURVE SMOOTH",
"967 1155 LINE SMOOTH",
"967 1375 OFFCURVE",
"877 1516 OFFCURVE",
"669 1516 CURVE SMOOTH",
"562 1516 OFFCURVE",
"479 1463 OFFCURVE",
"440 1351 CURVE",
"440 1760 LINE",
"72 1760 LINE",
"72 0 LINE",
"440 0 LINE",
"440 1135 LINE SMOOTH",
"440 1194 OFFCURVE",
"471 1243 OFFCURVE",
"520 1243 CURVE SMOOTH",
"579 1243 OFFCURVE",
"609 1197 OFFCURVE",
"609 1132 CURVE SMOOTH",
"609 148 LINE SMOOTH",
"609 62 OFFCURVE",
"587 16 OFFCURVE",
"522 16 CURVE",
"522 -260 LINE"
);
}
);
width = 1035;
}
);
leftKerningGroup = l;
rightKerningGroup = n;
unicode = A727;
},
{
glyphname = hhook;
layers = (
{
background = {
paths = (
{
closed = 1;
nodes = (
"440 0 LINE",
"440 1035 LINE SMOOTH",
"440 1094 OFFCURVE",
"471 1143 OFFCURVE",
"520 1143 CURVE SMOOTH",
"579 1143 OFFCURVE",
"609 1097 OFFCURVE",
"609 1032 CURVE SMOOTH",
"609 0 LINE",
"967 0 LINE",
"967 1055 LINE SMOOTH",
"967 1275 OFFCURVE",
"867 1416 OFFCURVE",
"669 1416 CURVE SMOOTH",
"552 1416 OFFCURVE",
"479 1363 OFFCURVE",
"440 1251 CURVE",
"440 1268 LINE",
"72 1268 LINE",
"72 0 LINE"
);
},
{
closed = 1;
nodes = (
"440 1268 LINE",
"440 1368 LINE SMOOTH",
"440 1454 OFFCURVE",
"469 1500 OFFCURVE",
"544 1500 CURVE",
"544 1776 LINE",
"210 1776 OFFCURVE",
"71 1590 OFFCURVE",
"71 1328 CURVE SMOOTH",
"71 1268 LINE"
);
}
);
};
layerId = "6CD1E358-6E98-409F-9A1F-EA9DE4C1A8AA";
paths = (
{
closed = 1;
nodes = (
"440 0 LINE",
"440 1035 LINE SMOOTH",
"440 1094 OFFCURVE",
"471 1143 OFFCURVE",
"520 1143 CURVE SMOOTH",
"579 1143 OFFCURVE",
"609 1097 OFFCURVE",
"609 1032 CURVE SMOOTH",
"609 0 LINE",
"967 0 LINE",
"967 1055 LINE SMOOTH",
"967 1275 OFFCURVE",
"867 1416 OFFCURVE",
"669 1416 CURVE SMOOTH",
"552 1416 OFFCURVE",
"479 1363 OFFCURVE",
"440 1251 CURVE",
"440 1368 LINE SMOOTH",
"440 1454 OFFCURVE",
"469 1500 OFFCURVE",
"544 1500 CURVE",
"544 1776 LINE",
"210 1776 OFFCURVE",
"72 1590 OFFCURVE",
"72 1328 CURVE SMOOTH",
"72 0 LINE"
);
}
);
width = 1035;
}
);
unicode = 0266;
},
{
glyphname = hturned;
layers = (
{
layerId = "6CD1E358-6E98-409F-9A1F-EA9DE4C1A8AA";
paths = (
{
closed = 1;
nodes = (
"950 -250 LINE",
"950 1500 LINE",
"593 1500 LINE",
"593 443 LINE SMOOTH",
"593 315 OFFCURVE",
"568 264 OFFCURVE",
"509 264 CURVE SMOOTH",
"451 264 OFFCURVE",
"428 300 OFFCURVE",
"428 435 CURVE SMOOTH",
"428 1500 LINE",
"68 1500 LINE",
"68 383 LINE SMOOTH",
"68 143 OFFCURVE",
"110 -16 OFFCURVE",
"351 -16 CURVE SMOOTH",
"487 -16 OFFCURVE",
"546 45 OFFCURVE",
"592 160 CURVE",
"592 -250 LINE"
);
}
);
width = 1022;
}
);
unicode = 0265;
},
{
glyphname = i;
layers = (
{
anchors = (
{
name = bottom;
position = "{249, 0}";
},
{
name = ogonek;
position = "{340, 0}";
}
);
background = {
anchors = (
{
name = bottom;
position = "{249, 0}";
},
{
name = ogonek;
position = "{340, 0}";
}
);
paths = (
{
closed = 1;
nodes = (
"428 0 LINE",
"428 1500 LINE",
"70 1500 LINE",
"70 0 LINE"
);
},
{
closed = 1;
nodes = (
"428 1600 LINE",
"428 1850 LINE",
"70 1850 LINE",
"70 1600 LINE"
);
}
);
};
layerId = "6CD1E358-6E98-409F-9A1F-EA9DE4C1A8AA";
paths = (
{
closed = 1;
nodes = (
"428 0 LINE",
"428 1500 LINE",
"70 1500 LINE",
"70 0 LINE"
);
},
{
closed = 1;
nodes = (
"428 1592 LINE",
"428 1890 LINE",
"70 1890 LINE",
"70 1592 LINE"
);
}
);
width = 498;
}
);
leftKerningGroup = i;
rightKerningGroup = i;
unicode = 0069;
userData = {
com.typemytype.robofont.layerData = {
};
};
},
{
glyphname = idotless;
layers = (
{
anchors = (
{
name = bottom;
position = "{241, 0}";
},
{
name = ogonek;
position = "{260, 0}";
},
{
name = top;
position = "{241, 1500}";
}
);
background = {
anchors = (
{
name = ogonek;
position = "{260, 0}";
},
{
name = top;
position = "{241, 1500}";
}
);
paths = (
{
closed = 1;
nodes = (
"420 0 LINE",
"420 1500 LINE",
"62 1500 LINE",
"62 0 LINE"
);
}
);
};
layerId = "6CD1E358-6E98-409F-9A1F-EA9DE4C1A8AA";
paths = (
{
closed = 1;
nodes = (
"420 0 LINE",
"420 1500 LINE",
"62 1500 LINE",
"62 0 LINE"
);
}
);
width = 482;
}
);
leftKerningGroup = i;
rightKerningGroup = i;
unicode = 0131;
userData = {
com.typemytype.robofont.layerData = {
};
};
},
{
glyphname = "iota-latin";
layers = (
{
layerId = "6CD1E358-6E98-409F-9A1F-EA9DE4C1A8AA";
paths = (
{
closed = 1;
nodes = (
"500 260 LINE",
"450 260 OFFCURVE",
"420 278 OFFCURVE",
"420 392 CURVE SMOOTH",
"420 1500 LINE",
"62 1500 LINE",
"62 412 LINE SMOOTH",
"62 130 OFFCURVE",
"237 -16 OFFCURVE",
"500 -16 CURVE"
);
}
);
width = 500;
}
);
unicode = 0269;
},
{
glyphname = istroke;
layers = (
{
components = (
{
alignment = -1;
name = idotless;
transform = "{1, 0, 0, 1, 79, 0}";
},
{
name = dotaccentcomb;
transform = "{1, 0, 0, 1, 320, 0}";
}
);
layerId = "6CD1E358-6E98-409F-9A1F-EA9DE4C1A8AA";
paths = (
{
closed = 1;
nodes = (
"630 679 LINE",
"630 911 LINE",
"10 911 LINE",
"10 679 LINE"
);
}
);
width = 640;
}
);
unicode = 0268;
},
{
glyphname = j;
layers = (
{
background = {
paths = (
{
closed = 1;
nodes = (
"392 -176 OFFCURVE",
"468 -47 OFFCURVE",
"468 166 CURVE SMOOTH",
"468 1500 LINE",
"110 1500 LINE",
"110 156 LINE SMOOTH",
"110 115 OFFCURVE",
"105 85 OFFCURVE",
"67 85 CURVE SMOOTH",
"56 85 OFFCURVE",
"45 87 OFFCURVE",
"34 90 CURVE",
"34 -150 LINE",
"59 -167 OFFCURVE",
"109 -176 OFFCURVE",
"186 -176 CURVE SMOOTH"
);
},
{
closed = 1;
nodes = (
"468 1600 LINE",
"468 1850 LINE",
"110 1850 LINE",
"110 1600 LINE"
);
}
);
};
layerId = "6CD1E358-6E98-409F-9A1F-EA9DE4C1A8AA";
paths = (
{
closed = 1;
nodes = (
"392 -260 OFFCURVE",
"468 -131 OFFCURVE",
"468 82 CURVE SMOOTH",
"468 1500 LINE",
"110 1500 LINE",
"110 72 LINE SMOOTH",
"110 31 OFFCURVE",
"105 1 OFFCURVE",
"67 1 CURVE SMOOTH",
"56 1 OFFCURVE",
"45 3 OFFCURVE",
"34 6 CURVE",
"34 -234 LINE",
"59 -251 OFFCURVE",
"109 -260 OFFCURVE",
"186 -260 CURVE SMOOTH"
);
},
{
closed = 1;
nodes = (
"468 1592 LINE",
"468 1890 LINE",
"110 1890 LINE",
"110 1592 LINE"
);
}
);
width = 538;
}
);
leftKerningGroup = j;
unicode = 006A;
userData = {
com.typemytype.robofont.layerData = {
};
};
},
{
glyphname = jdotless;
layers = (
{
anchors = (
{
name = top;
position = "{297, 1500}";
}
);
background = {
anchors = (
{
name = top;
position = "{297, 1500}";
}
);
paths = (
{
closed = 1;
nodes = (
"392 -176 OFFCURVE",
"468 -47 OFFCURVE",
"468 166 CURVE SMOOTH",
"468 1500 LINE",
"110 1500 LINE",
"110 156 LINE SMOOTH",
"110 115 OFFCURVE",
"105 85 OFFCURVE",
"67 85 CURVE SMOOTH",
"56 85 OFFCURVE",
"45 87 OFFCURVE",
"34 90 CURVE",
"34 -150 LINE",
"59 -167 OFFCURVE",
"109 -176 OFFCURVE",
"186 -176 CURVE SMOOTH"
);
}
);
};
layerId = "6CD1E358-6E98-409F-9A1F-EA9DE4C1A8AA";
paths = (
{
closed = 1;
nodes = (
"392 -260 OFFCURVE",
"468 -131 OFFCURVE",
"468 82 CURVE SMOOTH",
"468 1500 LINE",
"110 1500 LINE",
"110 72 LINE SMOOTH",
"110 31 OFFCURVE",
"105 1 OFFCURVE",
"67 1 CURVE SMOOTH",
"56 1 OFFCURVE",
"45 3 OFFCURVE",
"34 6 CURVE",
"34 -234 LINE",
"59 -251 OFFCURVE",
"109 -260 OFFCURVE",
"186 -260 CURVE SMOOTH"
);
}
);
width = 538;
}
);
leftKerningGroup = j;
unicode = 0237;
},
{
glyphname = jcrossedtail;
layers = (
{
layerId = "6CD1E358-6E98-409F-9A1F-EA9DE4C1A8AA";
paths = (
{
closed = 1;
nodes = (
"624 -260 OFFCURVE",
"780 -131 OFFCURVE",
"780 82 CURVE SMOOTH",
"780 298 LINE",
"808 287 OFFCURVE",
"837 275 OFFCURVE",
"867 261 CURVE",
"867 536 LINE",
"837 550 OFFCURVE",
"808 562 OFFCURVE",
"780 572 CURVE",
"780 1500 LINE",
"422 1500 LINE",
"422 612 LINE",
"123 577 OFFCURVE",
"-10 384 OFFCURVE",
"-10 174 CURVE SMOOTH",
"-10 -119 OFFCURVE",
"133 -260 OFFCURVE",
"378 -260 CURVE SMOOTH"
);
},
{
closed = 1;
nodes = (
"322 1 OFFCURVE",
"298 30 OFFCURVE",
"298 134 CURVE SMOOTH",
"298 249 OFFCURVE",
"332 310 OFFCURVE",
"422 333 CURVE",
"422 72 LINE SMOOTH",
"422 31 OFFCURVE",
"406 1 OFFCURVE",
"365 1 CURVE SMOOTH"
);
},
{
closed = 1;
nodes = (
"780 1592 LINE",
"780 1890 LINE",
"422 1890 LINE",
"422 1592 LINE"
);
}
);
width = 857;
}
);
unicode = 029D;
},
{
glyphname = jstroke;
layers = (
{
components = (
{
alignment = -1;
name = j;
transform = "{1, 0, 0, 1, 47, 0}";
}
);
layerId = "6CD1E358-6E98-409F-9A1F-EA9DE4C1A8AA";
paths = (
{
closed = 1;
nodes = (
"626 649 LINE",
"626 881 LINE",
"46 881 LINE",
"46 649 LINE"
);
}
);
width = 656;
}
);
unicode = 0249;
},
{
glyphname = k;
layers = (
{
anchors = (
{
name = bottom;
position = "{537, 0}";
},
{
name = top;
position = "{249, 1760}";
}
);
background = {
anchors = (
{
name = bot;
position = "{537, 0}";
},
{
name = top;
position = "{249, 1769}";
}
);
paths = (
{
closed = 1;
nodes = (
"426 0 LINE",
"426 707 LINE",
"649 0 LINE",
"1030 0 LINE",
"744 848 LINE",
"969 1500 LINE",
"598 1500 LINE",
"426 983 LINE",
"426 1769 LINE",
"72 1769 LINE",
"72 0 LINE"
);
}
);
};
layerId = "6CD1E358-6E98-409F-9A1F-EA9DE4C1A8AA";
paths = (
{
closed = 1;
nodes = (
"426 0 LINE",
"426 707 LINE",
"649 0 LINE",
"1030 0 LINE",
"744 848 LINE",
"969 1500 LINE",
"598 1500 LINE",
"426 983 LINE",
"426 1760 LINE",
"72 1760 LINE",
"72 0 LINE"
);
}
);
width = 1005;
}
);
leftKerningGroup = l;
rightKerningGroup = k;
unicode = 006B;
userData = {
com.typemytype.robofont.layerData = {
};
};
},
{
glyphname = kgreenlandic;
layers = (
{
background = {
paths = (
{
closed = 1;
nodes = (
"426 0 LINE",
"426 674 LINE",
"649 0 LINE",
"1030 0 LINE",
"744 815 LINE",
"969 1500 LINE",
"598 1500 LINE",
"426 950 LINE",
"426 1500 LINE",
"72 1500 LINE",
"72 0 LINE"
);
}
);
};
layerId = "6CD1E358-6E98-409F-9A1F-EA9DE4C1A8AA";
paths = (
{
closed = 1;
nodes = (
"426 0 LINE",
"426 674 LINE",
"649 0 LINE",
"1030 0 LINE",
"744 815 LINE",
"969 1500 LINE",
"598 1500 LINE",
"426 950 LINE",
"426 1500 LINE",
"72 1500 LINE",
"72 0 LINE"
);
}
);
width = 1009;
}
);
leftKerningGroup = l;
rightKerningGroup = k;
unicode = 0138;
userData = {
com.typemytype.robofont.layerData = {
};
};
},
{
glyphname = khook;
layers = (
{
background = {
paths = (
{
closed = 1;
nodes = (
"426 0 LINE",
"426 707 LINE",
"649 0 LINE",
"1030 0 LINE",
"744 848 LINE",
"969 1500 LINE",
"598 1500 LINE",
"426 983 LINE",
"426 1289 LINE",
"72 1289 LINE",
"72 0 LINE"
);
},
{
closed = 1;
nodes = (
"426 1268 LINE",
"426 1368 LINE SMOOTH",
"426 1454 OFFCURVE",
"455 1500 OFFCURVE",
"530 1500 CURVE",
"530 1776 LINE",
"210 1776 OFFCURVE",
"71 1590 OFFCURVE",
"71 1328 CURVE SMOOTH",
"71 1268 LINE"
);
}
);
};
layerId = "6CD1E358-6E98-409F-9A1F-EA9DE4C1A8AA";
paths = (
{
closed = 1;
nodes = (
"598 1500 LINE",
"426 983 LINE",
"426 1368 LINE SMOOTH",
"426 1454 OFFCURVE",
"455 1500 OFFCURVE",
"530 1500 CURVE",
"530 1776 LINE",
"210 1776 OFFCURVE",
"72 1590 OFFCURVE",
"72 1328 CURVE SMOOTH",
"72 0 LINE",
"426 0 LINE",
"426 707 LINE",
"649 0 LINE",
"1030 0 LINE",
"744 848 LINE",
"969 1500 LINE"
);
}
);
width = 1005;
}
);
leftKerningGroup = l;
rightKerningGroup = k;
unicode = 0199;
},
{
glyphname = kstroke;
layers = (
{
background = {
components = (
{
name = hbar;
}
);
};
components = (
{
name = k;
}
);
layerId = "6CD1E358-6E98-409F-9A1F-EA9DE4C1A8AA";
paths = (
{
closed = 1;
nodes = (
"573 1512 LINE",
"573 1665 LINE",
"-37 1665 LINE",
"-37 1512 LINE"
);
}
);
width = 1005;
}
);
rightKerningGroup = k;
unicode = A741;
},
{
glyphname = l;
layers = (
{
anchors = (
{
name = bottom;
position = "{254, 0}";
},
{
name = caron.alt;
position = "{192, 1500}";
},
{
name = mid;
position = "{672, 988}";
},
{
name = top;
position = "{254, 1760}";
}
);
background = {
anchors = (
{
name = bot;
position = "{288, 0}";
},
{
name = caron.alt;
position = "{254, 1500}";
},
{
name = mid;
position = "{702, 988}";
},
{
name = top;
position = "{254, 1770}";
}
);
paths = (
{
closed = 1;
nodes = (
"436 0 LINE",
"436 1770 LINE",
"72 1770 LINE",
"72 0 LINE"
);
}
);
};
layerId = "6CD1E358-6E98-409F-9A1F-EA9DE4C1A8AA";
paths = (
{
closed = 1;
nodes = (
"436 0 LINE",
"436 1760 LINE",
"72 1760 LINE",
"72 0 LINE"
);
}
);
width = 508;
}
);
leftKerningGroup = l;
rightKerningGroup = l;
unicode = 006C;
userData = {
com.typemytype.robofont.layerData = {
};
};
},
{
glyphname = lambdastroke;
layers = (
{
background = {
paths = (
{
closed = 1;
nodes = (
"43 1523 LINE",
"215 1523 LINE SMOOTH",
"257 1523 OFFCURVE",
"255 1500 OFFCURVE",
"250 1469 CURVE SMOOTH",
"16 0 LINE",
"359 0 LINE",
"425 733 LINE SMOOTH",
"459 1105 LINE",
"497 733 LINE SMOOTH",
"577 0 LINE",
"922 0 LINE",
"644 1578 LINE SMOOTH",
"624 1691 OFFCURVE",
"576 1750 OFFCURVE",
"447 1750 CURVE SMOOTH",
"43 1750 LINE"
);
}
);
};
guideLines = (
{
angle = -79.796;
position = "{498, 438}";
}
);
layerId = "6CD1E358-6E98-409F-9A1F-EA9DE4C1A8AA";
paths = (
{
closed = 1;
nodes = (
"957 266 LINE",
"903 266 OFFCURVE",
"880 285 OFFCURVE",
"852 398 CURVE SMOOTH",
"604 1388 LINE SMOOTH",
"541 1641 OFFCURVE",
"406 1776 OFFCURVE",
"66 1776 CURVE",
"66 1500 LINE",
"161 1500 OFFCURVE",
"240 1453 OFFCURVE",
"261 1368 CURVE SMOOTH",
"509 378 LINE SMOOTH",
"572 125 OFFCURVE",
"637 -10 OFFCURVE",
"957 -10 CURVE"
);
},
{
closed = 1;
nodes = (
"366 0 LINE",
"502 1280 LINE",
"238 1280 LINE",
"2 0 LINE"
);
},
{
closed = 1;
nodes = (
"785 1222 LINE",
"785 1375 LINE",
"70 1375 LINE",
"70 1222 LINE"
);
}
);
width = 944;
}
);
unicode = 019B;
},
{
glyphname = lbelt;
layers = (
{
background = {
components = (
{
name = lbar;
transform = "{1, 0, 0, 1, 130, 0}";
}
);
};
layerId = "6CD1E358-6E98-409F-9A1F-EA9DE4C1A8AA";
paths = (
{
closed = 1;
nodes = (
"632 0 LINE",
"632 1760 LINE",
"268 1760 LINE",
"268 0 LINE"
);
},
{
closed = 1;
nodes = (
"780 690 LINE",
"780 921 LINE",
"274 921 LINE SMOOTH",
"209 921 OFFCURVE",
"184 942 OFFCURVE",
"184 981 CURVE SMOOTH",
"184 1020 OFFCURVE",
"209 1040 OFFCURVE",
"274 1040 CURVE",
"299 1251 LINE",
"104 1251 OFFCURVE",
"-10 1147 OFFCURVE",
"-10 960 CURVE SMOOTH",
"-10 794 OFFCURVE",
"125 690 OFFCURVE",
"299 690 CURVE SMOOTH"
);
}
);
width = 770;
}
);
unicode = 026C;
},
{
glyphname = lslash;
layers = (
{
background = {
paths = (
{
closed = 1;
nodes = (
"476 0 LINE",
"476 1767 LINE",
"112 1767 LINE",
"112 0 LINE"
);
},
{
closed = 1;
nodes = (
"593 851 LINE",
"593 1143 LINE",
"-3 911 LINE",
"-3 619 LINE"
);
}
);
};
layerId = "6CD1E358-6E98-409F-9A1F-EA9DE4C1A8AA";
paths = (
{
closed = 1;
nodes = (
"476 0 LINE",
"476 1767 LINE",
"112 1767 LINE",
"112 0 LINE"
);
},
{
closed = 1;
nodes = (
"593 871 LINE",
"593 1143 LINE",
"-3 911 LINE",
"-3 639 LINE"
);
}
);
width = 590;
}
);
unicode = 0142;
userData = {
com.typemytype.robofont.layerData = {
};
};
},
{
glyphname = m;
layers = (
{
anchors = (
{
name = bottom;
position = "{777, 0}";
},
{
name = top;
position = "{779, 1500}";
}
);
background = {
anchors = (
{
name = top;
position = "{779, 1500}";
}
);
paths = (
{
closed = 1;
nodes = (
"422 0 LINE",
"422 1059 LINE SMOOTH",
"422 1140 OFFCURVE",
"441 1243 OFFCURVE",
"522 1243 CURVE SMOOTH",
"585 1243 OFFCURVE",
"592 1165 OFFCURVE",
"592 1102 CURVE SMOOTH",
"592 0 LINE",
"950 0 LINE",
"950 1077 LINE SMOOTH",
"950 1154 OFFCURVE",
"970 1247 OFFCURVE",
"1047 1247 CURVE SMOOTH",
"1096 1247 OFFCURVE",
"1120 1199 OFFCURVE",
"1120 1102 CURVE SMOOTH",
"1120 0 LINE",
"1481 0 LINE",
"1485 1096 LINE",
"1485 1343 OFFCURVE",
"1421 1516 OFFCURVE",
"1172 1516 CURVE SMOOTH",
"1034 1516 OFFCURVE",
"972 1464 OFFCURVE",
"917 1365 CURVE",
"882 1456 OFFCURVE",
"794 1516 OFFCURVE",
"674 1516 CURVE SMOOTH",
"524 1516 OFFCURVE",
"454 1448 OFFCURVE",
"422 1326 CURVE",
"422 1500 LINE",
"72 1500 LINE",
"72 0 LINE"
);
}
);
};
layerId = "6CD1E358-6E98-409F-9A1F-EA9DE4C1A8AA";
paths = (
{
closed = 1;
nodes = (
"430 0 LINE",
"430 1059 LINE SMOOTH",
"430 1140 OFFCURVE",
"449 1243 OFFCURVE",
"530 1243 CURVE SMOOTH",
"593 1243 OFFCURVE",
"600 1165 OFFCURVE",
"600 1102 CURVE SMOOTH",
"600 0 LINE",
"957 0 LINE",
"957 1077 LINE SMOOTH",
"957 1154 OFFCURVE",
"977 1247 OFFCURVE",
"1054 1247 CURVE SMOOTH",
"1104 1247 OFFCURVE",
"1128 1199 OFFCURVE",
"1128 1102 CURVE SMOOTH",
"1128 0 LINE",
"1485 0 LINE",
"1485 1096 LINE SMOOTH",
"1485 1343 OFFCURVE",
"1421 1516 OFFCURVE",
"1172 1516 CURVE SMOOTH",
"1034 1516 OFFCURVE",
"972 1464 OFFCURVE",
"917 1365 CURVE",
"882 1456 OFFCURVE",
"794 1516 OFFCURVE",
"674 1516 CURVE SMOOTH",
"524 1516 OFFCURVE",
"454 1448 OFFCURVE",
"422 1326 CURVE",
"422 1500 LINE",
"72 1500 LINE",
"72 0 LINE"
);
}
);
width = 1553;
}
);
leftKerningGroup = n;
rightKerningGroup = n;
unicode = 006D;
userData = {
com.typemytype.robofont.layerData = {
};
};
},
{
glyphname = mturned;
layers = (
{
layerId = "6CD1E358-6E98-409F-9A1F-EA9DE4C1A8AA";
paths = (
{
closed = 1;
nodes = (
"1123 1500 LINE",
"1123 441 LINE SMOOTH",
"1123 360 OFFCURVE",
"1104 257 OFFCURVE",
"1023 257 CURVE SMOOTH",
"960 257 OFFCURVE",
"953 335 OFFCURVE",
"953 398 CURVE SMOOTH",
"953 1500 LINE",
"596 1500 LINE",
"596 423 LINE SMOOTH",
"596 346 OFFCURVE",
"576 253 OFFCURVE",
"499 253 CURVE SMOOTH",
"449 253 OFFCURVE",
"425 301 OFFCURVE",
"425 398 CURVE SMOOTH",
"425 1500 LINE",
"68 1500 LINE",
"68 404 LINE SMOOTH",
"68 157 OFFCURVE",
"132 -16 OFFCURVE",
"381 -16 CURVE SMOOTH",
"519 -16 OFFCURVE",
"581 36 OFFCURVE",
"636 135 CURVE",
"671 44 OFFCURVE",
"759 -16 OFFCURVE",
"879 -16 CURVE SMOOTH",
"1029 -16 OFFCURVE",
"1099 52 OFFCURVE",
"1131 174 CURVE",
"1131 0 LINE",
"1481 0 LINE",
"1481 1500 LINE"
);
}
);
width = 1553;
}
);
unicode = 026F;
},
{
glyphname = n;
layers = (
{
anchors = (
{
name = bot;
position = "{517, 0}";
},
{
name = bottom;
position = "{511, 0}";
},
{
name = top;
position = "{513, 1500}";
}
);
background = {
anchors = (
{
name = bot;
position = "{517, 0}";
},
{
name = top;
position = "{513, 1500}";
}
);
paths = (
{
closed = 1;
nodes = (
"430 0 LINE",
"430 1055 LINE SMOOTH",
"430 1138 OFFCURVE",
"437 1239 OFFCURVE",
"520 1239 CURVE SMOOTH",
"578 1239 OFFCURVE",
"600 1179 OFFCURVE",
"600 1120 CURVE SMOOTH",
"600 0 LINE",
"953 0 LINE",
"953 1157 LINE SMOOTH",
"953 1379 OFFCURVE",
"864 1516 OFFCURVE",
"656 1516 CURVE SMOOTH",
"527 1516 OFFCURVE",
"456 1423 OFFCURVE",
"430 1309 CURVE",
"430 1500 LINE",
"72 1500 LINE",
"72 0 LINE"
);
}
);
};
layerId = "6CD1E358-6E98-409F-9A1F-EA9DE4C1A8AA";
paths = (
{
closed = 1;
nodes = (
"430 0 LINE",
"430 1055 LINE SMOOTH",
"430 1138 OFFCURVE",
"437 1239 OFFCURVE",
"520 1239 CURVE SMOOTH",
"578 1239 OFFCURVE",
"600 1179 OFFCURVE",
"600 1120 CURVE SMOOTH",
"600 0 LINE",
"953 0 LINE",
"953 1157 LINE SMOOTH",
"953 1379 OFFCURVE",
"864 1516 OFFCURVE",
"656 1516 CURVE SMOOTH",
"527 1516 OFFCURVE",
"456 1423 OFFCURVE",
"430 1309 CURVE",
"430 1500 LINE",
"72 1500 LINE",
"72 0 LINE"
);
}
);
width = 1021;
}
);
leftKerningGroup = n;
rightKerningGroup = n;
unicode = 006E;
userData = {
com.typemytype.robofont.layerData = {
};
};
},
{
glyphname = eng;
layers = (
{
background = {
paths = (
{
closed = 1;
nodes = (
"772 -458 OFFCURVE",
"953 -305 OFFCURVE",
"953 0 CURVE SMOOTH",
"953 212 LINE",
"600 212 LINE",
"600 -41 LINE SMOOTH",
"600 -152 OFFCURVE",
"560 -196 OFFCURVE",
"490 -196 CURVE",
"490 -458 LINE"
);
}
);
};
layerId = "6CD1E358-6E98-409F-9A1F-EA9DE4C1A8AA";
paths = (
{
closed = 1;
nodes = (
"772 -458 OFFCURVE",
"953 -305 OFFCURVE",
"953 0 CURVE SMOOTH",
"953 1157 LINE SMOOTH",
"953 1379 OFFCURVE",
"864 1516 OFFCURVE",
"656 1516 CURVE SMOOTH",
"527 1516 OFFCURVE",
"456 1423 OFFCURVE",
"430 1309 CURVE",
"430 1500 LINE",
"72 1500 LINE",
"72 0 LINE",
"430 0 LINE",
"430 1055 LINE SMOOTH",
"430 1138 OFFCURVE",
"437 1239 OFFCURVE",
"520 1239 CURVE SMOOTH",
"578 1239 OFFCURVE",
"600 1179 OFFCURVE",
"600 1120 CURVE SMOOTH",
"600 -41 LINE SMOOTH",
"600 -152 OFFCURVE",
"560 -196 OFFCURVE",
"490 -196 CURVE",
"490 -458 LINE"
);
}
);
width = 1021;
}
);
leftKerningGroup = n;
rightKerningGroup = n;
unicode = 014B;
},
{
glyphname = nhookleft;
layers = (
{
layerId = "6CD1E358-6E98-409F-9A1F-EA9DE4C1A8AA";
paths = (
{
closed = 1;
nodes = (
"272 -458 OFFCURVE",
"453 -305 OFFCURVE",
"453 0 CURVE SMOOTH",
"453 1055 LINE SMOOTH",
"453 1138 OFFCURVE",
"460 1239 OFFCURVE",
"543 1239 CURVE SMOOTH",
"601 1239 OFFCURVE",
"623 1179 OFFCURVE",
"623 1120 CURVE SMOOTH",
"623 0 LINE",
"976 0 LINE",
"976 1157 LINE SMOOTH",
"976 1379 OFFCURVE",
"887 1516 OFFCURVE",
"679 1516 CURVE SMOOTH",
"550 1516 OFFCURVE",
"479 1423 OFFCURVE",
"453 1309 CURVE",
"453 1500 LINE",
"95 1500 LINE",
"95 -71 LINE SMOOTH",
"95 -152 OFFCURVE",
"60 -196 OFFCURVE",
"-10 -196 CURVE",
"-10 -458 LINE"
);
}
);
width = 1044;
}
);
rightKerningGroup = n;
unicode = 0272;
},
{
glyphname = nlegrightlong;
layers = (
{
layerId = "6CD1E358-6E98-409F-9A1F-EA9DE4C1A8AA";
paths = (
{
closed = 1;
nodes = (
"953 -250 LINE",
"953 1157 LINE SMOOTH",
"953 1379 OFFCURVE",
"864 1516 OFFCURVE",
"656 1516 CURVE SMOOTH",
"527 1516 OFFCURVE",
"456 1423 OFFCURVE",
"430 1309 CURVE",
"430 1500 LINE",
"72 1500 LINE",
"72 0 LINE",
"430 0 LINE",
"430 1055 LINE SMOOTH",
"430 1138 OFFCURVE",
"437 1239 OFFCURVE",
"520 1239 CURVE SMOOTH",
"578 1239 OFFCURVE",
"600 1179 OFFCURVE",
"600 1120 CURVE SMOOTH",
"600 -250 LINE"
);
}
);
width = 1021;
}
);
leftKerningGroup = n;
rightKerningGroup = n;
unicode = 019E;
},
{
glyphname = o;
layers = (
{
anchors = (
{
name = bottom;
position = "{508, 0}";
},
{
name = ogonek;
position = "{731, 100}";
},
{
name = top;
position = "{508, 1516}";
},
{
name = top_case;
position = "{508, 1500}";
},
{
name = top_right;
position = "{508, 1255}";
}
);
background = {
anchors = (
{
name = bottom;
position = "{508, 0}";
},
{
name = ogonek;
position = "{731, 100}";
},
{
name = top;
position = "{509, 1500}";
}
);
paths = (
{
closed = 1;
nodes = (
"809 -16 OFFCURVE",
"957 143 OFFCURVE",
"957 449 CURVE SMOOTH",
"957 1051 LINE SMOOTH",
"957 1334 OFFCURVE",
"789 1516 OFFCURVE",
"508 1516 CURVE SMOOTH",
"228 1516 OFFCURVE",
"60 1333 OFFCURVE",
"60 1051 CURVE SMOOTH",
"60 449 LINE SMOOTH",
"60 138 OFFCURVE",
"209 -16 OFFCURVE",
"508 -16 CURVE SMOOTH"
);
},
{
closed = 1;
nodes = (
"448 260 OFFCURVE",
"424 308 OFFCURVE",
"424 375 CURVE SMOOTH",
"424 1108 LINE SMOOTH",
"424 1195 OFFCURVE",
"452 1239 OFFCURVE",
"508 1239 CURVE SMOOTH",
"564 1239 OFFCURVE",
"592 1195 OFFCURVE",
"592 1108 CURVE SMOOTH",
"592 375 LINE SMOOTH",
"592 308 OFFCURVE",
"568 260 OFFCURVE",
"508 260 CURVE SMOOTH"
);
}
);
};
layerId = "6CD1E358-6E98-409F-9A1F-EA9DE4C1A8AA";
paths = (
{
closed = 1;
nodes = (
"809 -16 OFFCURVE",
"957 143 OFFCURVE",
"957 449 CURVE SMOOTH",
"957 1051 LINE SMOOTH",
"957 1334 OFFCURVE",
"789 1516 OFFCURVE",
"508 1516 CURVE SMOOTH",
"228 1516 OFFCURVE",
"60 1333 OFFCURVE",
"60 1051 CURVE SMOOTH",
"60 449 LINE SMOOTH",
"60 138 OFFCURVE",
"209 -16 OFFCURVE",
"508 -16 CURVE SMOOTH"
);
},
{
closed = 1;
nodes = (
"448 260 OFFCURVE",
"424 308 OFFCURVE",
"424 375 CURVE SMOOTH",
"424 1108 LINE SMOOTH",
"424 1195 OFFCURVE",
"452 1239 OFFCURVE",
"508 1239 CURVE SMOOTH",
"564 1239 OFFCURVE",
"592 1195 OFFCURVE",
"592 1108 CURVE SMOOTH",
"592 375 LINE SMOOTH",
"592 308 OFFCURVE",
"568 260 OFFCURVE",
"508 260 CURVE SMOOTH"
);
}
);
width = 1017;
}
);
leftKerningGroup = o;
rightKerningGroup = o;
unicode = 006F;
userData = {
com.typemytype.robofont.layerData = {
};
};
},
{
glyphname = ohorn;
layers = (
{
anchors = (
{
name = _top_right;
position = "{508, 1255}";
},
{
name = bottom;
position = "{508, 0}";
},
{
name = ogonek;
position = "{731, 100}";
},
{
name = top;
position = "{508, 1586}";
},
{
name = top_case;
position = "{508, 1500}";
}
);
layerId = "6CD1E358-6E98-409F-9A1F-EA9DE4C1A8AA";
paths = (
{
closed = 1;
nodes = (
"809 -16 OFFCURVE",
"957 143 OFFCURVE",
"957 449 CURVE SMOOTH",
"957 1051 LINE SMOOTH",
"957 1191 OFFCURVE",
"916 1306 OFFCURVE",
"841 1386 CURVE",
"838 1352 LINE",
"923 1402 OFFCURVE",
"979 1496 OFFCURVE",
"979 1649 CURVE SMOOTH",
"979 1664 LINE",
"701 1664 LINE",
"701 1641 LINE SMOOTH",
"701 1555 OFFCURVE",
"661 1516 OFFCURVE",
"586 1516 CURVE SMOOTH",
"508 1516 LINE SMOOTH",
"228 1516 OFFCURVE",
"60 1333 OFFCURVE",
"60 1051 CURVE SMOOTH",
"60 449 LINE SMOOTH",
"60 138 OFFCURVE",
"209 -16 OFFCURVE",
"508 -16 CURVE SMOOTH"
);
},
{
closed = 1;
nodes = (
"448 260 OFFCURVE",
"424 308 OFFCURVE",
"424 375 CURVE SMOOTH",
"424 1108 LINE SMOOTH",
"424 1195 OFFCURVE",
"452 1239 OFFCURVE",
"508 1239 CURVE SMOOTH",
"564 1239 OFFCURVE",
"592 1195 OFFCURVE",
"592 1108 CURVE SMOOTH",
"592 375 LINE SMOOTH",
"592 308 OFFCURVE",
"568 260 OFFCURVE",
"508 260 CURVE SMOOTH"
);
}
);
width = 1017;
},
{
anchors = (
{
name = _top_right;
position = "{508, 1255}";
},
{
name = bottom;
position = "{508, 0}";
},
{
name = ogonek;
position = "{731, 100}";
},
{
name = top;
position = "{508, 1516}";
},
{
name = top_case;
position = "{508, 1500}";
},
{
name = top_right;
position = "{508, 1255}";
}
);
associatedMasterId = "6CD1E358-6E98-409F-9A1F-EA9DE4C1A8AA";
layerId = "CAC1031E-A84B-46C3-90D4-143FBAD98163";
name = "Regular Jul 25 16, 00:33";
paths = (
{
closed = 1;
nodes = (
"809 -16 OFFCURVE",
"957 143 OFFCURVE",
"957 449 CURVE SMOOTH",
"957 1051 LINE SMOOTH",
"957 1334 OFFCURVE",
"789 1516 OFFCURVE",
"508 1516 CURVE SMOOTH",
"228 1516 OFFCURVE",
"60 1333 OFFCURVE",
"60 1051 CURVE SMOOTH",
"60 449 LINE SMOOTH",
"60 138 OFFCURVE",
"209 -16 OFFCURVE",
"508 -16 CURVE SMOOTH"
);
},
{
closed = 1;
nodes = (
"448 260 OFFCURVE",
"424 308 OFFCURVE",
"424 375 CURVE SMOOTH",
"424 1108 LINE SMOOTH",
"424 1195 OFFCURVE",
"452 1239 OFFCURVE",
"508 1239 CURVE SMOOTH",
"564 1239 OFFCURVE",
"592 1195 OFFCURVE",
"592 1108 CURVE SMOOTH",
"592 375 LINE SMOOTH",
"592 308 OFFCURVE",
"568 260 OFFCURVE",
"508 260 CURVE SMOOTH"
);
},
{
closed = 1;
nodes = (
"829 1306 OFFCURVE",
"979 1399 OFFCURVE",
"979 1649 CURVE SMOOTH",
"979 1664 LINE",
"701 1663 LINE",
"701 1641 LINE SMOOTH",
"701 1555 OFFCURVE",
"661 1516 OFFCURVE",
"586 1516 CURVE SMOOTH",
"509 1516 LINE",
"509 1327 LINE",
"549 1313 OFFCURVE",
"590 1306 OFFCURVE",
"644 1306 CURVE"
);
}
);
width = 1017;
}
);
leftKerningGroup = o;
rightKerningGroup = ohook;
unicode = 01A1;
},
{
glyphname = "omega-latin";
layers = (
{
layerId = "6CD1E358-6E98-409F-9A1F-EA9DE4C1A8AA";
paths = (
{
closed = 1;
nodes = (
"614 -16 OFFCURVE",
"726 37 OFFCURVE",
"784 156 CURVE",
"742 156 LINE",
"800 37 OFFCURVE",
"912 -16 OFFCURVE",
"1058 -16 CURVE SMOOTH",
"1317 -16 OFFCURVE",
"1466 138 OFFCURVE",
"1466 449 CURVE SMOOTH",
"1466 1051 LINE SMOOTH",
"1466 1333 OFFCURVE",
"1298 1516 OFFCURVE",
"1018 1516 CURVE",
"1018 1239 LINE",
"1074 1239 OFFCURVE",
"1102 1195 OFFCURVE",
"1102 1108 CURVE SMOOTH",
"1102 375 LINE SMOOTH",
"1102 308 OFFCURVE",
"1078 260 OFFCURVE",
"1018 260 CURVE SMOOTH",
"958 260 OFFCURVE",
"934 308 OFFCURVE",
"934 375 CURVE SMOOTH",
"934 1001 LINE",
"592 1001 LINE",
"592 375 LINE SMOOTH",
"592 308 OFFCURVE",
"568 260 OFFCURVE",
"508 260 CURVE SMOOTH",
"448 260 OFFCURVE",
"424 308 OFFCURVE",
"424 375 CURVE SMOOTH",
"424 1108 LINE SMOOTH",
"424 1195 OFFCURVE",
"452 1239 OFFCURVE",
"508 1239 CURVE",
"508 1516 LINE",
"228 1516 OFFCURVE",
"60 1333 OFFCURVE",
"60 1051 CURVE SMOOTH",
"60 449 LINE SMOOTH",
"60 138 OFFCURVE",
"209 -16 OFFCURVE",
"468 -16 CURVE SMOOTH"
);
}
);
width = 1536;
}
);
leftKerningGroup = o;
rightKerningGroup = o;
unicode = A7B7;
},
{
glyphname = oopen;
layers = (
{
layerId = "6CD1E358-6E98-409F-9A1F-EA9DE4C1A8AA";
paths = (
{
closed = 1;
nodes = (
"819 -16 OFFCURVE",
"946 158 OFFCURVE",
"946 492 CURVE SMOOTH",
"946 954 LINE SMOOTH",
"946 1330 OFFCURVE",
"845 1516 OFFCURVE",
"488 1516 CURVE SMOOTH",
"240 1516 OFFCURVE",
"53 1380 OFFCURVE",
"53 1135 CURVE SMOOTH",
"53 906 LINE",
"418 906 LINE",
"418 1116 LINE SMOOTH",
"418 1185 OFFCURVE",
"431 1239 OFFCURVE",
"498 1239 CURVE SMOOTH",
"557 1239 OFFCURVE",
"586 1197 OFFCURVE",
"586 1114 CURVE SMOOTH",
"586 387 LINE SMOOTH",
"586 326 OFFCURVE",
"561 264 OFFCURVE",
"500 264 CURVE SMOOTH",
"438 264 OFFCURVE",
"416 322 OFFCURVE",
"416 389 CURVE SMOOTH",
"416 641 LINE",
"53 641 LINE",
"53 379 LINE SMOOTH",
"53 130 OFFCURVE",
"233 -16 OFFCURVE",
"483 -16 CURVE SMOOTH"
);
}
);
width = 1006;
}
);
rightKerningGroup = o;
unicode = 0254;
},
{
glyphname = oslash;
layers = (
{
anchors = (
{
name = bottom;
position = "{508, 0}";
},
{
name = ogonek;
position = "{731, 100}";
},
{
name = top;
position = "{508, 1516}";
},
{
name = top_case;
position = "{508, 1500}";
},
{
name = top_right;
position = "{508, 1255}";
}
);
background = {
paths = (
{
closed = 1;
nodes = (
"978 1603 LINE",
"837 1661 LINE",
"706 1403 LINE",
"836 1348 LINE"
);
},
{
closed = 1;
nodes = (
"336 92 LINE",
"198 144 LINE",
"86 -123 LINE",
"222 -175 LINE"
);
}
);
};
layerId = "6CD1E358-6E98-409F-9A1F-EA9DE4C1A8AA";
paths = (
{
closed = 1;
nodes = (
"809 -16 OFFCURVE",
"957 143 OFFCURVE",
"957 449 CURVE SMOOTH",
"957 1051 LINE SMOOTH",
"957 1334 OFFCURVE",
"789 1516 OFFCURVE",
"508 1516 CURVE SMOOTH",
"228 1516 OFFCURVE",
"60 1333 OFFCURVE",
"60 1051 CURVE SMOOTH",
"60 449 LINE SMOOTH",
"60 138 OFFCURVE",
"209 -16 OFFCURVE",
"508 -16 CURVE SMOOTH"
);
},
{
closed = 1;
nodes = (
"448 260 OFFCURVE",
"424 308 OFFCURVE",
"424 375 CURVE SMOOTH",
"424 1108 LINE SMOOTH",
"424 1195 OFFCURVE",
"452 1239 OFFCURVE",
"508 1239 CURVE SMOOTH",
"564 1239 OFFCURVE",
"592 1195 OFFCURVE",
"592 1108 CURVE SMOOTH",
"592 375 LINE SMOOTH",
"592 308 OFFCURVE",
"568 260 OFFCURVE",
"508 260 CURVE SMOOTH"
);
},
{
closed = 1;
nodes = (
"321 -186 LINE",
"431 239 LINE",
"291 239 LINE",
"181 -186 LINE"
);
},
{
closed = 1;
nodes = (
"729 1376 LINE",
"811 1702 LINE",
"671 1702 LINE",
"589 1376 LINE"
);
}
);
width = 1017;
}
);
leftKerningGroup = o;
rightKerningGroup = o;
unicode = 00F8;
userData = {
com.typemytype.robofont.layerData = {
};
};
},
{
glyphname = ou;
layers = (
{
background = {
paths = (
{
closed = 1;
nodes = (
"592 1152 LINE SMOOTH",
"592 1065 OFFCURVE",
"564 1021 OFFCURVE",
"508 1021 CURVE SMOOTH",
"452 1021 OFFCURVE",
"424 1065 OFFCURVE",
"424 1152 CURVE SMOOTH",
"424 1385 LINE",
"60 1385 LINE",
"60 1219 LINE SMOOTH",
"60 947 OFFCURVE",
"228 764 OFFCURVE",
"508 764 CURVE SMOOTH",
"789 764 OFFCURVE",
"957 946 OFFCURVE",
"957 1219 CURVE SMOOTH",
"957 1385 LINE",
"592 1385 LINE"
);
}
);
};
layerId = "6CD1E358-6E98-409F-9A1F-EA9DE4C1A8AA";
paths = (
{
closed = 1;
nodes = (
"809 -16 OFFCURVE",
"957 143 OFFCURVE",
"957 449 CURVE SMOOTH",
"957 571 LINE SMOOTH",
"957 844 OFFCURVE",
"789 1026 OFFCURVE",
"508 1026 CURVE SMOOTH",
"228 1026 OFFCURVE",
"60 843 OFFCURVE",
"60 571 CURVE SMOOTH",
"60 449 LINE SMOOTH",
"60 138 OFFCURVE",
"209 -16 OFFCURVE",
"508 -16 CURVE SMOOTH"
);
},
{
closed = 1;
nodes = (
"448 260 OFFCURVE",
"424 308 OFFCURVE",
"424 375 CURVE SMOOTH",
"424 638 LINE SMOOTH",
"424 725 OFFCURVE",
"452 769 OFFCURVE",
"508 769 CURVE SMOOTH",
"564 769 OFFCURVE",
"592 725 OFFCURVE",
"592 638 CURVE SMOOTH",
"592 375 LINE SMOOTH",
"592 308 OFFCURVE",
"568 260 OFFCURVE",
"508 260 CURVE SMOOTH"
);
},
{
closed = 1;
nodes = (
"789 788 OFFCURVE",
"957 970 OFFCURVE",
"957 1243 CURVE SMOOTH",
"957 1500 LINE",
"592 1500 LINE",
"592 1176 LINE SMOOTH",
"592 1089 OFFCURVE",
"564 1045 OFFCURVE",
"508 1045 CURVE SMOOTH",
"452 1045 OFFCURVE",
"424 1089 OFFCURVE",
"424 1176 CURVE SMOOTH",
"424 1500 LINE",
"60 1500 LINE",
"60 1243 LINE SMOOTH",
"60 971 OFFCURVE",
"228 788 OFFCURVE",
"508 788 CURVE SMOOTH"
);
}
);
width = 1017;
}
);
unicode = 0223;
},
{
glyphname = oe;
layers = (
{
background = {
paths = (
{
closed = 1;
nodes = (
"606 -18 OFFCURVE",
"696 11 OFFCURVE",
"766 69 CURVE",
"829 11 OFFCURVE",
"911 -18 OFFCURVE",
"1012 -18 CURVE SMOOTH",
"1352 -18 OFFCURVE",
"1462 157 OFFCURVE",
"1462 494 CURVE SMOOTH",
"1462 579 LINE",
"1106 579 LINE",
"1107 574 OFFCURVE",
"1108 542 OFFCURVE",
"1108 483 CURVE SMOOTH",
"1108 395 OFFCURVE",
"1110 260 OFFCURVE",
"1024 260 CURVE SMOOTH",
"944 260 OFFCURVE",
"937 346 OFFCURVE",
"937 427 CURVE SMOOTH",
"937 439 OFFCURVE",
"938 482 OFFCURVE",
"938 494 CURVE SMOOTH",
"938 704 LINE",
"1458 704 LINE",
"1461 755 OFFCURVE",
"1462 848 OFFCURVE",
"1462 983 CURVE SMOOTH",
"1462 1092 LINE SMOOTH",
"1462 1376 OFFCURVE",
"1318 1518 OFFCURVE",
"1030 1518 CURVE SMOOTH",
"919 1518 OFFCURVE",
"829 1486 OFFCURVE",
"761 1422 CURVE",
"686 1486 OFFCURVE",
"598 1518 OFFCURVE",
"496 1518 CURVE SMOOTH",
"216 1518 OFFCURVE",
"48 1333 OFFCURVE",
"48 1051 CURVE SMOOTH",
"48 449 LINE SMOOTH",
"48 138 OFFCURVE",
"197 -18 OFFCURVE",
"496 -18 CURVE SMOOTH"
);
},
{
closed = 1;
nodes = (
"436 260 OFFCURVE",
"412 308 OFFCURVE",
"412 375 CURVE SMOOTH",
"412 1108 LINE SMOOTH",
"412 1195 OFFCURVE",
"440 1239 OFFCURVE",
"496 1239 CURVE SMOOTH",
"552 1239 OFFCURVE",
"580 1195 OFFCURVE",
"580 1108 CURVE SMOOTH",
"580 375 LINE SMOOTH",
"580 308 OFFCURVE",
"556 260 OFFCURVE",
"496 260 CURVE SMOOTH"
);
},
{
closed = 1;
nodes = (
"938 955 OFFCURVE",
"936 1033 OFFCURVE",
"936 1057 CURVE SMOOTH",
"936 1146 OFFCURVE",
"939 1249 OFFCURVE",
"1026 1249 CURVE SMOOTH",
"1079 1249 OFFCURVE",
"1106 1195 OFFCURVE",
"1106 1087 CURVE SMOOTH",
"1106 931 LINE",
"938 931 LINE"
);
}
);
};
layerId = "6CD1E358-6E98-409F-9A1F-EA9DE4C1A8AA";
paths = (
{
closed = 1;
nodes = (
"606 -18 OFFCURVE",
"696 11 OFFCURVE",
"766 69 CURVE",
"829 11 OFFCURVE",
"911 -18 OFFCURVE",
"1012 -18 CURVE SMOOTH",
"1352 -18 OFFCURVE",
"1462 157 OFFCURVE",
"1462 494 CURVE SMOOTH",
"1462 579 LINE",
"1108 579 LINE",
"1108 443 LINE SMOOTH",
"1108 341 OFFCURVE",
"1090 260 OFFCURVE",
"1026 260 CURVE SMOOTH",
"958 260 OFFCURVE",
"938 314 OFFCURVE",
"938 427 CURVE SMOOTH",
"938 704 LINE",
"1458 704 LINE",
"1461 755 OFFCURVE",
"1462 848 OFFCURVE",
"1462 983 CURVE SMOOTH",
"1462 1092 LINE SMOOTH",
"1462 1376 OFFCURVE",
"1318 1518 OFFCURVE",
"1030 1518 CURVE SMOOTH",
"919 1518 OFFCURVE",
"829 1486 OFFCURVE",
"761 1422 CURVE",
"686 1486 OFFCURVE",
"598 1518 OFFCURVE",
"496 1518 CURVE SMOOTH",
"216 1518 OFFCURVE",
"48 1333 OFFCURVE",
"48 1051 CURVE SMOOTH",
"48 449 LINE SMOOTH",
"48 138 OFFCURVE",
"197 -18 OFFCURVE",
"496 -18 CURVE SMOOTH"
);
},
{
closed = 1;
nodes = (
"436 260 OFFCURVE",
"412 308 OFFCURVE",
"412 375 CURVE SMOOTH",
"412 1108 LINE SMOOTH",
"412 1195 OFFCURVE",
"440 1239 OFFCURVE",
"496 1239 CURVE SMOOTH",
"552 1239 OFFCURVE",
"580 1195 OFFCURVE",
"580 1108 CURVE SMOOTH",
"580 375 LINE SMOOTH",
"580 308 OFFCURVE",
"556 260 OFFCURVE",
"496 260 CURVE SMOOTH"
);
},
{
closed = 1;
nodes = (
"936 1083 LINE SMOOTH",
"936 1196 OFFCURVE",
"955 1249 OFFCURVE",
"1023 1249 CURVE SMOOTH",
"1079 1249 OFFCURVE",
"1106 1195 OFFCURVE",
"1106 1087 CURVE SMOOTH",
"1106 931 LINE",
"936 931 LINE"
);
}
);
width = 1513;
}
);
leftKerningGroup = o;
rightKerningGroup = e;
unicode = 0153;
userData = {
com.typemytype.robofont.layerData = {
};
};
},
{
glyphname = p;
layers = (
{
background = {
paths = (
{
closed = 1;
nodes = (
"436 -300 LINE",
"436 59 LINE",
"483 8 OFFCURVE",
"551 -16 OFFCURVE",
"641 -16 CURVE SMOOTH",
"937 -16 OFFCURVE",
"963 225 OFFCURVE",
"963 521 CURVE SMOOTH",
"963 1075 LINE SMOOTH",
"963 1323 OFFCURVE",
"899 1516 OFFCURVE",
"651 1516 CURVE SMOOTH",
"562 1516 OFFCURVE",
"490 1485 OFFCURVE",
"436 1419 CURVE",
"436 1500 LINE",
"72 1500 LINE",
"72 -300 LINE"
);
},
{
closed = 1;
nodes = (
"447 262 OFFCURVE",
"436 336 OFFCURVE",
"436 422 CURVE SMOOTH",
"436 1079 LINE SMOOTH",
"436 1183 OFFCURVE",
"464 1235 OFFCURVE",
"520 1235 CURVE SMOOTH",
"597 1235 OFFCURVE",
"600 1152 OFFCURVE",
"600 1075 CURVE SMOOTH",
"600 438 LINE SMOOTH",
"600 346 OFFCURVE",
"595 262 OFFCURVE",
"522 262 CURVE SMOOTH"
);
}
);
};
layerId = "6CD1E358-6E98-409F-9A1F-EA9DE4C1A8AA";
paths = (
{
closed = 1;
nodes = (
"436 -250 LINE",
"436 160 LINE",
"480 41 OFFCURVE",
"550 -16 OFFCURVE",
"647 -16 CURVE SMOOTH",
"871 -16 OFFCURVE",
"963 160 OFFCURVE",
"963 391 CURVE SMOOTH",
"963 1129 LINE SMOOTH",
"963 1360 OFFCURVE",
"891 1516 OFFCURVE",
"695 1516 CURVE SMOOTH",
"550 1516 OFFCURVE",
"480 1450 OFFCURVE",
"436 1340 CURVE",
"436 1500 LINE",
"72 1500 LINE",
"72 -250 LINE"
);
},
{
closed = 1;
nodes = (
"443 263 OFFCURVE",
"436 349 OFFCURVE",
"436 457 CURVE SMOOTH",
"436 1043 LINE SMOOTH",
"436 1151 OFFCURVE",
"443 1237 OFFCURVE",
"521 1237 CURVE SMOOTH",
"595 1237 OFFCURVE",
"600 1153 OFFCURVE",
"600 1043 CURVE SMOOTH",
"600 457 LINE SMOOTH",
"600 347 OFFCURVE",
"595 263 OFFCURVE",
"521 263 CURVE SMOOTH"
);
}
);
width = 1027;
}
);
leftKerningGroup = p;
rightKerningGroup = p;
unicode = 0070;
userData = {
com.typemytype.robofont.layerData = {
};
};
},
{
glyphname = phook;
layers = (
{
background = {
paths = (
{
closed = 1;
nodes = (
"440 -250 LINE",
"440 160 LINE",
"484 41 OFFCURVE",
"554 -16 OFFCURVE",
"651 -16 CURVE SMOOTH",
"875 -16 OFFCURVE",
"967 160 OFFCURVE",
"967 391 CURVE SMOOTH",
"967 1014 LINE SMOOTH",
"967 1260 OFFCURVE",
"900 1418 OFFCURVE",
"697 1418 CURVE SMOOTH",
"571 1418 OFFCURVE",
"484 1364 OFFCURVE",
"440 1243 CURVE",
"440 1268 LINE",
"72 1268 LINE",
"72 -250 LINE"
);
},
{
closed = 1;
nodes = (
"447 263 OFFCURVE",
"440 349 OFFCURVE",
"440 457 CURVE SMOOTH",
"440 985 LINE SMOOTH",
"440 1075 OFFCURVE",
"456 1139 OFFCURVE",
"528 1139 CURVE SMOOTH",
"598 1139 OFFCURVE",
"604 1071 OFFCURVE",
"604 981 CURVE SMOOTH",
"604 457 LINE SMOOTH",
"604 315 OFFCURVE",
"587 263 OFFCURVE",
"524 263 CURVE SMOOTH"
);
},
{
closed = 1;
nodes = (
"440 1268 LINE",
"440 1368 LINE SMOOTH",
"440 1454 OFFCURVE",
"469 1500 OFFCURVE",
"544 1500 CURVE",
"544 1776 LINE",
"210 1776 OFFCURVE",
"72 1590 OFFCURVE",
"72 1328 CURVE SMOOTH",
"72 1268 LINE"
);
}
);
};
layerId = "6CD1E358-6E98-409F-9A1F-EA9DE4C1A8AA";
paths = (
{
closed = 1;
nodes = (
"440 -250 LINE",
"440 160 LINE",
"484 41 OFFCURVE",
"554 -16 OFFCURVE",
"651 -16 CURVE SMOOTH",
"875 -16 OFFCURVE",
"967 160 OFFCURVE",
"967 391 CURVE SMOOTH",
"967 1014 LINE SMOOTH",
"967 1260 OFFCURVE",
"900 1418 OFFCURVE",
"697 1418 CURVE SMOOTH",
"571 1418 OFFCURVE",
"484 1364 OFFCURVE",
"440 1243 CURVE",
"440 1368 LINE SMOOTH",
"440 1454 OFFCURVE",
"469 1500 OFFCURVE",
"544 1500 CURVE",
"544 1776 LINE",
"210 1776 OFFCURVE",
"72 1590 OFFCURVE",
"72 1328 CURVE SMOOTH",
"72 -250 LINE"
);
},
{
closed = 1;
nodes = (
"447 263 OFFCURVE",
"440 349 OFFCURVE",
"440 457 CURVE SMOOTH",
"440 985 LINE SMOOTH",
"440 1075 OFFCURVE",
"456 1139 OFFCURVE",
"528 1139 CURVE SMOOTH",
"598 1139 OFFCURVE",
"604 1071 OFFCURVE",
"604 981 CURVE SMOOTH",
"604 457 LINE SMOOTH",
"604 315 OFFCURVE",
"587 263 OFFCURVE",
"524 263 CURVE SMOOTH"
);
}
);
width = 1023;
}
);
leftKerningGroup = p;
rightKerningGroup = p;
unicode = 01A5;
},
{
glyphname = thorn;
layers = (
{
background = {
paths = (
{
closed = 1;
nodes = (
"430 -185 LINE",
"430 160 LINE",
"474 41 OFFCURVE",
"544 -18 OFFCURVE",
"641 -18 CURVE SMOOTH",
"865 -18 OFFCURVE",
"957 160 OFFCURVE",
"957 391 CURVE SMOOTH",
"957 1114 LINE SMOOTH",
"957 1360 OFFCURVE",
"874 1519 OFFCURVE",
"630 1519 CURVE SMOOTH",
"557 1519 OFFCURVE",
"490 1488 OFFCURVE",
"430 1427 CURVE",
"430 1769 LINE",
"62 1769 LINE",
"62 -185 LINE"
);
},
{
closed = 1;
nodes = (
"437 263 OFFCURVE",
"430 349 OFFCURVE",
"430 457 CURVE SMOOTH",
"430 1085 LINE SMOOTH",
"430 1175 OFFCURVE",
"446 1239 OFFCURVE",
"518 1239 CURVE SMOOTH",
"588 1239 OFFCURVE",
"594 1171 OFFCURVE",
"594 1081 CURVE SMOOTH",
"594 457 LINE SMOOTH",
"594 347 OFFCURVE",
"599 263 OFFCURVE",
"520 263 CURVE SMOOTH"
);
}
);
};
layerId = "6CD1E358-6E98-409F-9A1F-EA9DE4C1A8AA";
paths = (
{
closed = 1;
nodes = (
"430 -250 LINE",
"430 160 LINE",
"474 41 OFFCURVE",
"544 -18 OFFCURVE",
"641 -18 CURVE SMOOTH",
"865 -18 OFFCURVE",
"957 160 OFFCURVE",
"957 391 CURVE SMOOTH",
"957 1114 LINE SMOOTH",
"957 1360 OFFCURVE",
"874 1519 OFFCURVE",
"630 1519 CURVE SMOOTH",
"557 1519 OFFCURVE",
"490 1488 OFFCURVE",
"430 1427 CURVE",
"430 1769 LINE",
"62 1769 LINE",
"62 -250 LINE"
);
},
{
closed = 1;
nodes = (
"437 263 OFFCURVE",
"430 349 OFFCURVE",
"430 457 CURVE SMOOTH",
"430 1085 LINE SMOOTH",
"430 1175 OFFCURVE",
"446 1239 OFFCURVE",
"518 1239 CURVE SMOOTH",
"588 1239 OFFCURVE",
"594 1171 OFFCURVE",
"594 1081 CURVE SMOOTH",
"594 457 LINE SMOOTH",
"594 347 OFFCURVE",
"589 263 OFFCURVE",
"514 263 CURVE SMOOTH"
);
}
);
width = 1007;
}
);
leftKerningGroup = p;
rightKerningGroup = p;
unicode = 00FE;
userData = {
com.typemytype.robofont.layerData = {
};
};
},
{
glyphname = pstroke;
layers = (
{
components = (
{
alignment = -1;
name = p;
transform = "{1, 0, 0, 1, 39, 0}";
}
);
layerId = "6CD1E358-6E98-409F-9A1F-EA9DE4C1A8AA";
paths = (
{
closed = 1;
nodes = (
"1104 649 LINE",
"1104 881 LINE",
"10 881 LINE",
"10 649 LINE"
);
}
);
width = 1114;
}
);
unicode = 1D7D;
},
{
glyphname = q;
layers = (
{
anchors = (
{
name = bottom;
position = "{512, 0}";
},
{
name = caron.alt;
position = "{710, 1500}";
},
{
name = center;
position = "{510, 750}";
},
{
name = mid;
position = "{767, 1629}";
},
{
name = top;
position = "{512, 1500}";
},
{
name = topright;
position = "{1000, 1500}";
}
);
background = {
paths = (
{
closed = 1;
nodes = (
"951 -300 LINE",
"951 1500 LINE",
"586 1500 LINE",
"586 1419 LINE",
"533 1485 OFFCURVE",
"461 1516 OFFCURVE",
"371 1516 CURVE SMOOTH",
"124 1516 OFFCURVE",
"60 1322 OFFCURVE",
"60 1075 CURVE SMOOTH",
"60 482 LINE SMOOTH",
"60 191 OFFCURVE",
"89 -16 OFFCURVE",
"381 -16 CURVE SMOOTH",
"473 -16 OFFCURVE",
"543 32 OFFCURVE",
"586 90 CURVE",
"586 -300 LINE"
);
},
{
closed = 1;
nodes = (
"427 262 OFFCURVE",
"422 346 OFFCURVE",
"422 438 CURVE SMOOTH",
"422 1075 LINE SMOOTH",
"422 1152 OFFCURVE",
"425 1235 OFFCURVE",
"502 1235 CURVE SMOOTH",
"558 1235 OFFCURVE",
"586 1183 OFFCURVE",
"586 1079 CURVE SMOOTH",
"586 422 LINE SMOOTH",
"586 335 OFFCURVE",
"576 262 OFFCURVE",
"500 262 CURVE SMOOTH"
);
}
);
};
layerId = "6CD1E358-6E98-409F-9A1F-EA9DE4C1A8AA";
paths = (
{
closed = 1;
nodes = (
"954 -250 LINE",
"954 1500 LINE",
"590 1500 LINE",
"590 1340 LINE",
"547 1450 OFFCURVE",
"477 1516 OFFCURVE",
"332 1516 CURVE SMOOTH",
"136 1516 OFFCURVE",
"62 1360 OFFCURVE",
"62 1129 CURVE SMOOTH",
"62 477 LINE SMOOTH",
"62 201 OFFCURVE",
"90 -16 OFFCURVE",
"367 -16 CURVE SMOOTH",
"492 -16 OFFCURVE",
"550 51 OFFCURVE",
"590 159 CURVE",
"590 -250 LINE"
);
},
{
closed = 1;
nodes = (
"447 264 OFFCURVE",
"418 327 OFFCURVE",
"418 452 CURVE SMOOTH",
"418 1083 LINE SMOOTH",
"418 1160 OFFCURVE",
"429 1239 OFFCURVE",
"506 1239 CURVE SMOOTH",
"576 1239 OFFCURVE",
"590 1153 OFFCURVE",
"590 1083 CURVE SMOOTH",
"590 450 LINE SMOOTH",
"590 333 OFFCURVE",
"566 264 OFFCURVE",
"504 264 CURVE SMOOTH"
);
}
);
width = 1020;
}
);
unicode = 0071;
userData = {
com.typemytype.robofont.layerData = {
};
};
},
{
glyphname = qhooktail;
layers = (
{
anchors = (
{
name = bottom;
position = "{512, 0}";
},
{
name = caron.alt;
position = "{710, 1500}";
},
{
name = center;
position = "{510, 750}";
},
{
name = mid;
position = "{767, 1629}";
},
{
name = top;
position = "{512, 1500}";
},
{
name = topright;
position = "{1000, 1500}";
}
);
background = {
paths = (
{
closed = 1;
nodes = (
"492 -16 OFFCURVE",
"570 51 OFFCURVE",
"610 159 CURVE",
"590 248 LINE",
"954 248 LINE",
"954 1500 LINE",
"590 1500 LINE",
"590 1340 LINE",
"547 1450 OFFCURVE",
"477 1516 OFFCURVE",
"332 1516 CURVE SMOOTH",
"136 1516 OFFCURVE",
"62 1360 OFFCURVE",
"62 1129 CURVE SMOOTH",
"62 477 LINE SMOOTH",
"62 201 OFFCURVE",
"90 -16 OFFCURVE",
"367 -16 CURVE SMOOTH"
);
},
{
closed = 1;
nodes = (
"1058 16 LINE",
"983 16 OFFCURVE",
"954 62 OFFCURVE",
"954 148 CURVE SMOOTH",
"954 248 LINE",
"585 248 LINE",
"585 188 LINE SMOOTH",
"585 -74 OFFCURVE",
"724 -260 OFFCURVE",
"1058 -260 CURVE"
);
},
{
closed = 1;
nodes = (
"447 264 OFFCURVE",
"418 327 OFFCURVE",
"418 452 CURVE SMOOTH",
"418 1083 LINE SMOOTH",
"418 1160 OFFCURVE",
"429 1239 OFFCURVE",
"506 1239 CURVE SMOOTH",
"576 1239 OFFCURVE",
"590 1153 OFFCURVE",
"590 1083 CURVE SMOOTH",
"590 450 LINE SMOOTH",
"590 332 OFFCURVE",
"572 264 OFFCURVE",
"504 264 CURVE SMOOTH"
);
}
);
};
layerId = "6CD1E358-6E98-409F-9A1F-EA9DE4C1A8AA";
paths = (
{
closed = 1;
nodes = (
"1058 16 LINE",
"983 16 OFFCURVE",
"954 62 OFFCURVE",
"954 148 CURVE SMOOTH",
"954 1500 LINE",
"590 1500 LINE",
"590 1340 LINE",
"547 1450 OFFCURVE",
"477 1516 OFFCURVE",
"332 1516 CURVE SMOOTH",
"136 1516 OFFCURVE",
"62 1360 OFFCURVE",
"62 1129 CURVE SMOOTH",
"62 477 LINE SMOOTH",
"62 201 OFFCURVE",
"90 -16 OFFCURVE",
"367 -16 CURVE SMOOTH",
"485 -16 OFFCURVE",
"561 43 OFFCURVE",
"603 141 CURVE",
"586 143 LINE",
"601 -95 OFFCURVE",
"743 -260 OFFCURVE",
"1058 -260 CURVE"
);
},
{
closed = 1;
nodes = (
"447 264 OFFCURVE",
"418 327 OFFCURVE",
"418 452 CURVE SMOOTH",
"418 1083 LINE SMOOTH",
"418 1160 OFFCURVE",
"429 1239 OFFCURVE",
"506 1239 CURVE SMOOTH",
"576 1239 OFFCURVE",
"590 1153 OFFCURVE",
"590 1083 CURVE SMOOTH",
"590 450 LINE SMOOTH",
"590 332 OFFCURVE",
"572 264 OFFCURVE",
"504 264 CURVE SMOOTH"
);
}
);
width = 1020;
}
);
unicode = 024B;
},
{
glyphname = r;
layers = (
{
anchors = (
{
name = bottom;
position = "{271, 0}";
},
{
name = top;
position = "{388, 1500}";
}
);
background = {
anchors = (
{
name = bot;
position = "{271, 0}";
},
{
name = top;
position = "{388, 1500}";
}
);
paths = (
{
closed = 1;
nodes = (
"436 0 LINE",
"436 1147 LINE SMOOTH",
"436 1187 OFFCURVE",
"606 1219 OFFCURVE",
"694 1219 CURVE",
"694 1518 LINE",
"561 1518 OFFCURVE",
"470 1449 OFFCURVE",
"436 1333 CURVE",
"436 1500 LINE",
"78 1500 LINE",
"78 0 LINE"
);
}
);
};
layerId = "6CD1E358-6E98-409F-9A1F-EA9DE4C1A8AA";
paths = (
{
closed = 1;
nodes = (
"436 0 LINE",
"436 1147 LINE SMOOTH",
"436 1187 OFFCURVE",
"606 1219 OFFCURVE",
"694 1219 CURVE",
"694 1518 LINE",
"561 1518 OFFCURVE",
"470 1449 OFFCURVE",
"436 1333 CURVE",
"436 1500 LINE",
"72 1500 LINE",
"72 0 LINE"
);
}
);
width = 710;
}
);
leftKerningGroup = n;
rightKerningGroup = r;
unicode = 0072;
userData = {
com.typemytype.robofont.layerData = {
};
};
},
{
glyphname = rfishhook;
layers = (
{
layerId = "6CD1E358-6E98-409F-9A1F-EA9DE4C1A8AA";
paths = (
{
closed = 1;
nodes = (
"415 0 LINE",
"415 1100 LINE SMOOTH",
"415 1186 OFFCURVE",
"444 1232 OFFCURVE",
"519 1232 CURVE",
"519 1508 LINE",
"190 1508 OFFCURVE",
"51 1322 OFFCURVE",
"51 1060 CURVE SMOOTH",
"51 0 LINE"
);
}
);
width = 535;
}
);
unicode = 027E;
},
{
glyphname = rhook;
layers = (
{
background = {
paths = (
{
closed = 1;
nodes = (
"436 236 LINE",
"436 1147 LINE SMOOTH",
"436 1187 OFFCURVE",
"606 1219 OFFCURVE",
"694 1219 CURVE",
"694 1518 LINE",
"561 1518 OFFCURVE",
"470 1449 OFFCURVE",
"436 1333 CURVE",
"436 1500 LINE",
"72 1500 LINE",
"72 236 LINE"
);
},
{
closed = 1;
nodes = (
"540 16 LINE",
"465 16 OFFCURVE",
"436 62 OFFCURVE",
"436 148 CURVE SMOOTH",
"436 248 LINE",
"72 248 LINE",
"72 188 LINE SMOOTH",
"72 -74 OFFCURVE",
"211 -260 OFFCURVE",
"540 -260 CURVE"
);
}
);
};
layerId = "6CD1E358-6E98-409F-9A1F-EA9DE4C1A8AA";
paths = (
{
closed = 1;
nodes = (
"540 16 LINE",
"465 16 OFFCURVE",
"436 62 OFFCURVE",
"436 148 CURVE SMOOTH",
"436 1147 LINE SMOOTH",
"436 1187 OFFCURVE",
"606 1219 OFFCURVE",
"694 1219 CURVE",
"694 1518 LINE",
"561 1518 OFFCURVE",
"470 1449 OFFCURVE",
"436 1333 CURVE",
"436 1500 LINE",
"72 1500 LINE",
"72 188 LINE SMOOTH",
"72 -74 OFFCURVE",
"211 -260 OFFCURVE",
"540 -260 CURVE"
);
}
);
width = 710;
}
);
leftKerningGroup = n;
rightKerningGroup = r;
unicode = 027D;
},
{
glyphname = rstroke;
layers = (
{
components = (
{
alignment = -1;
name = r;
transform = "{1, 0, 0, 1, 50, 0}";
}
);
layerId = "6CD1E358-6E98-409F-9A1F-EA9DE4C1A8AA";
paths = (
{
closed = 1;
nodes = (
"630 649 LINE",
"630 881 LINE",
"10 881 LINE",
"10 649 LINE"
);
}
);
width = 760;
}
);
rightKerningGroup = r;
unicode = 024D;
},
{
glyphname = s;
layers = (
{
anchors = (
{
name = bot;
position = "{478, 0}";
},
{
name = bottom;
position = "{486, 0}";
},
{
name = top;
position = "{489, 1500}";
}
);
background = {
paths = (
{
closed = 1;
nodes = (
"763 -16 OFFCURVE",
"934 135 OFFCURVE",
"934 418 CURVE SMOOTH",
"934 646 OFFCURVE",
"825 768 OFFCURVE",
"688 870 CURVE SMOOTH",
"467 1032 LINE SMOOTH",
"424 1063 OFFCURVE",
"403 1106 OFFCURVE",
"403 1159 CURVE SMOOTH",
"403 1209 OFFCURVE",
"429 1239 OFFCURVE",
"479 1239 CURVE SMOOTH",
"539 1239 OFFCURVE",
"555 1170 OFFCURVE",
"555 1110 CURVE SMOOTH",
"555 1053 LINE",
"925 1053 LINE",
"925 1081 LINE SMOOTH",
"925 1372 OFFCURVE",
"776 1516 OFFCURVE",
"489 1516 CURVE SMOOTH",
"252 1516 OFFCURVE",
"45 1394 OFFCURVE",
"45 1157 CURVE SMOOTH",
"45 951 OFFCURVE",
"109 865 OFFCURVE",
"229 772 CURVE SMOOTH",
"420 625 LINE SMOOTH",
"498 566 OFFCURVE",
"561 515 OFFCURVE",
"561 385 CURVE SMOOTH",
"561 307 OFFCURVE",
"537 268 OFFCURVE",
"489 268 CURVE SMOOTH",
"424 268 OFFCURVE",
"401 309 OFFCURVE",
"401 377 CURVE SMOOTH",
"399 553 LINE",
"41 553 LINE",
"39 434 LINE SMOOTH",
"39 133 OFFCURVE",
"187 -16 OFFCURVE",
"483 -16 CURVE SMOOTH"
);
}
);
};
layerId = "6CD1E358-6E98-409F-9A1F-EA9DE4C1A8AA";
paths = (
{
closed = 1;
nodes = (
"763 -16 OFFCURVE",
"934 135 OFFCURVE",
"934 418 CURVE SMOOTH",
"934 646 OFFCURVE",
"827 770 OFFCURVE",
"689 870 CURVE SMOOTH",
"467 1032 LINE SMOOTH",
"424 1063 OFFCURVE",
"403 1106 OFFCURVE",
"403 1159 CURVE SMOOTH",
"403 1209 OFFCURVE",
"429 1239 OFFCURVE",
"479 1239 CURVE SMOOTH",
"539 1239 OFFCURVE",
"555 1170 OFFCURVE",
"555 1110 CURVE SMOOTH",
"555 1053 LINE",
"925 1053 LINE",
"925 1081 LINE SMOOTH",
"925 1372 OFFCURVE",
"776 1516 OFFCURVE",
"489 1516 CURVE SMOOTH",
"252 1516 OFFCURVE",
"45 1394 OFFCURVE",
"45 1137 CURVE SMOOTH",
"45 951 OFFCURVE",
"109 865 OFFCURVE",
"229 772 CURVE SMOOTH",
"420 625 LINE SMOOTH",
"498 565 OFFCURVE",
"561 515 OFFCURVE",
"561 385 CURVE SMOOTH",
"561 307 OFFCURVE",
"537 268 OFFCURVE",
"483 268 CURVE SMOOTH",
"424 268 OFFCURVE",
"399 309 OFFCURVE",
"399 377 CURVE SMOOTH",
"399 553 LINE",
"39 553 LINE",
"39 434 LINE SMOOTH",
"39 133 OFFCURVE",
"187 -16 OFFCURVE",
"483 -16 CURVE SMOOTH"
);
}
);
width = 972;
}
);
leftKerningGroup = s;
rightKerningGroup = s;
unicode = 0073;
userData = {
com.typemytype.robofont.layerData = {
};
};
},
{
glyphname = saltillo;
layers = (
{
layerId = "6CD1E358-6E98-409F-9A1F-EA9DE4C1A8AA";
paths = (
{
closed = 1;
nodes = (
"343 779 LINE",
"413 1660 LINE",
"55 1660 LINE",
"125 779 LINE"
);
}
);
width = 469;
}
);
unicode = A78C;
},
{
glyphname = scarondotaccent;
layers = (
{
components = (
{
name = s;
},
{
name = dotaccentcomb.case;
transform = "{1, 0, 0, 1, 489, 310}";
}
);
layerId = "6CD1E358-6E98-409F-9A1F-EA9DE4C1A8AA";
paths = (
{
closed = 1;
nodes = (
"638 1592 LINE",
"875 1847 LINE",
"590 1847 LINE",
"491 1711 LINE",
"392 1847 LINE",
"107 1847 LINE",
"344 1592 LINE"
);
}
);
width = 972;
}
);
leftKerningGroup = s;
rightKerningGroup = s;
unicode = 1E67;
},
